G04 #@! TF.GenerationSoftware,KiCad,Pcbnew,(5.1.5-0-10_14)*
G04 #@! TF.CreationDate,2020-04-18T17:33:32+10:00*
G04 #@! TF.ProjectId,etch-a-sketch,65746368-2d61-42d7-936b-657463682e6b,rev?*
G04 #@! TF.SameCoordinates,Original*
G04 #@! TF.FileFunction,Copper,L4,Bot*
G04 #@! TF.FilePolarity,Positive*
%FSLAX46Y46*%
G04 Gerber Fmt 4.6, Leading zero omitted, Abs format (unit mm)*
G04 Created by KiCad (PCBNEW (5.1.5-0-10_14)) date 2020-04-18 17:33:32*
%MOMM*%
%LPD*%
G04 APERTURE LIST*
%ADD10O,1.000000X1.000000*%
%ADD11R,1.000000X1.000000*%
%ADD12O,1.700000X1.700000*%
%ADD13R,1.700000X1.700000*%
%ADD14C,8.600000*%
%ADD15C,0.900000*%
%ADD16C,2.000000*%
%ADD17R,3.200000X2.000000*%
%ADD18R,2.000000X2.000000*%
%ADD19O,1.250000X0.950000*%
%ADD20O,1.000000X1.550000*%
%ADD21C,0.800000*%
%ADD22C,1.000000*%
%ADD23C,0.500000*%
%ADD24C,0.300000*%
%ADD25C,0.254000*%
G04 APERTURE END LIST*
D10*
X100230000Y-23170000D03*
X101500000Y-23170000D03*
X100230000Y-24440000D03*
X101500000Y-24440000D03*
X100230000Y-25710000D03*
X101500000Y-25710000D03*
X100230000Y-26980000D03*
X101500000Y-26980000D03*
X100230000Y-28250000D03*
D11*
X101500000Y-28250000D03*
D12*
X75160000Y-70250000D03*
X72620000Y-70250000D03*
X70080000Y-70250000D03*
X67540000Y-70250000D03*
D13*
X65000000Y-70250000D03*
D14*
X25000000Y-25000000D03*
D15*
X28225000Y-25000000D03*
X27280419Y-27280419D03*
X25000000Y-28225000D03*
X22719581Y-27280419D03*
X21775000Y-25000000D03*
X22719581Y-22719581D03*
X25000000Y-21775000D03*
X27280419Y-22719581D03*
X117280419Y-22719581D03*
X115000000Y-21775000D03*
X112719581Y-22719581D03*
X111775000Y-25000000D03*
X112719581Y-27280419D03*
X115000000Y-28225000D03*
X117280419Y-27280419D03*
X118225000Y-25000000D03*
D14*
X115000000Y-25000000D03*
X25000000Y-77000000D03*
D15*
X28225000Y-77000000D03*
X27280419Y-79280419D03*
X25000000Y-80225000D03*
X22719581Y-79280419D03*
X21775000Y-77000000D03*
X22719581Y-74719581D03*
X25000000Y-73775000D03*
X27280419Y-74719581D03*
X117280419Y-74719581D03*
X115000000Y-73775000D03*
X112719581Y-74719581D03*
X111775000Y-77000000D03*
X112719581Y-79280419D03*
X115000000Y-80225000D03*
X117280419Y-79280419D03*
X118225000Y-77000000D03*
D14*
X115000000Y-77000000D03*
D13*
X89000000Y-23800000D03*
D12*
X91540000Y-23800000D03*
D16*
X109000000Y-53500000D03*
X109000000Y-48500000D03*
D17*
X102000000Y-56600000D03*
X102000000Y-45400000D03*
D16*
X94500000Y-53500000D03*
X94500000Y-51000000D03*
D18*
X94500000Y-48500000D03*
D16*
X31000000Y-48500000D03*
X31000000Y-53500000D03*
D17*
X38000000Y-45400000D03*
X38000000Y-56600000D03*
D16*
X45500000Y-48500000D03*
X45500000Y-51000000D03*
D18*
X45500000Y-53500000D03*
D19*
X67500000Y-25250000D03*
X72500000Y-25250000D03*
D20*
X73500000Y-22550000D03*
X66500000Y-22550000D03*
D21*
X60800000Y-45900000D03*
D22*
X72950000Y-31850000D03*
X68950000Y-31350000D03*
X68950000Y-32600000D03*
X68950000Y-33850000D03*
X67700000Y-31350000D03*
X67700000Y-32600000D03*
X67700000Y-33850000D03*
D21*
X76000000Y-57750000D03*
X77750000Y-56500000D03*
X74750000Y-60250000D03*
X65250000Y-58250000D03*
X78500000Y-47500000D03*
X64000000Y-45000000D03*
X64000000Y-46250000D03*
X66500000Y-42500000D03*
X69500000Y-42750000D03*
X79250000Y-58000000D03*
X47500000Y-51000000D03*
X92500000Y-51000000D03*
X71750000Y-60500000D03*
X79700000Y-37100000D03*
X62250000Y-52250000D03*
X58000000Y-52250000D03*
X34250000Y-22750000D03*
X39250000Y-22750000D03*
X44250000Y-22750000D03*
X49250000Y-22750000D03*
X54250000Y-22750000D03*
X59250000Y-22750000D03*
X59250000Y-27750000D03*
X54250000Y-27750000D03*
X49250000Y-27750000D03*
X44250000Y-27750000D03*
X39250000Y-27750000D03*
X34250000Y-27750000D03*
X34250000Y-32750000D03*
X29250000Y-32750000D03*
X29250000Y-37750000D03*
X34250000Y-37750000D03*
X24250000Y-32750000D03*
X24250000Y-37750000D03*
X39250000Y-32750000D03*
X39250000Y-37750000D03*
X44250000Y-37750000D03*
X44250000Y-32750000D03*
X49250000Y-32750000D03*
X49250000Y-37750000D03*
X54250000Y-32750000D03*
X54250000Y-37750000D03*
X59250000Y-37750000D03*
X59250000Y-32750000D03*
X54250000Y-42750000D03*
X49250000Y-42750000D03*
X24250000Y-42750000D03*
X29250000Y-42750000D03*
X34250000Y-42750000D03*
X44250000Y-42750000D03*
X24250000Y-47750000D03*
X24250000Y-52750000D03*
X24250000Y-57750000D03*
X24250000Y-62750000D03*
X24250000Y-67750000D03*
X29250000Y-62750000D03*
X29250000Y-67750000D03*
X34250000Y-67750000D03*
X34250000Y-62750000D03*
X39250000Y-62750000D03*
X39250000Y-67750000D03*
X34250000Y-72750000D03*
X39250000Y-72750000D03*
X44250000Y-72750000D03*
X44250000Y-67750000D03*
X44250000Y-62750000D03*
X49250000Y-62750000D03*
X49250000Y-57750000D03*
X54250000Y-57750000D03*
X54250000Y-62750000D03*
X49250000Y-67750000D03*
X54250000Y-67750000D03*
X54250000Y-72750000D03*
X49250000Y-72750000D03*
X59250000Y-62750000D03*
X59250000Y-67750000D03*
X59250000Y-72750000D03*
X59250000Y-77750000D03*
X64250000Y-62750000D03*
X74250000Y-62750000D03*
X79250000Y-62750000D03*
X84250000Y-62750000D03*
X79250000Y-67750000D03*
X84250000Y-67750000D03*
X84250000Y-72750000D03*
X79250000Y-72750000D03*
X79250000Y-77750000D03*
X84250000Y-77750000D03*
X64250000Y-77750000D03*
X69250000Y-77750000D03*
X74250000Y-77750000D03*
X89250000Y-62750000D03*
X94250000Y-62750000D03*
X94250000Y-67750000D03*
X89250000Y-67750000D03*
X89250000Y-72750000D03*
X94250000Y-72750000D03*
X94250000Y-77750000D03*
X89250000Y-77750000D03*
X99250000Y-67750000D03*
X109250000Y-67750000D03*
X99250000Y-72750000D03*
X99250000Y-62750000D03*
X109250000Y-72750000D03*
X109250000Y-62750000D03*
X104250000Y-62750000D03*
X104250000Y-72750000D03*
X99250000Y-77750000D03*
X104250000Y-67750000D03*
X109250000Y-77750000D03*
X104250000Y-77750000D03*
X114250000Y-62750000D03*
X114250000Y-67750000D03*
X114250000Y-57750000D03*
X114250000Y-52750000D03*
X114250000Y-47750000D03*
X114250000Y-42750000D03*
X114250000Y-37750000D03*
X109250000Y-37750000D03*
X104250000Y-37750000D03*
X99250000Y-37750000D03*
X99250000Y-32750000D03*
X104250000Y-32750000D03*
X109250000Y-32750000D03*
X114250000Y-32750000D03*
X109250000Y-42750000D03*
X99250000Y-42750000D03*
X94250000Y-42750000D03*
X94250000Y-37750000D03*
X89250000Y-37750000D03*
X89250000Y-42750000D03*
X89250000Y-47750000D03*
X89250000Y-57750000D03*
X84250000Y-57750000D03*
X79250000Y-22750000D03*
X84250000Y-22750000D03*
X84250000Y-27750000D03*
X79250000Y-27750000D03*
D22*
X68950000Y-27200000D03*
D21*
X103850000Y-23150000D03*
X103850000Y-25650000D03*
X103850000Y-27050000D03*
D22*
X75450000Y-33100000D03*
X72950000Y-33100000D03*
X76950000Y-31600000D03*
X76950000Y-37350000D03*
X72950000Y-36100000D03*
X75450000Y-36100000D03*
D21*
X61750000Y-47250000D03*
X78500000Y-46500000D03*
X56250000Y-53750000D03*
X62700000Y-42000000D03*
X76000000Y-56750000D03*
X68500000Y-58250000D03*
X61250000Y-43500000D03*
X103850000Y-28250000D03*
X71250000Y-51250000D03*
X72250000Y-52000000D03*
X73750000Y-49250000D03*
X67500000Y-47750000D03*
X68500000Y-47250000D03*
X78000000Y-51250000D03*
X78000000Y-49750000D03*
X66250000Y-53832052D03*
X66250000Y-52750000D03*
D23*
X45500000Y-51000000D02*
X47500000Y-51000000D01*
X94500000Y-51000000D02*
X92500000Y-51000000D01*
X101500000Y-26980000D02*
X101500000Y-27000000D01*
D24*
X71250000Y-48889998D02*
X89000000Y-31139998D01*
X71250000Y-51250000D02*
X71250000Y-48889998D01*
X89000000Y-31139998D02*
X89000000Y-24000000D01*
X72250000Y-52000000D02*
X72250000Y-49250000D01*
X72250000Y-49250000D02*
X91500000Y-30000000D01*
X91500000Y-30000000D02*
X91500000Y-23750000D01*
X73750000Y-49250000D02*
X95500000Y-27500000D01*
X95500000Y-27500000D02*
X95450000Y-27550000D01*
X95500000Y-27500000D02*
X97250000Y-25750000D01*
X97250000Y-25750000D02*
X97250000Y-24050000D01*
X97250000Y-24050000D02*
X97250000Y-23750000D01*
X97250000Y-23750000D02*
X97850000Y-23150000D01*
X97850000Y-23150000D02*
X100250000Y-23150000D01*
X69250000Y-68500000D02*
X67500000Y-70250000D01*
X69250001Y-49500001D02*
X69250000Y-68500000D01*
X67500000Y-47750000D02*
X69250001Y-49500001D01*
X68500000Y-47250000D02*
X70000000Y-48750000D01*
X70000000Y-48750000D02*
X70000000Y-70000000D01*
X78000000Y-51250000D02*
X80250000Y-53500000D01*
X80250000Y-53500000D02*
X94500000Y-53500000D01*
X78000000Y-49750000D02*
X79250000Y-48500000D01*
X79250000Y-48500000D02*
X94500000Y-48500000D01*
X67500000Y-53250000D02*
X67000000Y-52750000D01*
X67500000Y-59500000D02*
X67500000Y-53250000D01*
X66707110Y-60250010D02*
X67457120Y-59500000D01*
X60250010Y-60250010D02*
X66707110Y-60250010D01*
X67000000Y-52750000D02*
X66250000Y-52750000D01*
X67457120Y-59500000D02*
X67500000Y-59500000D01*
X53500000Y-53500000D02*
X60250010Y-60250010D01*
X45250000Y-53500000D02*
X53500000Y-53500000D01*
X45500000Y-48500000D02*
X49250000Y-48500000D01*
X60500000Y-59750000D02*
X66500000Y-59750000D01*
X66500000Y-59750000D02*
X67000000Y-59250000D01*
X49250000Y-48500000D02*
X60500000Y-59750000D01*
X66250000Y-53832052D02*
X66832052Y-53832052D01*
X66832052Y-53832052D02*
X67000000Y-54000000D01*
X67000000Y-58250000D02*
X67000000Y-57932878D01*
X67000000Y-54000000D02*
X67000000Y-58250000D01*
X67000000Y-59250000D02*
X67000000Y-58250000D01*
D25*
G36*
X112301560Y-20839606D02*
G01*
X112188946Y-20914851D01*
X111696787Y-21517182D01*
X115000000Y-24820395D01*
X115014143Y-24806253D01*
X115193748Y-24985858D01*
X115179605Y-25000000D01*
X118482818Y-28303213D01*
X119085149Y-27811054D01*
X119340000Y-27349534D01*
X119340001Y-74648909D01*
X119160394Y-74301560D01*
X119085149Y-74188946D01*
X118482818Y-73696787D01*
X115179605Y-77000000D01*
X115193748Y-77014143D01*
X115014143Y-77193748D01*
X115000000Y-77179605D01*
X111696787Y-80482818D01*
X112188946Y-81085149D01*
X112650466Y-81340000D01*
X27351093Y-81340000D01*
X27698440Y-81160394D01*
X27811054Y-81085149D01*
X28303213Y-80482818D01*
X25000000Y-77179605D01*
X24985858Y-77193748D01*
X24806253Y-77014143D01*
X24820395Y-77000000D01*
X25179605Y-77000000D01*
X28482818Y-80303213D01*
X29085149Y-79811054D01*
X29555063Y-78960067D01*
X29849929Y-78033757D01*
X29958414Y-77067719D01*
X29946940Y-76932281D01*
X110041586Y-76932281D01*
X110123649Y-77900921D01*
X110393107Y-78834938D01*
X110839606Y-79698440D01*
X110914851Y-79811054D01*
X111517182Y-80303213D01*
X114820395Y-77000000D01*
X111517182Y-73696787D01*
X110914851Y-74188946D01*
X110444937Y-75039933D01*
X110150071Y-75966243D01*
X110041586Y-76932281D01*
X29946940Y-76932281D01*
X29876351Y-76099079D01*
X29606893Y-75165062D01*
X29160394Y-74301560D01*
X29085149Y-74188946D01*
X28482818Y-73696787D01*
X25179605Y-77000000D01*
X24820395Y-77000000D01*
X21517182Y-73696787D01*
X20914851Y-74188946D01*
X20660000Y-74650466D01*
X20660000Y-73517182D01*
X21696787Y-73517182D01*
X25000000Y-76820395D01*
X28303213Y-73517182D01*
X111696787Y-73517182D01*
X115000000Y-76820395D01*
X118303213Y-73517182D01*
X117811054Y-72914851D01*
X116960067Y-72444937D01*
X116033757Y-72150071D01*
X115067719Y-72041586D01*
X114099079Y-72123649D01*
X113165062Y-72393107D01*
X112301560Y-72839606D01*
X112188946Y-72914851D01*
X111696787Y-73517182D01*
X28303213Y-73517182D01*
X27811054Y-72914851D01*
X26960067Y-72444937D01*
X26033757Y-72150071D01*
X25067719Y-72041586D01*
X24099079Y-72123649D01*
X23165062Y-72393107D01*
X22301560Y-72839606D01*
X22188946Y-72914851D01*
X21696787Y-73517182D01*
X20660000Y-73517182D01*
X20660000Y-55600000D01*
X35761928Y-55600000D01*
X35761928Y-57600000D01*
X35774188Y-57724482D01*
X35810498Y-57844180D01*
X35869463Y-57954494D01*
X35948815Y-58051185D01*
X36045506Y-58130537D01*
X36155820Y-58189502D01*
X36275518Y-58225812D01*
X36400000Y-58238072D01*
X39600000Y-58238072D01*
X39724482Y-58225812D01*
X39844180Y-58189502D01*
X39954494Y-58130537D01*
X40051185Y-58051185D01*
X40130537Y-57954494D01*
X40189502Y-57844180D01*
X40225812Y-57724482D01*
X40238072Y-57600000D01*
X40238072Y-55600000D01*
X40225812Y-55475518D01*
X40189502Y-55355820D01*
X40130537Y-55245506D01*
X40051185Y-55148815D01*
X39954494Y-55069463D01*
X39844180Y-55010498D01*
X39724482Y-54974188D01*
X39600000Y-54961928D01*
X36400000Y-54961928D01*
X36275518Y-54974188D01*
X36155820Y-55010498D01*
X36045506Y-55069463D01*
X35948815Y-55148815D01*
X35869463Y-55245506D01*
X35810498Y-55355820D01*
X35774188Y-55475518D01*
X35761928Y-55600000D01*
X20660000Y-55600000D01*
X20660000Y-53338967D01*
X29365000Y-53338967D01*
X29365000Y-53661033D01*
X29427832Y-53976912D01*
X29551082Y-54274463D01*
X29730013Y-54542252D01*
X29957748Y-54769987D01*
X30225537Y-54948918D01*
X30523088Y-55072168D01*
X30838967Y-55135000D01*
X31161033Y-55135000D01*
X31476912Y-55072168D01*
X31774463Y-54948918D01*
X32042252Y-54769987D01*
X32269987Y-54542252D01*
X32448918Y-54274463D01*
X32572168Y-53976912D01*
X32635000Y-53661033D01*
X32635000Y-53338967D01*
X32572168Y-53023088D01*
X32448918Y-52725537D01*
X32269987Y-52457748D01*
X32042252Y-52230013D01*
X31774463Y-52051082D01*
X31476912Y-51927832D01*
X31161033Y-51865000D01*
X30838967Y-51865000D01*
X30523088Y-51927832D01*
X30225537Y-52051082D01*
X29957748Y-52230013D01*
X29730013Y-52457748D01*
X29551082Y-52725537D01*
X29427832Y-53023088D01*
X29365000Y-53338967D01*
X20660000Y-53338967D01*
X20660000Y-51062595D01*
X43858282Y-51062595D01*
X43902039Y-51381675D01*
X44007205Y-51686088D01*
X44100186Y-51860044D01*
X44249223Y-51914024D01*
X44145506Y-51969463D01*
X44048815Y-52048815D01*
X43969463Y-52145506D01*
X43910498Y-52255820D01*
X43874188Y-52375518D01*
X43861928Y-52500000D01*
X43861928Y-54500000D01*
X43874188Y-54624482D01*
X43910498Y-54744180D01*
X43969463Y-54854494D01*
X44048815Y-54951185D01*
X44145506Y-55030537D01*
X44255820Y-55089502D01*
X44375518Y-55125812D01*
X44500000Y-55138072D01*
X46500000Y-55138072D01*
X46624482Y-55125812D01*
X46744180Y-55089502D01*
X46854494Y-55030537D01*
X46951185Y-54951185D01*
X47030537Y-54854494D01*
X47089502Y-54744180D01*
X47125812Y-54624482D01*
X47138072Y-54500000D01*
X47138072Y-54285000D01*
X53174843Y-54285000D01*
X59667663Y-60777820D01*
X59692246Y-60807774D01*
X59811777Y-60905872D01*
X59948150Y-60978764D01*
X60096123Y-61023652D01*
X60171036Y-61031030D01*
X60211449Y-61035010D01*
X60211454Y-61035010D01*
X60250010Y-61038807D01*
X60288566Y-61035010D01*
X66668557Y-61035010D01*
X66707110Y-61038807D01*
X66745663Y-61035010D01*
X66745671Y-61035010D01*
X66860997Y-61023651D01*
X67008970Y-60978764D01*
X67145343Y-60905872D01*
X67264874Y-60807774D01*
X67289457Y-60777821D01*
X67880623Y-60186655D01*
X67938233Y-60155862D01*
X68057764Y-60057764D01*
X68155862Y-59938233D01*
X68228754Y-59801860D01*
X68273641Y-59653887D01*
X68288798Y-59500000D01*
X68285000Y-59461439D01*
X68285000Y-59262511D01*
X68398061Y-59285000D01*
X68465001Y-59285000D01*
X68465000Y-68174843D01*
X67843555Y-68796288D01*
X67686260Y-68765000D01*
X67393740Y-68765000D01*
X67106842Y-68822068D01*
X66836589Y-68934010D01*
X66593368Y-69096525D01*
X66461513Y-69228380D01*
X66439502Y-69155820D01*
X66380537Y-69045506D01*
X66301185Y-68948815D01*
X66204494Y-68869463D01*
X66094180Y-68810498D01*
X65974482Y-68774188D01*
X65850000Y-68761928D01*
X64150000Y-68761928D01*
X64025518Y-68774188D01*
X63905820Y-68810498D01*
X63795506Y-68869463D01*
X63698815Y-68948815D01*
X63619463Y-69045506D01*
X63560498Y-69155820D01*
X63524188Y-69275518D01*
X63511928Y-69400000D01*
X63511928Y-71100000D01*
X63524188Y-71224482D01*
X63560498Y-71344180D01*
X63619463Y-71454494D01*
X63698815Y-71551185D01*
X63795506Y-71630537D01*
X63905820Y-71689502D01*
X64025518Y-71725812D01*
X64150000Y-71738072D01*
X65850000Y-71738072D01*
X65974482Y-71725812D01*
X66094180Y-71689502D01*
X66204494Y-71630537D01*
X66301185Y-71551185D01*
X66380537Y-71454494D01*
X66439502Y-71344180D01*
X66461513Y-71271620D01*
X66593368Y-71403475D01*
X66836589Y-71565990D01*
X67106842Y-71677932D01*
X67393740Y-71735000D01*
X67686260Y-71735000D01*
X67973158Y-71677932D01*
X68243411Y-71565990D01*
X68486632Y-71403475D01*
X68693475Y-71196632D01*
X68810000Y-71022240D01*
X68926525Y-71196632D01*
X69133368Y-71403475D01*
X69376589Y-71565990D01*
X69646842Y-71677932D01*
X69933740Y-71735000D01*
X70226260Y-71735000D01*
X70513158Y-71677932D01*
X70783411Y-71565990D01*
X71026632Y-71403475D01*
X71233475Y-71196632D01*
X71350000Y-71022240D01*
X71466525Y-71196632D01*
X71673368Y-71403475D01*
X71916589Y-71565990D01*
X72186842Y-71677932D01*
X72473740Y-71735000D01*
X72766260Y-71735000D01*
X73053158Y-71677932D01*
X73323411Y-71565990D01*
X73566632Y-71403475D01*
X73773475Y-71196632D01*
X73895195Y-71014466D01*
X73964822Y-71131355D01*
X74159731Y-71347588D01*
X74393080Y-71521641D01*
X74655901Y-71646825D01*
X74803110Y-71691476D01*
X75033000Y-71570155D01*
X75033000Y-70377000D01*
X75287000Y-70377000D01*
X75287000Y-71570155D01*
X75516890Y-71691476D01*
X75664099Y-71646825D01*
X75926920Y-71521641D01*
X76160269Y-71347588D01*
X76355178Y-71131355D01*
X76504157Y-70881252D01*
X76601481Y-70606891D01*
X76480814Y-70377000D01*
X75287000Y-70377000D01*
X75033000Y-70377000D01*
X75013000Y-70377000D01*
X75013000Y-70123000D01*
X75033000Y-70123000D01*
X75033000Y-68929845D01*
X75287000Y-68929845D01*
X75287000Y-70123000D01*
X76480814Y-70123000D01*
X76601481Y-69893109D01*
X76504157Y-69618748D01*
X76355178Y-69368645D01*
X76160269Y-69152412D01*
X75926920Y-68978359D01*
X75664099Y-68853175D01*
X75516890Y-68808524D01*
X75287000Y-68929845D01*
X75033000Y-68929845D01*
X74803110Y-68808524D01*
X74655901Y-68853175D01*
X74393080Y-68978359D01*
X74159731Y-69152412D01*
X73964822Y-69368645D01*
X73895195Y-69485534D01*
X73773475Y-69303368D01*
X73566632Y-69096525D01*
X73323411Y-68934010D01*
X73053158Y-68822068D01*
X72766260Y-68765000D01*
X72473740Y-68765000D01*
X72186842Y-68822068D01*
X71916589Y-68934010D01*
X71673368Y-69096525D01*
X71466525Y-69303368D01*
X71350000Y-69477760D01*
X71233475Y-69303368D01*
X71026632Y-69096525D01*
X70785000Y-68935072D01*
X70785000Y-56648061D01*
X74965000Y-56648061D01*
X74965000Y-56851939D01*
X75004774Y-57051898D01*
X75082795Y-57240256D01*
X75196063Y-57409774D01*
X75340226Y-57553937D01*
X75509744Y-57667205D01*
X75698102Y-57745226D01*
X75898061Y-57785000D01*
X76101939Y-57785000D01*
X76301898Y-57745226D01*
X76490256Y-57667205D01*
X76659774Y-57553937D01*
X76803937Y-57409774D01*
X76917205Y-57240256D01*
X76995226Y-57051898D01*
X77035000Y-56851939D01*
X77035000Y-56648061D01*
X76995226Y-56448102D01*
X76917205Y-56259744D01*
X76803937Y-56090226D01*
X76659774Y-55946063D01*
X76490256Y-55832795D01*
X76301898Y-55754774D01*
X76101939Y-55715000D01*
X75898061Y-55715000D01*
X75698102Y-55754774D01*
X75509744Y-55832795D01*
X75340226Y-55946063D01*
X75196063Y-56090226D01*
X75082795Y-56259744D01*
X75004774Y-56448102D01*
X74965000Y-56648061D01*
X70785000Y-56648061D01*
X70785000Y-55600000D01*
X99761928Y-55600000D01*
X99761928Y-57600000D01*
X99774188Y-57724482D01*
X99810498Y-57844180D01*
X99869463Y-57954494D01*
X99948815Y-58051185D01*
X100045506Y-58130537D01*
X100155820Y-58189502D01*
X100275518Y-58225812D01*
X100400000Y-58238072D01*
X103600000Y-58238072D01*
X103724482Y-58225812D01*
X103844180Y-58189502D01*
X103954494Y-58130537D01*
X104051185Y-58051185D01*
X104130537Y-57954494D01*
X104189502Y-57844180D01*
X104225812Y-57724482D01*
X104238072Y-57600000D01*
X104238072Y-55600000D01*
X104225812Y-55475518D01*
X104189502Y-55355820D01*
X104130537Y-55245506D01*
X104051185Y-55148815D01*
X103954494Y-55069463D01*
X103844180Y-55010498D01*
X103724482Y-54974188D01*
X103600000Y-54961928D01*
X100400000Y-54961928D01*
X100275518Y-54974188D01*
X100155820Y-55010498D01*
X100045506Y-55069463D01*
X99948815Y-55148815D01*
X99869463Y-55245506D01*
X99810498Y-55355820D01*
X99774188Y-55475518D01*
X99761928Y-55600000D01*
X70785000Y-55600000D01*
X70785000Y-52177666D01*
X70948102Y-52245226D01*
X71148061Y-52285000D01*
X71251413Y-52285000D01*
X71254774Y-52301898D01*
X71332795Y-52490256D01*
X71446063Y-52659774D01*
X71590226Y-52803937D01*
X71759744Y-52917205D01*
X71948102Y-52995226D01*
X72148061Y-53035000D01*
X72351939Y-53035000D01*
X72551898Y-52995226D01*
X72740256Y-52917205D01*
X72909774Y-52803937D01*
X73053937Y-52659774D01*
X73167205Y-52490256D01*
X73245226Y-52301898D01*
X73285000Y-52101939D01*
X73285000Y-51898061D01*
X73245226Y-51698102D01*
X73167205Y-51509744D01*
X73053937Y-51340226D01*
X73035000Y-51321289D01*
X73035000Y-49998711D01*
X73090226Y-50053937D01*
X73259744Y-50167205D01*
X73448102Y-50245226D01*
X73648061Y-50285000D01*
X73851939Y-50285000D01*
X74051898Y-50245226D01*
X74240256Y-50167205D01*
X74409774Y-50053937D01*
X74553937Y-49909774D01*
X74667205Y-49740256D01*
X74705393Y-49648061D01*
X76965000Y-49648061D01*
X76965000Y-49851939D01*
X77004774Y-50051898D01*
X77082795Y-50240256D01*
X77196063Y-50409774D01*
X77286289Y-50500000D01*
X77196063Y-50590226D01*
X77082795Y-50759744D01*
X77004774Y-50948102D01*
X76965000Y-51148061D01*
X76965000Y-51351939D01*
X77004774Y-51551898D01*
X77082795Y-51740256D01*
X77196063Y-51909774D01*
X77340226Y-52053937D01*
X77509744Y-52167205D01*
X77698102Y-52245226D01*
X77898061Y-52285000D01*
X77924843Y-52285000D01*
X79667653Y-54027810D01*
X79692236Y-54057764D01*
X79811767Y-54155862D01*
X79948140Y-54228754D01*
X80096113Y-54273642D01*
X80171026Y-54281020D01*
X80211439Y-54285000D01*
X80211444Y-54285000D01*
X80250000Y-54288797D01*
X80288556Y-54285000D01*
X93058123Y-54285000D01*
X93230013Y-54542252D01*
X93457748Y-54769987D01*
X93725537Y-54948918D01*
X94023088Y-55072168D01*
X94338967Y-55135000D01*
X94661033Y-55135000D01*
X94976912Y-55072168D01*
X95274463Y-54948918D01*
X95542252Y-54769987D01*
X95769987Y-54542252D01*
X95948918Y-54274463D01*
X96072168Y-53976912D01*
X96135000Y-53661033D01*
X96135000Y-53338967D01*
X107365000Y-53338967D01*
X107365000Y-53661033D01*
X107427832Y-53976912D01*
X107551082Y-54274463D01*
X107730013Y-54542252D01*
X107957748Y-54769987D01*
X108225537Y-54948918D01*
X108523088Y-55072168D01*
X108838967Y-55135000D01*
X109161033Y-55135000D01*
X109476912Y-55072168D01*
X109774463Y-54948918D01*
X110042252Y-54769987D01*
X110269987Y-54542252D01*
X110448918Y-54274463D01*
X110572168Y-53976912D01*
X110635000Y-53661033D01*
X110635000Y-53338967D01*
X110572168Y-53023088D01*
X110448918Y-52725537D01*
X110269987Y-52457748D01*
X110042252Y-52230013D01*
X109774463Y-52051082D01*
X109476912Y-51927832D01*
X109161033Y-51865000D01*
X108838967Y-51865000D01*
X108523088Y-51927832D01*
X108225537Y-52051082D01*
X107957748Y-52230013D01*
X107730013Y-52457748D01*
X107551082Y-52725537D01*
X107427832Y-53023088D01*
X107365000Y-53338967D01*
X96135000Y-53338967D01*
X96072168Y-53023088D01*
X95948918Y-52725537D01*
X95769987Y-52457748D01*
X95542252Y-52230013D01*
X95445065Y-52165075D01*
X95455808Y-52135413D01*
X94500000Y-51179605D01*
X93544192Y-52135413D01*
X93554935Y-52165075D01*
X93457748Y-52230013D01*
X93230013Y-52457748D01*
X93058123Y-52715000D01*
X80575157Y-52715000D01*
X79035000Y-51174843D01*
X79035000Y-51148061D01*
X78995226Y-50948102D01*
X78917205Y-50759744D01*
X78803937Y-50590226D01*
X78713711Y-50500000D01*
X78803937Y-50409774D01*
X78917205Y-50240256D01*
X78995226Y-50051898D01*
X79035000Y-49851939D01*
X79035000Y-49825157D01*
X79575158Y-49285000D01*
X92861928Y-49285000D01*
X92861928Y-49500000D01*
X92874188Y-49624482D01*
X92910498Y-49744180D01*
X92969463Y-49854494D01*
X93048815Y-49951185D01*
X93145506Y-50030537D01*
X93249223Y-50085976D01*
X93100186Y-50139956D01*
X92959296Y-50429571D01*
X92877616Y-50741108D01*
X92858282Y-51062595D01*
X92902039Y-51381675D01*
X93007205Y-51686088D01*
X93100186Y-51860044D01*
X93364587Y-51955808D01*
X94320395Y-51000000D01*
X94306253Y-50985858D01*
X94485858Y-50806253D01*
X94500000Y-50820395D01*
X94514143Y-50806253D01*
X94693748Y-50985858D01*
X94679605Y-51000000D01*
X95635413Y-51955808D01*
X95899814Y-51860044D01*
X96040704Y-51570429D01*
X96122384Y-51258892D01*
X96141718Y-50937405D01*
X96097961Y-50618325D01*
X95992795Y-50313912D01*
X95899814Y-50139956D01*
X95750777Y-50085976D01*
X95854494Y-50030537D01*
X95951185Y-49951185D01*
X96030537Y-49854494D01*
X96089502Y-49744180D01*
X96125812Y-49624482D01*
X96138072Y-49500000D01*
X96138072Y-48338967D01*
X107365000Y-48338967D01*
X107365000Y-48661033D01*
X107427832Y-48976912D01*
X107551082Y-49274463D01*
X107730013Y-49542252D01*
X107957748Y-49769987D01*
X108225537Y-49948918D01*
X108523088Y-50072168D01*
X108838967Y-50135000D01*
X109161033Y-50135000D01*
X109476912Y-50072168D01*
X109774463Y-49948918D01*
X110042252Y-49769987D01*
X110269987Y-49542252D01*
X110448918Y-49274463D01*
X110572168Y-48976912D01*
X110635000Y-48661033D01*
X110635000Y-48338967D01*
X110572168Y-48023088D01*
X110448918Y-47725537D01*
X110269987Y-47457748D01*
X110042252Y-47230013D01*
X109774463Y-47051082D01*
X109476912Y-46927832D01*
X109161033Y-46865000D01*
X108838967Y-46865000D01*
X108523088Y-46927832D01*
X108225537Y-47051082D01*
X107957748Y-47230013D01*
X107730013Y-47457748D01*
X107551082Y-47725537D01*
X107427832Y-48023088D01*
X107365000Y-48338967D01*
X96138072Y-48338967D01*
X96138072Y-47500000D01*
X96125812Y-47375518D01*
X96089502Y-47255820D01*
X96030537Y-47145506D01*
X95951185Y-47048815D01*
X95854494Y-46969463D01*
X95744180Y-46910498D01*
X95624482Y-46874188D01*
X95500000Y-46861928D01*
X93500000Y-46861928D01*
X93375518Y-46874188D01*
X93255820Y-46910498D01*
X93145506Y-46969463D01*
X93048815Y-47048815D01*
X92969463Y-47145506D01*
X92910498Y-47255820D01*
X92874188Y-47375518D01*
X92861928Y-47500000D01*
X92861928Y-47715000D01*
X79288555Y-47715000D01*
X79250000Y-47711203D01*
X79211444Y-47715000D01*
X79211439Y-47715000D01*
X79171026Y-47718980D01*
X79096113Y-47726358D01*
X78948140Y-47771246D01*
X78811767Y-47844138D01*
X78751559Y-47893550D01*
X78722187Y-47917655D01*
X78722184Y-47917658D01*
X78692236Y-47942236D01*
X78667658Y-47972185D01*
X77924843Y-48715000D01*
X77898061Y-48715000D01*
X77698102Y-48754774D01*
X77509744Y-48832795D01*
X77340226Y-48946063D01*
X77196063Y-49090226D01*
X77082795Y-49259744D01*
X77004774Y-49448102D01*
X76965000Y-49648061D01*
X74705393Y-49648061D01*
X74745226Y-49551898D01*
X74785000Y-49351939D01*
X74785000Y-49325157D01*
X77472170Y-46637987D01*
X77504774Y-46801898D01*
X77582795Y-46990256D01*
X77696063Y-47159774D01*
X77840226Y-47303937D01*
X78009744Y-47417205D01*
X78198102Y-47495226D01*
X78398061Y-47535000D01*
X78601939Y-47535000D01*
X78801898Y-47495226D01*
X78990256Y-47417205D01*
X79159774Y-47303937D01*
X79303937Y-47159774D01*
X79417205Y-46990256D01*
X79495226Y-46801898D01*
X79535000Y-46601939D01*
X79535000Y-46398061D01*
X79495226Y-46198102D01*
X79417205Y-46009744D01*
X79303937Y-45840226D01*
X79159774Y-45696063D01*
X78990256Y-45582795D01*
X78801898Y-45504774D01*
X78637987Y-45472170D01*
X79710157Y-44400000D01*
X99761928Y-44400000D01*
X99761928Y-46400000D01*
X99774188Y-46524482D01*
X99810498Y-46644180D01*
X99869463Y-46754494D01*
X99948815Y-46851185D01*
X100045506Y-46930537D01*
X100155820Y-46989502D01*
X100275518Y-47025812D01*
X100400000Y-47038072D01*
X103600000Y-47038072D01*
X103724482Y-47025812D01*
X103844180Y-46989502D01*
X103954494Y-46930537D01*
X104051185Y-46851185D01*
X104130537Y-46754494D01*
X104189502Y-46644180D01*
X104225812Y-46524482D01*
X104238072Y-46400000D01*
X104238072Y-44400000D01*
X104225812Y-44275518D01*
X104189502Y-44155820D01*
X104130537Y-44045506D01*
X104051185Y-43948815D01*
X103954494Y-43869463D01*
X103844180Y-43810498D01*
X103724482Y-43774188D01*
X103600000Y-43761928D01*
X100400000Y-43761928D01*
X100275518Y-43774188D01*
X100155820Y-43810498D01*
X100045506Y-43869463D01*
X99948815Y-43948815D01*
X99869463Y-44045506D01*
X99810498Y-44155820D01*
X99774188Y-44275518D01*
X99761928Y-44400000D01*
X79710157Y-44400000D01*
X96082345Y-28027813D01*
X96082350Y-28027807D01*
X97777811Y-26332346D01*
X97807764Y-26307764D01*
X97905862Y-26188233D01*
X97978754Y-26051860D01*
X97983404Y-26036532D01*
X98023642Y-25903887D01*
X98031727Y-25821788D01*
X98035000Y-25788561D01*
X98035000Y-25788556D01*
X98038797Y-25750000D01*
X98035000Y-25711444D01*
X98035000Y-24075157D01*
X98175158Y-23935000D01*
X99210663Y-23935000D01*
X99138617Y-24108933D01*
X99095000Y-24328212D01*
X99095000Y-24551788D01*
X99138617Y-24771067D01*
X99224176Y-24977624D01*
X99289241Y-25075000D01*
X99224176Y-25172376D01*
X99138617Y-25378933D01*
X99095000Y-25598212D01*
X99095000Y-25821788D01*
X99138617Y-26041067D01*
X99224176Y-26247624D01*
X99289241Y-26345000D01*
X99224176Y-26442376D01*
X99138617Y-26648933D01*
X99095000Y-26868212D01*
X99095000Y-27091788D01*
X99138617Y-27311067D01*
X99224176Y-27517624D01*
X99289241Y-27615000D01*
X99224176Y-27712376D01*
X99138617Y-27918933D01*
X99095000Y-28138212D01*
X99095000Y-28361788D01*
X99138617Y-28581067D01*
X99224176Y-28787624D01*
X99348388Y-28973520D01*
X99506480Y-29131612D01*
X99692376Y-29255824D01*
X99898933Y-29341383D01*
X100118212Y-29385000D01*
X100341788Y-29385000D01*
X100561067Y-29341383D01*
X100672774Y-29295112D01*
X100755820Y-29339502D01*
X100875518Y-29375812D01*
X101000000Y-29388072D01*
X102000000Y-29388072D01*
X102124482Y-29375812D01*
X102244180Y-29339502D01*
X102354494Y-29280537D01*
X102451185Y-29201185D01*
X102530537Y-29104494D01*
X102589502Y-28994180D01*
X102625812Y-28874482D01*
X102638072Y-28750000D01*
X102638072Y-28148061D01*
X102815000Y-28148061D01*
X102815000Y-28351939D01*
X102854774Y-28551898D01*
X102932795Y-28740256D01*
X103046063Y-28909774D01*
X103190226Y-29053937D01*
X103359744Y-29167205D01*
X103548102Y-29245226D01*
X103748061Y-29285000D01*
X103951939Y-29285000D01*
X104151898Y-29245226D01*
X104340256Y-29167205D01*
X104509774Y-29053937D01*
X104653937Y-28909774D01*
X104767205Y-28740256D01*
X104845226Y-28551898D01*
X104858966Y-28482818D01*
X111696787Y-28482818D01*
X112188946Y-29085149D01*
X113039933Y-29555063D01*
X113966243Y-29849929D01*
X114932281Y-29958414D01*
X115900921Y-29876351D01*
X116834938Y-29606893D01*
X117698440Y-29160394D01*
X117811054Y-29085149D01*
X118303213Y-28482818D01*
X115000000Y-25179605D01*
X111696787Y-28482818D01*
X104858966Y-28482818D01*
X104885000Y-28351939D01*
X104885000Y-28148061D01*
X104845226Y-27948102D01*
X104767205Y-27759744D01*
X104653937Y-27590226D01*
X104509774Y-27446063D01*
X104340256Y-27332795D01*
X104151898Y-27254774D01*
X103951939Y-27215000D01*
X103748061Y-27215000D01*
X103548102Y-27254774D01*
X103359744Y-27332795D01*
X103190226Y-27446063D01*
X103046063Y-27590226D01*
X102932795Y-27759744D01*
X102854774Y-27948102D01*
X102815000Y-28148061D01*
X102638072Y-28148061D01*
X102638072Y-27750000D01*
X102625812Y-27625518D01*
X102589502Y-27505820D01*
X102541930Y-27416820D01*
X102577446Y-27336864D01*
X102594119Y-27281874D01*
X102467954Y-27107000D01*
X101627000Y-27107000D01*
X101627000Y-27111928D01*
X101373000Y-27111928D01*
X101373000Y-27107000D01*
X101361974Y-27107000D01*
X101365000Y-27091788D01*
X101365000Y-26868212D01*
X101361974Y-26853000D01*
X101373000Y-26853000D01*
X101373000Y-25837000D01*
X101627000Y-25837000D01*
X101627000Y-26853000D01*
X102467954Y-26853000D01*
X102594119Y-26678126D01*
X102577446Y-26623136D01*
X102487123Y-26419794D01*
X102434361Y-26345000D01*
X102487123Y-26270206D01*
X102577446Y-26066864D01*
X102594119Y-26011874D01*
X102467954Y-25837000D01*
X101627000Y-25837000D01*
X101373000Y-25837000D01*
X101361974Y-25837000D01*
X101365000Y-25821788D01*
X101365000Y-25598212D01*
X101361974Y-25583000D01*
X101373000Y-25583000D01*
X101373000Y-25571974D01*
X101388212Y-25575000D01*
X101611788Y-25575000D01*
X101627000Y-25571974D01*
X101627000Y-25583000D01*
X102467954Y-25583000D01*
X102594119Y-25408126D01*
X102577446Y-25353136D01*
X102487123Y-25149794D01*
X102437647Y-25079658D01*
X102505824Y-24977624D01*
X102524605Y-24932281D01*
X110041586Y-24932281D01*
X110123649Y-25900921D01*
X110393107Y-26834938D01*
X110839606Y-27698440D01*
X110914851Y-27811054D01*
X111517182Y-28303213D01*
X114820395Y-25000000D01*
X111517182Y-21696787D01*
X110914851Y-22188946D01*
X110444937Y-23039933D01*
X110150071Y-23966243D01*
X110041586Y-24932281D01*
X102524605Y-24932281D01*
X102591383Y-24771067D01*
X102635000Y-24551788D01*
X102635000Y-24328212D01*
X102591383Y-24108933D01*
X102505824Y-23902376D01*
X102437647Y-23800342D01*
X102487123Y-23730206D01*
X102577446Y-23526864D01*
X102594119Y-23471874D01*
X102467954Y-23297000D01*
X101627000Y-23297000D01*
X101627000Y-23308026D01*
X101611788Y-23305000D01*
X101388212Y-23305000D01*
X101373000Y-23308026D01*
X101373000Y-23297000D01*
X101361974Y-23297000D01*
X101365000Y-23281788D01*
X101365000Y-23058212D01*
X101361974Y-23043000D01*
X101373000Y-23043000D01*
X101373000Y-22200871D01*
X101627000Y-22200871D01*
X101627000Y-23043000D01*
X102467954Y-23043000D01*
X102594119Y-22868126D01*
X102577446Y-22813136D01*
X102487123Y-22609794D01*
X102358865Y-22427980D01*
X102197601Y-22274682D01*
X102009529Y-22155790D01*
X101801876Y-22075874D01*
X101627000Y-22200871D01*
X101373000Y-22200871D01*
X101198124Y-22075874D01*
X100990471Y-22155790D01*
X100869512Y-22232256D01*
X100767624Y-22164176D01*
X100561067Y-22078617D01*
X100341788Y-22035000D01*
X100118212Y-22035000D01*
X99898933Y-22078617D01*
X99692376Y-22164176D01*
X99506480Y-22288388D01*
X99429868Y-22365000D01*
X97888552Y-22365000D01*
X97849999Y-22361203D01*
X97811446Y-22365000D01*
X97811439Y-22365000D01*
X97713353Y-22374661D01*
X97696112Y-22376359D01*
X97627521Y-22397166D01*
X97548140Y-22421246D01*
X97411767Y-22494138D01*
X97383518Y-22517322D01*
X97322187Y-22567655D01*
X97322184Y-22567658D01*
X97292236Y-22592236D01*
X97267657Y-22622185D01*
X96722188Y-23167655D01*
X96692236Y-23192236D01*
X96594138Y-23311767D01*
X96521246Y-23448140D01*
X96476359Y-23596113D01*
X96465000Y-23711439D01*
X96465000Y-23711447D01*
X96461203Y-23750000D01*
X96465000Y-23788553D01*
X96465000Y-24088560D01*
X96465001Y-24088570D01*
X96465000Y-25424843D01*
X94972193Y-26917650D01*
X94972187Y-26917655D01*
X92285000Y-29604842D01*
X92285000Y-25088201D01*
X92486632Y-24953475D01*
X92693475Y-24746632D01*
X92855990Y-24503411D01*
X92967932Y-24233158D01*
X93025000Y-23946260D01*
X93025000Y-23653740D01*
X92967932Y-23366842D01*
X92855990Y-23096589D01*
X92693475Y-22853368D01*
X92486632Y-22646525D01*
X92243411Y-22484010D01*
X91973158Y-22372068D01*
X91686260Y-22315000D01*
X91393740Y-22315000D01*
X91106842Y-22372068D01*
X90836589Y-22484010D01*
X90593368Y-22646525D01*
X90461513Y-22778380D01*
X90439502Y-22705820D01*
X90380537Y-22595506D01*
X90301185Y-22498815D01*
X90204494Y-22419463D01*
X90094180Y-22360498D01*
X89974482Y-22324188D01*
X89850000Y-22311928D01*
X88150000Y-22311928D01*
X88025518Y-22324188D01*
X87905820Y-22360498D01*
X87795506Y-22419463D01*
X87698815Y-22498815D01*
X87619463Y-22595506D01*
X87560498Y-22705820D01*
X87524188Y-22825518D01*
X87511928Y-22950000D01*
X87511928Y-24650000D01*
X87524188Y-24774482D01*
X87560498Y-24894180D01*
X87619463Y-25004494D01*
X87698815Y-25101185D01*
X87795506Y-25180537D01*
X87905820Y-25239502D01*
X88025518Y-25275812D01*
X88150000Y-25288072D01*
X88215001Y-25288072D01*
X88215000Y-30814841D01*
X70722185Y-48307656D01*
X70692237Y-48332234D01*
X70676834Y-48351003D01*
X70655862Y-48311767D01*
X70606450Y-48251559D01*
X70582345Y-48222187D01*
X70582342Y-48222184D01*
X70557764Y-48192236D01*
X70527817Y-48167659D01*
X69535000Y-47174843D01*
X69535000Y-47148061D01*
X69495226Y-46948102D01*
X69417205Y-46759744D01*
X69303937Y-46590226D01*
X69159774Y-46446063D01*
X68990256Y-46332795D01*
X68801898Y-46254774D01*
X68601939Y-46215000D01*
X68398061Y-46215000D01*
X68198102Y-46254774D01*
X68009744Y-46332795D01*
X67840226Y-46446063D01*
X67696063Y-46590226D01*
X67611430Y-46716888D01*
X67601939Y-46715000D01*
X67398061Y-46715000D01*
X67198102Y-46754774D01*
X67009744Y-46832795D01*
X66840226Y-46946063D01*
X66696063Y-47090226D01*
X66582795Y-47259744D01*
X66504774Y-47448102D01*
X66465000Y-47648061D01*
X66465000Y-47851939D01*
X66504774Y-48051898D01*
X66582795Y-48240256D01*
X66696063Y-48409774D01*
X66840226Y-48553937D01*
X67009744Y-48667205D01*
X67198102Y-48745226D01*
X67398061Y-48785000D01*
X67424843Y-48785000D01*
X68465002Y-49825160D01*
X68465001Y-57215000D01*
X68398061Y-57215000D01*
X68285000Y-57237489D01*
X68285000Y-53288556D01*
X68288797Y-53250000D01*
X68285000Y-53211444D01*
X68285000Y-53211439D01*
X68281020Y-53171026D01*
X68273642Y-53096113D01*
X68228754Y-52948140D01*
X68225598Y-52942236D01*
X68155862Y-52811767D01*
X68057764Y-52692236D01*
X68027805Y-52667649D01*
X67582347Y-52222190D01*
X67557764Y-52192236D01*
X67438233Y-52094138D01*
X67301860Y-52021246D01*
X67153887Y-51976359D01*
X67038561Y-51965000D01*
X67038553Y-51965000D01*
X67000000Y-51961203D01*
X66961447Y-51965000D01*
X66928711Y-51965000D01*
X66909774Y-51946063D01*
X66740256Y-51832795D01*
X66551898Y-51754774D01*
X66351939Y-51715000D01*
X66148061Y-51715000D01*
X65948102Y-51754774D01*
X65759744Y-51832795D01*
X65590226Y-51946063D01*
X65446063Y-52090226D01*
X65332795Y-52259744D01*
X65254774Y-52448102D01*
X65215000Y-52648061D01*
X65215000Y-52851939D01*
X65254774Y-53051898D01*
X65332795Y-53240256D01*
X65366718Y-53291026D01*
X65332795Y-53341796D01*
X65254774Y-53530154D01*
X65215000Y-53730113D01*
X65215000Y-53933991D01*
X65254774Y-54133950D01*
X65332795Y-54322308D01*
X65446063Y-54491826D01*
X65590226Y-54635989D01*
X65759744Y-54749257D01*
X65948102Y-54827278D01*
X66148061Y-54867052D01*
X66215000Y-54867052D01*
X66215001Y-57894308D01*
X66215000Y-57894317D01*
X66215000Y-58288560D01*
X66215001Y-58288569D01*
X66215000Y-58924843D01*
X66174843Y-58965000D01*
X60825157Y-58965000D01*
X56589718Y-54729561D01*
X56740256Y-54667205D01*
X56909774Y-54553937D01*
X57053937Y-54409774D01*
X57167205Y-54240256D01*
X57245226Y-54051898D01*
X57285000Y-53851939D01*
X57285000Y-53648061D01*
X57245226Y-53448102D01*
X57167205Y-53259744D01*
X57053937Y-53090226D01*
X56909774Y-52946063D01*
X56740256Y-52832795D01*
X56551898Y-52754774D01*
X56351939Y-52715000D01*
X56148061Y-52715000D01*
X55948102Y-52754774D01*
X55759744Y-52832795D01*
X55590226Y-52946063D01*
X55446063Y-53090226D01*
X55332795Y-53259744D01*
X55270439Y-53410282D01*
X49832347Y-47972190D01*
X49807764Y-47942236D01*
X49688233Y-47844138D01*
X49551860Y-47771246D01*
X49403887Y-47726359D01*
X49288561Y-47715000D01*
X49288553Y-47715000D01*
X49250000Y-47711203D01*
X49211447Y-47715000D01*
X46941877Y-47715000D01*
X46769987Y-47457748D01*
X46542252Y-47230013D01*
X46274463Y-47051082D01*
X45976912Y-46927832D01*
X45661033Y-46865000D01*
X45338967Y-46865000D01*
X45023088Y-46927832D01*
X44725537Y-47051082D01*
X44457748Y-47230013D01*
X44230013Y-47457748D01*
X44051082Y-47725537D01*
X43927832Y-48023088D01*
X43865000Y-48338967D01*
X43865000Y-48661033D01*
X43927832Y-48976912D01*
X44051082Y-49274463D01*
X44230013Y-49542252D01*
X44457748Y-49769987D01*
X44554935Y-49834925D01*
X44544192Y-49864587D01*
X45500000Y-50820395D01*
X46455808Y-49864587D01*
X46445065Y-49834925D01*
X46542252Y-49769987D01*
X46769987Y-49542252D01*
X46941877Y-49285000D01*
X48924843Y-49285000D01*
X52354843Y-52715000D01*
X47138072Y-52715000D01*
X47138072Y-52500000D01*
X47125812Y-52375518D01*
X47089502Y-52255820D01*
X47030537Y-52145506D01*
X46951185Y-52048815D01*
X46854494Y-51969463D01*
X46750777Y-51914024D01*
X46899814Y-51860044D01*
X47040704Y-51570429D01*
X47122384Y-51258892D01*
X47141718Y-50937405D01*
X47097961Y-50618325D01*
X46992795Y-50313912D01*
X46899814Y-50139956D01*
X46635413Y-50044192D01*
X45679605Y-51000000D01*
X45693748Y-51014143D01*
X45514143Y-51193748D01*
X45500000Y-51179605D01*
X45485858Y-51193748D01*
X45306253Y-51014143D01*
X45320395Y-51000000D01*
X44364587Y-50044192D01*
X44100186Y-50139956D01*
X43959296Y-50429571D01*
X43877616Y-50741108D01*
X43858282Y-51062595D01*
X20660000Y-51062595D01*
X20660000Y-48338967D01*
X29365000Y-48338967D01*
X29365000Y-48661033D01*
X29427832Y-48976912D01*
X29551082Y-49274463D01*
X29730013Y-49542252D01*
X29957748Y-49769987D01*
X30225537Y-49948918D01*
X30523088Y-50072168D01*
X30838967Y-50135000D01*
X31161033Y-50135000D01*
X31476912Y-50072168D01*
X31774463Y-49948918D01*
X32042252Y-49769987D01*
X32269987Y-49542252D01*
X32448918Y-49274463D01*
X32572168Y-48976912D01*
X32635000Y-48661033D01*
X32635000Y-48338967D01*
X32572168Y-48023088D01*
X32448918Y-47725537D01*
X32269987Y-47457748D01*
X32042252Y-47230013D01*
X31774463Y-47051082D01*
X31476912Y-46927832D01*
X31161033Y-46865000D01*
X30838967Y-46865000D01*
X30523088Y-46927832D01*
X30225537Y-47051082D01*
X29957748Y-47230013D01*
X29730013Y-47457748D01*
X29551082Y-47725537D01*
X29427832Y-48023088D01*
X29365000Y-48338967D01*
X20660000Y-48338967D01*
X20660000Y-44400000D01*
X35761928Y-44400000D01*
X35761928Y-46400000D01*
X35774188Y-46524482D01*
X35810498Y-46644180D01*
X35869463Y-46754494D01*
X35948815Y-46851185D01*
X36045506Y-46930537D01*
X36155820Y-46989502D01*
X36275518Y-47025812D01*
X36400000Y-47038072D01*
X39600000Y-47038072D01*
X39724482Y-47025812D01*
X39844180Y-46989502D01*
X39954494Y-46930537D01*
X40051185Y-46851185D01*
X40130537Y-46754494D01*
X40189502Y-46644180D01*
X40225812Y-46524482D01*
X40238072Y-46400000D01*
X40238072Y-44750000D01*
X56873000Y-44750000D01*
X56873000Y-52750000D01*
X56875440Y-52774776D01*
X56882667Y-52798601D01*
X56894403Y-52820557D01*
X56910197Y-52839803D01*
X56929443Y-52855597D01*
X56951399Y-52867333D01*
X56975224Y-52874560D01*
X57000000Y-52877000D01*
X61500000Y-52877000D01*
X61524776Y-52874560D01*
X61548601Y-52867333D01*
X61570557Y-52855597D01*
X61589803Y-52839803D01*
X61605597Y-52820557D01*
X61617333Y-52798601D01*
X61624560Y-52774776D01*
X61627000Y-52750000D01*
X61627000Y-51127000D01*
X63300000Y-51127000D01*
X63324776Y-51124560D01*
X63348601Y-51117333D01*
X63370557Y-51105597D01*
X63389803Y-51089803D01*
X63405597Y-51070557D01*
X63417333Y-51048601D01*
X63424560Y-51024776D01*
X63427000Y-51000000D01*
X63427000Y-50227000D01*
X65300000Y-50227000D01*
X65324776Y-50224560D01*
X65348601Y-50217333D01*
X65370557Y-50205597D01*
X65389803Y-50189803D01*
X65405597Y-50170557D01*
X65417333Y-50148601D01*
X65424560Y-50124776D01*
X65427000Y-50100000D01*
X65427000Y-48800000D01*
X65424560Y-48775224D01*
X65417333Y-48751399D01*
X65405597Y-48729443D01*
X65389803Y-48710197D01*
X65370557Y-48694403D01*
X65348601Y-48682667D01*
X65324776Y-48675440D01*
X65300000Y-48673000D01*
X63427000Y-48673000D01*
X63427000Y-48300000D01*
X63424560Y-48275224D01*
X63417333Y-48251399D01*
X63405597Y-48229443D01*
X63389803Y-48210197D01*
X63370557Y-48194403D01*
X63348601Y-48182667D01*
X63324776Y-48175440D01*
X63300000Y-48173000D01*
X62226266Y-48173000D01*
X62240256Y-48167205D01*
X62409774Y-48053937D01*
X62553937Y-47909774D01*
X62667205Y-47740256D01*
X62745226Y-47551898D01*
X62785000Y-47351939D01*
X62785000Y-47148061D01*
X62745226Y-46948102D01*
X62667205Y-46759744D01*
X62553937Y-46590226D01*
X62409774Y-46446063D01*
X62240256Y-46332795D01*
X62051898Y-46254774D01*
X61851939Y-46215000D01*
X61648061Y-46215000D01*
X61627000Y-46219189D01*
X61627000Y-44750000D01*
X61624560Y-44725224D01*
X61617333Y-44701399D01*
X61605597Y-44679443D01*
X61589803Y-44660197D01*
X61570557Y-44644403D01*
X61548601Y-44632667D01*
X61524776Y-44625440D01*
X61500000Y-44623000D01*
X57000000Y-44623000D01*
X56975224Y-44625440D01*
X56951399Y-44632667D01*
X56929443Y-44644403D01*
X56910197Y-44660197D01*
X56894403Y-44679443D01*
X56882667Y-44701399D01*
X56875440Y-44725224D01*
X56873000Y-44750000D01*
X40238072Y-44750000D01*
X40238072Y-44400000D01*
X40225812Y-44275518D01*
X40189502Y-44155820D01*
X40130537Y-44045506D01*
X40051185Y-43948815D01*
X39954494Y-43869463D01*
X39844180Y-43810498D01*
X39724482Y-43774188D01*
X39600000Y-43761928D01*
X36400000Y-43761928D01*
X36275518Y-43774188D01*
X36155820Y-43810498D01*
X36045506Y-43869463D01*
X35948815Y-43948815D01*
X35869463Y-44045506D01*
X35810498Y-44155820D01*
X35774188Y-44275518D01*
X35761928Y-44400000D01*
X20660000Y-44400000D01*
X20660000Y-43398061D01*
X60215000Y-43398061D01*
X60215000Y-43601939D01*
X60254774Y-43801898D01*
X60332795Y-43990256D01*
X60446063Y-44159774D01*
X60590226Y-44303937D01*
X60759744Y-44417205D01*
X60948102Y-44495226D01*
X61148061Y-44535000D01*
X61351939Y-44535000D01*
X61551898Y-44495226D01*
X61740256Y-44417205D01*
X61909774Y-44303937D01*
X62053937Y-44159774D01*
X62167205Y-43990256D01*
X62245226Y-43801898D01*
X62285000Y-43601939D01*
X62285000Y-43398061D01*
X62245226Y-43198102D01*
X62167205Y-43009744D01*
X62053937Y-42840226D01*
X61909774Y-42696063D01*
X61740256Y-42582795D01*
X61551898Y-42504774D01*
X61351939Y-42465000D01*
X61148061Y-42465000D01*
X60948102Y-42504774D01*
X60759744Y-42582795D01*
X60590226Y-42696063D01*
X60446063Y-42840226D01*
X60332795Y-43009744D01*
X60254774Y-43198102D01*
X60215000Y-43398061D01*
X20660000Y-43398061D01*
X20660000Y-41898061D01*
X61665000Y-41898061D01*
X61665000Y-42101939D01*
X61704774Y-42301898D01*
X61782795Y-42490256D01*
X61896063Y-42659774D01*
X62040226Y-42803937D01*
X62209744Y-42917205D01*
X62398102Y-42995226D01*
X62598061Y-43035000D01*
X62801939Y-43035000D01*
X63001898Y-42995226D01*
X63190256Y-42917205D01*
X63359774Y-42803937D01*
X63503937Y-42659774D01*
X63617205Y-42490256D01*
X63695226Y-42301898D01*
X63735000Y-42101939D01*
X63735000Y-41898061D01*
X63695226Y-41698102D01*
X63617205Y-41509744D01*
X63503937Y-41340226D01*
X63359774Y-41196063D01*
X63190256Y-41082795D01*
X63001898Y-41004774D01*
X62801939Y-40965000D01*
X62598061Y-40965000D01*
X62398102Y-41004774D01*
X62209744Y-41082795D01*
X62040226Y-41196063D01*
X61896063Y-41340226D01*
X61782795Y-41509744D01*
X61704774Y-41698102D01*
X61665000Y-41898061D01*
X20660000Y-41898061D01*
X20660000Y-35988212D01*
X71815000Y-35988212D01*
X71815000Y-36211788D01*
X71858617Y-36431067D01*
X71944176Y-36637624D01*
X72068388Y-36823520D01*
X72226480Y-36981612D01*
X72412376Y-37105824D01*
X72618933Y-37191383D01*
X72838212Y-37235000D01*
X73061788Y-37235000D01*
X73281067Y-37191383D01*
X73487624Y-37105824D01*
X73673520Y-36981612D01*
X73831612Y-36823520D01*
X73955824Y-36637624D01*
X74041383Y-36431067D01*
X74085000Y-36211788D01*
X74085000Y-35988212D01*
X74315000Y-35988212D01*
X74315000Y-36211788D01*
X74358617Y-36431067D01*
X74444176Y-36637624D01*
X74568388Y-36823520D01*
X74726480Y-36981612D01*
X74912376Y-37105824D01*
X75118933Y-37191383D01*
X75338212Y-37235000D01*
X75561788Y-37235000D01*
X75781067Y-37191383D01*
X75828198Y-37171861D01*
X75815000Y-37238212D01*
X75815000Y-37461788D01*
X75858617Y-37681067D01*
X75944176Y-37887624D01*
X76068388Y-38073520D01*
X76226480Y-38231612D01*
X76412376Y-38355824D01*
X76618933Y-38441383D01*
X76838212Y-38485000D01*
X77061788Y-38485000D01*
X77281067Y-38441383D01*
X77487624Y-38355824D01*
X77673520Y-38231612D01*
X77831612Y-38073520D01*
X77955824Y-37887624D01*
X78041383Y-37681067D01*
X78085000Y-37461788D01*
X78085000Y-37238212D01*
X78041383Y-37018933D01*
X77955824Y-36812376D01*
X77831612Y-36626480D01*
X77673520Y-36468388D01*
X77487624Y-36344176D01*
X77281067Y-36258617D01*
X77061788Y-36215000D01*
X76838212Y-36215000D01*
X76618933Y-36258617D01*
X76571802Y-36278139D01*
X76585000Y-36211788D01*
X76585000Y-35988212D01*
X76541383Y-35768933D01*
X76455824Y-35562376D01*
X76331612Y-35376480D01*
X76173520Y-35218388D01*
X75987624Y-35094176D01*
X75781067Y-35008617D01*
X75561788Y-34965000D01*
X75338212Y-34965000D01*
X75118933Y-35008617D01*
X74912376Y-35094176D01*
X74726480Y-35218388D01*
X74568388Y-35376480D01*
X74444176Y-35562376D01*
X74358617Y-35768933D01*
X74315000Y-35988212D01*
X74085000Y-35988212D01*
X74041383Y-35768933D01*
X73955824Y-35562376D01*
X73831612Y-35376480D01*
X73673520Y-35218388D01*
X73487624Y-35094176D01*
X73281067Y-35008617D01*
X73061788Y-34965000D01*
X72838212Y-34965000D01*
X72618933Y-35008617D01*
X72412376Y-35094176D01*
X72226480Y-35218388D01*
X72068388Y-35376480D01*
X71944176Y-35562376D01*
X71858617Y-35768933D01*
X71815000Y-35988212D01*
X20660000Y-35988212D01*
X20660000Y-32988212D01*
X71815000Y-32988212D01*
X71815000Y-33211788D01*
X71858617Y-33431067D01*
X71944176Y-33637624D01*
X72068388Y-33823520D01*
X72226480Y-33981612D01*
X72412376Y-34105824D01*
X72618933Y-34191383D01*
X72838212Y-34235000D01*
X73061788Y-34235000D01*
X73281067Y-34191383D01*
X73487624Y-34105824D01*
X73673520Y-33981612D01*
X73831612Y-33823520D01*
X73955824Y-33637624D01*
X74041383Y-33431067D01*
X74085000Y-33211788D01*
X74085000Y-32988212D01*
X74315000Y-32988212D01*
X74315000Y-33211788D01*
X74358617Y-33431067D01*
X74444176Y-33637624D01*
X74568388Y-33823520D01*
X74726480Y-33981612D01*
X74912376Y-34105824D01*
X75118933Y-34191383D01*
X75338212Y-34235000D01*
X75561788Y-34235000D01*
X75781067Y-34191383D01*
X75987624Y-34105824D01*
X76173520Y-33981612D01*
X76331612Y-33823520D01*
X76455824Y-33637624D01*
X76541383Y-33431067D01*
X76585000Y-33211788D01*
X76585000Y-32988212D01*
X76541383Y-32768933D01*
X76486547Y-32636547D01*
X76618933Y-32691383D01*
X76838212Y-32735000D01*
X77061788Y-32735000D01*
X77281067Y-32691383D01*
X77487624Y-32605824D01*
X77673520Y-32481612D01*
X77831612Y-32323520D01*
X77955824Y-32137624D01*
X78041383Y-31931067D01*
X78085000Y-31711788D01*
X78085000Y-31488212D01*
X78041383Y-31268933D01*
X77955824Y-31062376D01*
X77831612Y-30876480D01*
X77673520Y-30718388D01*
X77487624Y-30594176D01*
X77281067Y-30508617D01*
X77061788Y-30465000D01*
X76838212Y-30465000D01*
X76618933Y-30508617D01*
X76412376Y-30594176D01*
X76226480Y-30718388D01*
X76068388Y-30876480D01*
X75944176Y-31062376D01*
X75858617Y-31268933D01*
X75815000Y-31488212D01*
X75815000Y-31711788D01*
X75858617Y-31931067D01*
X75913453Y-32063453D01*
X75781067Y-32008617D01*
X75561788Y-31965000D01*
X75338212Y-31965000D01*
X75118933Y-32008617D01*
X74912376Y-32094176D01*
X74726480Y-32218388D01*
X74568388Y-32376480D01*
X74444176Y-32562376D01*
X74358617Y-32768933D01*
X74315000Y-32988212D01*
X74085000Y-32988212D01*
X74041383Y-32768933D01*
X73955824Y-32562376D01*
X73831612Y-32376480D01*
X73673520Y-32218388D01*
X73487624Y-32094176D01*
X73281067Y-32008617D01*
X73061788Y-31965000D01*
X72838212Y-31965000D01*
X72618933Y-32008617D01*
X72412376Y-32094176D01*
X72226480Y-32218388D01*
X72068388Y-32376480D01*
X71944176Y-32562376D01*
X71858617Y-32768933D01*
X71815000Y-32988212D01*
X20660000Y-32988212D01*
X20660000Y-28482818D01*
X21696787Y-28482818D01*
X22188946Y-29085149D01*
X23039933Y-29555063D01*
X23966243Y-29849929D01*
X24932281Y-29958414D01*
X25900921Y-29876351D01*
X26834938Y-29606893D01*
X27698440Y-29160394D01*
X27811054Y-29085149D01*
X28303213Y-28482818D01*
X25000000Y-25179605D01*
X21696787Y-28482818D01*
X20660000Y-28482818D01*
X20660000Y-27351093D01*
X20839606Y-27698440D01*
X20914851Y-27811054D01*
X21517182Y-28303213D01*
X24820395Y-25000000D01*
X25179605Y-25000000D01*
X28482818Y-28303213D01*
X29085149Y-27811054D01*
X29555063Y-26960067D01*
X29849929Y-26033757D01*
X29904485Y-25547938D01*
X66280732Y-25547938D01*
X66350397Y-25736150D01*
X66464447Y-25921822D01*
X66612529Y-26081676D01*
X66788951Y-26209569D01*
X66986934Y-26300586D01*
X67198869Y-26351230D01*
X67373000Y-26202564D01*
X67373000Y-25377000D01*
X67627000Y-25377000D01*
X67627000Y-26202564D01*
X67801131Y-26351230D01*
X68013066Y-26300586D01*
X68211049Y-26209569D01*
X68387471Y-26081676D01*
X68535553Y-25921822D01*
X68649603Y-25736150D01*
X68719268Y-25547938D01*
X71280732Y-25547938D01*
X71350397Y-25736150D01*
X71464447Y-25921822D01*
X71612529Y-26081676D01*
X71788951Y-26209569D01*
X71986934Y-26300586D01*
X72198869Y-26351230D01*
X72373000Y-26202564D01*
X72373000Y-25377000D01*
X72627000Y-25377000D01*
X72627000Y-26202564D01*
X72801131Y-26351230D01*
X73013066Y-26300586D01*
X73211049Y-26209569D01*
X73387471Y-26081676D01*
X73535553Y-25921822D01*
X73649603Y-25736150D01*
X73719268Y-25547938D01*
X73592734Y-25377000D01*
X72627000Y-25377000D01*
X72373000Y-25377000D01*
X71407266Y-25377000D01*
X71280732Y-25547938D01*
X68719268Y-25547938D01*
X68592734Y-25377000D01*
X67627000Y-25377000D01*
X67373000Y-25377000D01*
X66407266Y-25377000D01*
X66280732Y-25547938D01*
X29904485Y-25547938D01*
X29958414Y-25067719D01*
X29948616Y-24952062D01*
X66280732Y-24952062D01*
X66407266Y-25123000D01*
X67373000Y-25123000D01*
X67373000Y-24297436D01*
X67627000Y-24297436D01*
X67627000Y-25123000D01*
X68592734Y-25123000D01*
X68719268Y-24952062D01*
X71280732Y-24952062D01*
X71407266Y-25123000D01*
X72373000Y-25123000D01*
X72373000Y-24297436D01*
X72627000Y-24297436D01*
X72627000Y-25123000D01*
X73592734Y-25123000D01*
X73719268Y-24952062D01*
X73649603Y-24763850D01*
X73535553Y-24578178D01*
X73387471Y-24418324D01*
X73211049Y-24290431D01*
X73013066Y-24199414D01*
X72801131Y-24148770D01*
X72627000Y-24297436D01*
X72373000Y-24297436D01*
X72198869Y-24148770D01*
X71986934Y-24199414D01*
X71788951Y-24290431D01*
X71612529Y-24418324D01*
X71464447Y-24578178D01*
X71350397Y-24763850D01*
X71280732Y-24952062D01*
X68719268Y-24952062D01*
X68649603Y-24763850D01*
X68535553Y-24578178D01*
X68387471Y-24418324D01*
X68211049Y-24290431D01*
X68013066Y-24199414D01*
X67801131Y-24148770D01*
X67627000Y-24297436D01*
X67373000Y-24297436D01*
X67198869Y-24148770D01*
X66986934Y-24199414D01*
X66788951Y-24290431D01*
X66612529Y-24418324D01*
X66464447Y-24578178D01*
X66350397Y-24763850D01*
X66280732Y-24952062D01*
X29948616Y-24952062D01*
X29876351Y-24099079D01*
X29606893Y-23165062D01*
X29354527Y-22677000D01*
X65365000Y-22677000D01*
X65365000Y-22952000D01*
X65411585Y-23170987D01*
X65499997Y-23376678D01*
X65626839Y-23561169D01*
X65787236Y-23717369D01*
X65975024Y-23839276D01*
X66198126Y-23919119D01*
X66373000Y-23792954D01*
X66373000Y-22677000D01*
X66627000Y-22677000D01*
X66627000Y-23792954D01*
X66801874Y-23919119D01*
X67024976Y-23839276D01*
X67212764Y-23717369D01*
X67373161Y-23561169D01*
X67500003Y-23376678D01*
X67588415Y-23170987D01*
X67635000Y-22952000D01*
X67635000Y-22677000D01*
X72365000Y-22677000D01*
X72365000Y-22952000D01*
X72411585Y-23170987D01*
X72499997Y-23376678D01*
X72626839Y-23561169D01*
X72787236Y-23717369D01*
X72975024Y-23839276D01*
X73198126Y-23919119D01*
X73373000Y-23792954D01*
X73373000Y-22677000D01*
X73627000Y-22677000D01*
X73627000Y-23792954D01*
X73801874Y-23919119D01*
X74024976Y-23839276D01*
X74212764Y-23717369D01*
X74373161Y-23561169D01*
X74500003Y-23376678D01*
X74588415Y-23170987D01*
X74635000Y-22952000D01*
X74635000Y-22677000D01*
X73627000Y-22677000D01*
X73373000Y-22677000D01*
X72365000Y-22677000D01*
X67635000Y-22677000D01*
X66627000Y-22677000D01*
X66373000Y-22677000D01*
X65365000Y-22677000D01*
X29354527Y-22677000D01*
X29160394Y-22301560D01*
X29085149Y-22188946D01*
X29035038Y-22148000D01*
X65365000Y-22148000D01*
X65365000Y-22423000D01*
X66373000Y-22423000D01*
X66373000Y-21307046D01*
X66627000Y-21307046D01*
X66627000Y-22423000D01*
X67635000Y-22423000D01*
X67635000Y-22148000D01*
X72365000Y-22148000D01*
X72365000Y-22423000D01*
X73373000Y-22423000D01*
X73373000Y-21307046D01*
X73627000Y-21307046D01*
X73627000Y-22423000D01*
X74635000Y-22423000D01*
X74635000Y-22148000D01*
X74588415Y-21929013D01*
X74500003Y-21723322D01*
X74373161Y-21538831D01*
X74212764Y-21382631D01*
X74024976Y-21260724D01*
X73801874Y-21180881D01*
X73627000Y-21307046D01*
X73373000Y-21307046D01*
X73198126Y-21180881D01*
X72975024Y-21260724D01*
X72787236Y-21382631D01*
X72626839Y-21538831D01*
X72499997Y-21723322D01*
X72411585Y-21929013D01*
X72365000Y-22148000D01*
X67635000Y-22148000D01*
X67588415Y-21929013D01*
X67500003Y-21723322D01*
X67373161Y-21538831D01*
X67212764Y-21382631D01*
X67024976Y-21260724D01*
X66801874Y-21180881D01*
X66627000Y-21307046D01*
X66373000Y-21307046D01*
X66198126Y-21180881D01*
X65975024Y-21260724D01*
X65787236Y-21382631D01*
X65626839Y-21538831D01*
X65499997Y-21723322D01*
X65411585Y-21929013D01*
X65365000Y-22148000D01*
X29035038Y-22148000D01*
X28482818Y-21696787D01*
X25179605Y-25000000D01*
X24820395Y-25000000D01*
X24806253Y-24985858D01*
X24985858Y-24806253D01*
X25000000Y-24820395D01*
X28303213Y-21517182D01*
X27811054Y-20914851D01*
X27349534Y-20660000D01*
X112648907Y-20660000D01*
X112301560Y-20839606D01*
G37*
X112301560Y-20839606D02*
X112188946Y-20914851D01*
X111696787Y-21517182D01*
X115000000Y-24820395D01*
X115014143Y-24806253D01*
X115193748Y-24985858D01*
X115179605Y-25000000D01*
X118482818Y-28303213D01*
X119085149Y-27811054D01*
X119340000Y-27349534D01*
X119340001Y-74648909D01*
X119160394Y-74301560D01*
X119085149Y-74188946D01*
X118482818Y-73696787D01*
X115179605Y-77000000D01*
X115193748Y-77014143D01*
X115014143Y-77193748D01*
X115000000Y-77179605D01*
X111696787Y-80482818D01*
X112188946Y-81085149D01*
X112650466Y-81340000D01*
X27351093Y-81340000D01*
X27698440Y-81160394D01*
X27811054Y-81085149D01*
X28303213Y-80482818D01*
X25000000Y-77179605D01*
X24985858Y-77193748D01*
X24806253Y-77014143D01*
X24820395Y-77000000D01*
X25179605Y-77000000D01*
X28482818Y-80303213D01*
X29085149Y-79811054D01*
X29555063Y-78960067D01*
X29849929Y-78033757D01*
X29958414Y-77067719D01*
X29946940Y-76932281D01*
X110041586Y-76932281D01*
X110123649Y-77900921D01*
X110393107Y-78834938D01*
X110839606Y-79698440D01*
X110914851Y-79811054D01*
X111517182Y-80303213D01*
X114820395Y-77000000D01*
X111517182Y-73696787D01*
X110914851Y-74188946D01*
X110444937Y-75039933D01*
X110150071Y-75966243D01*
X110041586Y-76932281D01*
X29946940Y-76932281D01*
X29876351Y-76099079D01*
X29606893Y-75165062D01*
X29160394Y-74301560D01*
X29085149Y-74188946D01*
X28482818Y-73696787D01*
X25179605Y-77000000D01*
X24820395Y-77000000D01*
X21517182Y-73696787D01*
X20914851Y-74188946D01*
X20660000Y-74650466D01*
X20660000Y-73517182D01*
X21696787Y-73517182D01*
X25000000Y-76820395D01*
X28303213Y-73517182D01*
X111696787Y-73517182D01*
X115000000Y-76820395D01*
X118303213Y-73517182D01*
X117811054Y-72914851D01*
X116960067Y-72444937D01*
X116033757Y-72150071D01*
X115067719Y-72041586D01*
X114099079Y-72123649D01*
X113165062Y-72393107D01*
X112301560Y-72839606D01*
X112188946Y-72914851D01*
X111696787Y-73517182D01*
X28303213Y-73517182D01*
X27811054Y-72914851D01*
X26960067Y-72444937D01*
X26033757Y-72150071D01*
X25067719Y-72041586D01*
X24099079Y-72123649D01*
X23165062Y-72393107D01*
X22301560Y-72839606D01*
X22188946Y-72914851D01*
X21696787Y-73517182D01*
X20660000Y-73517182D01*
X20660000Y-55600000D01*
X35761928Y-55600000D01*
X35761928Y-57600000D01*
X35774188Y-57724482D01*
X35810498Y-57844180D01*
X35869463Y-57954494D01*
X35948815Y-58051185D01*
X36045506Y-58130537D01*
X36155820Y-58189502D01*
X36275518Y-58225812D01*
X36400000Y-58238072D01*
X39600000Y-58238072D01*
X39724482Y-58225812D01*
X39844180Y-58189502D01*
X39954494Y-58130537D01*
X40051185Y-58051185D01*
X40130537Y-57954494D01*
X40189502Y-57844180D01*
X40225812Y-57724482D01*
X40238072Y-57600000D01*
X40238072Y-55600000D01*
X40225812Y-55475518D01*
X40189502Y-55355820D01*
X40130537Y-55245506D01*
X40051185Y-55148815D01*
X39954494Y-55069463D01*
X39844180Y-55010498D01*
X39724482Y-54974188D01*
X39600000Y-54961928D01*
X36400000Y-54961928D01*
X36275518Y-54974188D01*
X36155820Y-55010498D01*
X36045506Y-55069463D01*
X35948815Y-55148815D01*
X35869463Y-55245506D01*
X35810498Y-55355820D01*
X35774188Y-55475518D01*
X35761928Y-55600000D01*
X20660000Y-55600000D01*
X20660000Y-53338967D01*
X29365000Y-53338967D01*
X29365000Y-53661033D01*
X29427832Y-53976912D01*
X29551082Y-54274463D01*
X29730013Y-54542252D01*
X29957748Y-54769987D01*
X30225537Y-54948918D01*
X30523088Y-55072168D01*
X30838967Y-55135000D01*
X31161033Y-55135000D01*
X31476912Y-55072168D01*
X31774463Y-54948918D01*
X32042252Y-54769987D01*
X32269987Y-54542252D01*
X32448918Y-54274463D01*
X32572168Y-53976912D01*
X32635000Y-53661033D01*
X32635000Y-53338967D01*
X32572168Y-53023088D01*
X32448918Y-52725537D01*
X32269987Y-52457748D01*
X32042252Y-52230013D01*
X31774463Y-52051082D01*
X31476912Y-51927832D01*
X31161033Y-51865000D01*
X30838967Y-51865000D01*
X30523088Y-51927832D01*
X30225537Y-52051082D01*
X29957748Y-52230013D01*
X29730013Y-52457748D01*
X29551082Y-52725537D01*
X29427832Y-53023088D01*
X29365000Y-53338967D01*
X20660000Y-53338967D01*
X20660000Y-51062595D01*
X43858282Y-51062595D01*
X43902039Y-51381675D01*
X44007205Y-51686088D01*
X44100186Y-51860044D01*
X44249223Y-51914024D01*
X44145506Y-51969463D01*
X44048815Y-52048815D01*
X43969463Y-52145506D01*
X43910498Y-52255820D01*
X43874188Y-52375518D01*
X43861928Y-52500000D01*
X43861928Y-54500000D01*
X43874188Y-54624482D01*
X43910498Y-54744180D01*
X43969463Y-54854494D01*
X44048815Y-54951185D01*
X44145506Y-55030537D01*
X44255820Y-55089502D01*
X44375518Y-55125812D01*
X44500000Y-55138072D01*
X46500000Y-55138072D01*
X46624482Y-55125812D01*
X46744180Y-55089502D01*
X46854494Y-55030537D01*
X46951185Y-54951185D01*
X47030537Y-54854494D01*
X47089502Y-54744180D01*
X47125812Y-54624482D01*
X47138072Y-54500000D01*
X47138072Y-54285000D01*
X53174843Y-54285000D01*
X59667663Y-60777820D01*
X59692246Y-60807774D01*
X59811777Y-60905872D01*
X59948150Y-60978764D01*
X60096123Y-61023652D01*
X60171036Y-61031030D01*
X60211449Y-61035010D01*
X60211454Y-61035010D01*
X60250010Y-61038807D01*
X60288566Y-61035010D01*
X66668557Y-61035010D01*
X66707110Y-61038807D01*
X66745663Y-61035010D01*
X66745671Y-61035010D01*
X66860997Y-61023651D01*
X67008970Y-60978764D01*
X67145343Y-60905872D01*
X67264874Y-60807774D01*
X67289457Y-60777821D01*
X67880623Y-60186655D01*
X67938233Y-60155862D01*
X68057764Y-60057764D01*
X68155862Y-59938233D01*
X68228754Y-59801860D01*
X68273641Y-59653887D01*
X68288798Y-59500000D01*
X68285000Y-59461439D01*
X68285000Y-59262511D01*
X68398061Y-59285000D01*
X68465001Y-59285000D01*
X68465000Y-68174843D01*
X67843555Y-68796288D01*
X67686260Y-68765000D01*
X67393740Y-68765000D01*
X67106842Y-68822068D01*
X66836589Y-68934010D01*
X66593368Y-69096525D01*
X66461513Y-69228380D01*
X66439502Y-69155820D01*
X66380537Y-69045506D01*
X66301185Y-68948815D01*
X66204494Y-68869463D01*
X66094180Y-68810498D01*
X65974482Y-68774188D01*
X65850000Y-68761928D01*
X64150000Y-68761928D01*
X64025518Y-68774188D01*
X63905820Y-68810498D01*
X63795506Y-68869463D01*
X63698815Y-68948815D01*
X63619463Y-69045506D01*
X63560498Y-69155820D01*
X63524188Y-69275518D01*
X63511928Y-69400000D01*
X63511928Y-71100000D01*
X63524188Y-71224482D01*
X63560498Y-71344180D01*
X63619463Y-71454494D01*
X63698815Y-71551185D01*
X63795506Y-71630537D01*
X63905820Y-71689502D01*
X64025518Y-71725812D01*
X64150000Y-71738072D01*
X65850000Y-71738072D01*
X65974482Y-71725812D01*
X66094180Y-71689502D01*
X66204494Y-71630537D01*
X66301185Y-71551185D01*
X66380537Y-71454494D01*
X66439502Y-71344180D01*
X66461513Y-71271620D01*
X66593368Y-71403475D01*
X66836589Y-71565990D01*
X67106842Y-71677932D01*
X67393740Y-71735000D01*
X67686260Y-71735000D01*
X67973158Y-71677932D01*
X68243411Y-71565990D01*
X68486632Y-71403475D01*
X68693475Y-71196632D01*
X68810000Y-71022240D01*
X68926525Y-71196632D01*
X69133368Y-71403475D01*
X69376589Y-71565990D01*
X69646842Y-71677932D01*
X69933740Y-71735000D01*
X70226260Y-71735000D01*
X70513158Y-71677932D01*
X70783411Y-71565990D01*
X71026632Y-71403475D01*
X71233475Y-71196632D01*
X71350000Y-71022240D01*
X71466525Y-71196632D01*
X71673368Y-71403475D01*
X71916589Y-71565990D01*
X72186842Y-71677932D01*
X72473740Y-71735000D01*
X72766260Y-71735000D01*
X73053158Y-71677932D01*
X73323411Y-71565990D01*
X73566632Y-71403475D01*
X73773475Y-71196632D01*
X73895195Y-71014466D01*
X73964822Y-71131355D01*
X74159731Y-71347588D01*
X74393080Y-71521641D01*
X74655901Y-71646825D01*
X74803110Y-71691476D01*
X75033000Y-71570155D01*
X75033000Y-70377000D01*
X75287000Y-70377000D01*
X75287000Y-71570155D01*
X75516890Y-71691476D01*
X75664099Y-71646825D01*
X75926920Y-71521641D01*
X76160269Y-71347588D01*
X76355178Y-71131355D01*
X76504157Y-70881252D01*
X76601481Y-70606891D01*
X76480814Y-70377000D01*
X75287000Y-70377000D01*
X75033000Y-70377000D01*
X75013000Y-70377000D01*
X75013000Y-70123000D01*
X75033000Y-70123000D01*
X75033000Y-68929845D01*
X75287000Y-68929845D01*
X75287000Y-70123000D01*
X76480814Y-70123000D01*
X76601481Y-69893109D01*
X76504157Y-69618748D01*
X76355178Y-69368645D01*
X76160269Y-69152412D01*
X75926920Y-68978359D01*
X75664099Y-68853175D01*
X75516890Y-68808524D01*
X75287000Y-68929845D01*
X75033000Y-68929845D01*
X74803110Y-68808524D01*
X74655901Y-68853175D01*
X74393080Y-68978359D01*
X74159731Y-69152412D01*
X73964822Y-69368645D01*
X73895195Y-69485534D01*
X73773475Y-69303368D01*
X73566632Y-69096525D01*
X73323411Y-68934010D01*
X73053158Y-68822068D01*
X72766260Y-68765000D01*
X72473740Y-68765000D01*
X72186842Y-68822068D01*
X71916589Y-68934010D01*
X71673368Y-69096525D01*
X71466525Y-69303368D01*
X71350000Y-69477760D01*
X71233475Y-69303368D01*
X71026632Y-69096525D01*
X70785000Y-68935072D01*
X70785000Y-56648061D01*
X74965000Y-56648061D01*
X74965000Y-56851939D01*
X75004774Y-57051898D01*
X75082795Y-57240256D01*
X75196063Y-57409774D01*
X75340226Y-57553937D01*
X75509744Y-57667205D01*
X75698102Y-57745226D01*
X75898061Y-57785000D01*
X76101939Y-57785000D01*
X76301898Y-57745226D01*
X76490256Y-57667205D01*
X76659774Y-57553937D01*
X76803937Y-57409774D01*
X76917205Y-57240256D01*
X76995226Y-57051898D01*
X77035000Y-56851939D01*
X77035000Y-56648061D01*
X76995226Y-56448102D01*
X76917205Y-56259744D01*
X76803937Y-56090226D01*
X76659774Y-55946063D01*
X76490256Y-55832795D01*
X76301898Y-55754774D01*
X76101939Y-55715000D01*
X75898061Y-55715000D01*
X75698102Y-55754774D01*
X75509744Y-55832795D01*
X75340226Y-55946063D01*
X75196063Y-56090226D01*
X75082795Y-56259744D01*
X75004774Y-56448102D01*
X74965000Y-56648061D01*
X70785000Y-56648061D01*
X70785000Y-55600000D01*
X99761928Y-55600000D01*
X99761928Y-57600000D01*
X99774188Y-57724482D01*
X99810498Y-57844180D01*
X99869463Y-57954494D01*
X99948815Y-58051185D01*
X100045506Y-58130537D01*
X100155820Y-58189502D01*
X100275518Y-58225812D01*
X100400000Y-58238072D01*
X103600000Y-58238072D01*
X103724482Y-58225812D01*
X103844180Y-58189502D01*
X103954494Y-58130537D01*
X104051185Y-58051185D01*
X104130537Y-57954494D01*
X104189502Y-57844180D01*
X104225812Y-57724482D01*
X104238072Y-57600000D01*
X104238072Y-55600000D01*
X104225812Y-55475518D01*
X104189502Y-55355820D01*
X104130537Y-55245506D01*
X104051185Y-55148815D01*
X103954494Y-55069463D01*
X103844180Y-55010498D01*
X103724482Y-54974188D01*
X103600000Y-54961928D01*
X100400000Y-54961928D01*
X100275518Y-54974188D01*
X100155820Y-55010498D01*
X100045506Y-55069463D01*
X99948815Y-55148815D01*
X99869463Y-55245506D01*
X99810498Y-55355820D01*
X99774188Y-55475518D01*
X99761928Y-55600000D01*
X70785000Y-55600000D01*
X70785000Y-52177666D01*
X70948102Y-52245226D01*
X71148061Y-52285000D01*
X71251413Y-52285000D01*
X71254774Y-52301898D01*
X71332795Y-52490256D01*
X71446063Y-52659774D01*
X71590226Y-52803937D01*
X71759744Y-52917205D01*
X71948102Y-52995226D01*
X72148061Y-53035000D01*
X72351939Y-53035000D01*
X72551898Y-52995226D01*
X72740256Y-52917205D01*
X72909774Y-52803937D01*
X73053937Y-52659774D01*
X73167205Y-52490256D01*
X73245226Y-52301898D01*
X73285000Y-52101939D01*
X73285000Y-51898061D01*
X73245226Y-51698102D01*
X73167205Y-51509744D01*
X73053937Y-51340226D01*
X73035000Y-51321289D01*
X73035000Y-49998711D01*
X73090226Y-50053937D01*
X73259744Y-50167205D01*
X73448102Y-50245226D01*
X73648061Y-50285000D01*
X73851939Y-50285000D01*
X74051898Y-50245226D01*
X74240256Y-50167205D01*
X74409774Y-50053937D01*
X74553937Y-49909774D01*
X74667205Y-49740256D01*
X74705393Y-49648061D01*
X76965000Y-49648061D01*
X76965000Y-49851939D01*
X77004774Y-50051898D01*
X77082795Y-50240256D01*
X77196063Y-50409774D01*
X77286289Y-50500000D01*
X77196063Y-50590226D01*
X77082795Y-50759744D01*
X77004774Y-50948102D01*
X76965000Y-51148061D01*
X76965000Y-51351939D01*
X77004774Y-51551898D01*
X77082795Y-51740256D01*
X77196063Y-51909774D01*
X77340226Y-52053937D01*
X77509744Y-52167205D01*
X77698102Y-52245226D01*
X77898061Y-52285000D01*
X77924843Y-52285000D01*
X79667653Y-54027810D01*
X79692236Y-54057764D01*
X79811767Y-54155862D01*
X79948140Y-54228754D01*
X80096113Y-54273642D01*
X80171026Y-54281020D01*
X80211439Y-54285000D01*
X80211444Y-54285000D01*
X80250000Y-54288797D01*
X80288556Y-54285000D01*
X93058123Y-54285000D01*
X93230013Y-54542252D01*
X93457748Y-54769987D01*
X93725537Y-54948918D01*
X94023088Y-55072168D01*
X94338967Y-55135000D01*
X94661033Y-55135000D01*
X94976912Y-55072168D01*
X95274463Y-54948918D01*
X95542252Y-54769987D01*
X95769987Y-54542252D01*
X95948918Y-54274463D01*
X96072168Y-53976912D01*
X96135000Y-53661033D01*
X96135000Y-53338967D01*
X107365000Y-53338967D01*
X107365000Y-53661033D01*
X107427832Y-53976912D01*
X107551082Y-54274463D01*
X107730013Y-54542252D01*
X107957748Y-54769987D01*
X108225537Y-54948918D01*
X108523088Y-55072168D01*
X108838967Y-55135000D01*
X109161033Y-55135000D01*
X109476912Y-55072168D01*
X109774463Y-54948918D01*
X110042252Y-54769987D01*
X110269987Y-54542252D01*
X110448918Y-54274463D01*
X110572168Y-53976912D01*
X110635000Y-53661033D01*
X110635000Y-53338967D01*
X110572168Y-53023088D01*
X110448918Y-52725537D01*
X110269987Y-52457748D01*
X110042252Y-52230013D01*
X109774463Y-52051082D01*
X109476912Y-51927832D01*
X109161033Y-51865000D01*
X108838967Y-51865000D01*
X108523088Y-51927832D01*
X108225537Y-52051082D01*
X107957748Y-52230013D01*
X107730013Y-52457748D01*
X107551082Y-52725537D01*
X107427832Y-53023088D01*
X107365000Y-53338967D01*
X96135000Y-53338967D01*
X96072168Y-53023088D01*
X95948918Y-52725537D01*
X95769987Y-52457748D01*
X95542252Y-52230013D01*
X95445065Y-52165075D01*
X95455808Y-52135413D01*
X94500000Y-51179605D01*
X93544192Y-52135413D01*
X93554935Y-52165075D01*
X93457748Y-52230013D01*
X93230013Y-52457748D01*
X93058123Y-52715000D01*
X80575157Y-52715000D01*
X79035000Y-51174843D01*
X79035000Y-51148061D01*
X78995226Y-50948102D01*
X78917205Y-50759744D01*
X78803937Y-50590226D01*
X78713711Y-50500000D01*
X78803937Y-50409774D01*
X78917205Y-50240256D01*
X78995226Y-50051898D01*
X79035000Y-49851939D01*
X79035000Y-49825157D01*
X79575158Y-49285000D01*
X92861928Y-49285000D01*
X92861928Y-49500000D01*
X92874188Y-49624482D01*
X92910498Y-49744180D01*
X92969463Y-49854494D01*
X93048815Y-49951185D01*
X93145506Y-50030537D01*
X93249223Y-50085976D01*
X93100186Y-50139956D01*
X92959296Y-50429571D01*
X92877616Y-50741108D01*
X92858282Y-51062595D01*
X92902039Y-51381675D01*
X93007205Y-51686088D01*
X93100186Y-51860044D01*
X93364587Y-51955808D01*
X94320395Y-51000000D01*
X94306253Y-50985858D01*
X94485858Y-50806253D01*
X94500000Y-50820395D01*
X94514143Y-50806253D01*
X94693748Y-50985858D01*
X94679605Y-51000000D01*
X95635413Y-51955808D01*
X95899814Y-51860044D01*
X96040704Y-51570429D01*
X96122384Y-51258892D01*
X96141718Y-50937405D01*
X96097961Y-50618325D01*
X95992795Y-50313912D01*
X95899814Y-50139956D01*
X95750777Y-50085976D01*
X95854494Y-50030537D01*
X95951185Y-49951185D01*
X96030537Y-49854494D01*
X96089502Y-49744180D01*
X96125812Y-49624482D01*
X96138072Y-49500000D01*
X96138072Y-48338967D01*
X107365000Y-48338967D01*
X107365000Y-48661033D01*
X107427832Y-48976912D01*
X107551082Y-49274463D01*
X107730013Y-49542252D01*
X107957748Y-49769987D01*
X108225537Y-49948918D01*
X108523088Y-50072168D01*
X108838967Y-50135000D01*
X109161033Y-50135000D01*
X109476912Y-50072168D01*
X109774463Y-49948918D01*
X110042252Y-49769987D01*
X110269987Y-49542252D01*
X110448918Y-49274463D01*
X110572168Y-48976912D01*
X110635000Y-48661033D01*
X110635000Y-48338967D01*
X110572168Y-48023088D01*
X110448918Y-47725537D01*
X110269987Y-47457748D01*
X110042252Y-47230013D01*
X109774463Y-47051082D01*
X109476912Y-46927832D01*
X109161033Y-46865000D01*
X108838967Y-46865000D01*
X108523088Y-46927832D01*
X108225537Y-47051082D01*
X107957748Y-47230013D01*
X107730013Y-47457748D01*
X107551082Y-47725537D01*
X107427832Y-48023088D01*
X107365000Y-48338967D01*
X96138072Y-48338967D01*
X96138072Y-47500000D01*
X96125812Y-47375518D01*
X96089502Y-47255820D01*
X96030537Y-47145506D01*
X95951185Y-47048815D01*
X95854494Y-46969463D01*
X95744180Y-46910498D01*
X95624482Y-46874188D01*
X95500000Y-46861928D01*
X93500000Y-46861928D01*
X93375518Y-46874188D01*
X93255820Y-46910498D01*
X93145506Y-46969463D01*
X93048815Y-47048815D01*
X92969463Y-47145506D01*
X92910498Y-47255820D01*
X92874188Y-47375518D01*
X92861928Y-47500000D01*
X92861928Y-47715000D01*
X79288555Y-47715000D01*
X79250000Y-47711203D01*
X79211444Y-47715000D01*
X79211439Y-47715000D01*
X79171026Y-47718980D01*
X79096113Y-47726358D01*
X78948140Y-47771246D01*
X78811767Y-47844138D01*
X78751559Y-47893550D01*
X78722187Y-47917655D01*
X78722184Y-47917658D01*
X78692236Y-47942236D01*
X78667658Y-47972185D01*
X77924843Y-48715000D01*
X77898061Y-48715000D01*
X77698102Y-48754774D01*
X77509744Y-48832795D01*
X77340226Y-48946063D01*
X77196063Y-49090226D01*
X77082795Y-49259744D01*
X77004774Y-49448102D01*
X76965000Y-49648061D01*
X74705393Y-49648061D01*
X74745226Y-49551898D01*
X74785000Y-49351939D01*
X74785000Y-49325157D01*
X77472170Y-46637987D01*
X77504774Y-46801898D01*
X77582795Y-46990256D01*
X77696063Y-47159774D01*
X77840226Y-47303937D01*
X78009744Y-47417205D01*
X78198102Y-47495226D01*
X78398061Y-47535000D01*
X78601939Y-47535000D01*
X78801898Y-47495226D01*
X78990256Y-47417205D01*
X79159774Y-47303937D01*
X79303937Y-47159774D01*
X79417205Y-46990256D01*
X79495226Y-46801898D01*
X79535000Y-46601939D01*
X79535000Y-46398061D01*
X79495226Y-46198102D01*
X79417205Y-46009744D01*
X79303937Y-45840226D01*
X79159774Y-45696063D01*
X78990256Y-45582795D01*
X78801898Y-45504774D01*
X78637987Y-45472170D01*
X79710157Y-44400000D01*
X99761928Y-44400000D01*
X99761928Y-46400000D01*
X99774188Y-46524482D01*
X99810498Y-46644180D01*
X99869463Y-46754494D01*
X99948815Y-46851185D01*
X100045506Y-46930537D01*
X100155820Y-46989502D01*
X100275518Y-47025812D01*
X100400000Y-47038072D01*
X103600000Y-47038072D01*
X103724482Y-47025812D01*
X103844180Y-46989502D01*
X103954494Y-46930537D01*
X104051185Y-46851185D01*
X104130537Y-46754494D01*
X104189502Y-46644180D01*
X104225812Y-46524482D01*
X104238072Y-46400000D01*
X104238072Y-44400000D01*
X104225812Y-44275518D01*
X104189502Y-44155820D01*
X104130537Y-44045506D01*
X104051185Y-43948815D01*
X103954494Y-43869463D01*
X103844180Y-43810498D01*
X103724482Y-43774188D01*
X103600000Y-43761928D01*
X100400000Y-43761928D01*
X100275518Y-43774188D01*
X100155820Y-43810498D01*
X100045506Y-43869463D01*
X99948815Y-43948815D01*
X99869463Y-44045506D01*
X99810498Y-44155820D01*
X99774188Y-44275518D01*
X99761928Y-44400000D01*
X79710157Y-44400000D01*
X96082345Y-28027813D01*
X96082350Y-28027807D01*
X97777811Y-26332346D01*
X97807764Y-26307764D01*
X97905862Y-26188233D01*
X97978754Y-26051860D01*
X97983404Y-26036532D01*
X98023642Y-25903887D01*
X98031727Y-25821788D01*
X98035000Y-25788561D01*
X98035000Y-25788556D01*
X98038797Y-25750000D01*
X98035000Y-25711444D01*
X98035000Y-24075157D01*
X98175158Y-23935000D01*
X99210663Y-23935000D01*
X99138617Y-24108933D01*
X99095000Y-24328212D01*
X99095000Y-24551788D01*
X99138617Y-24771067D01*
X99224176Y-24977624D01*
X99289241Y-25075000D01*
X99224176Y-25172376D01*
X99138617Y-25378933D01*
X99095000Y-25598212D01*
X99095000Y-25821788D01*
X99138617Y-26041067D01*
X99224176Y-26247624D01*
X99289241Y-26345000D01*
X99224176Y-26442376D01*
X99138617Y-26648933D01*
X99095000Y-26868212D01*
X99095000Y-27091788D01*
X99138617Y-27311067D01*
X99224176Y-27517624D01*
X99289241Y-27615000D01*
X99224176Y-27712376D01*
X99138617Y-27918933D01*
X99095000Y-28138212D01*
X99095000Y-28361788D01*
X99138617Y-28581067D01*
X99224176Y-28787624D01*
X99348388Y-28973520D01*
X99506480Y-29131612D01*
X99692376Y-29255824D01*
X99898933Y-29341383D01*
X100118212Y-29385000D01*
X100341788Y-29385000D01*
X100561067Y-29341383D01*
X100672774Y-29295112D01*
X100755820Y-29339502D01*
X100875518Y-29375812D01*
X101000000Y-29388072D01*
X102000000Y-29388072D01*
X102124482Y-29375812D01*
X102244180Y-29339502D01*
X102354494Y-29280537D01*
X102451185Y-29201185D01*
X102530537Y-29104494D01*
X102589502Y-28994180D01*
X102625812Y-28874482D01*
X102638072Y-28750000D01*
X102638072Y-28148061D01*
X102815000Y-28148061D01*
X102815000Y-28351939D01*
X102854774Y-28551898D01*
X102932795Y-28740256D01*
X103046063Y-28909774D01*
X103190226Y-29053937D01*
X103359744Y-29167205D01*
X103548102Y-29245226D01*
X103748061Y-29285000D01*
X103951939Y-29285000D01*
X104151898Y-29245226D01*
X104340256Y-29167205D01*
X104509774Y-29053937D01*
X104653937Y-28909774D01*
X104767205Y-28740256D01*
X104845226Y-28551898D01*
X104858966Y-28482818D01*
X111696787Y-28482818D01*
X112188946Y-29085149D01*
X113039933Y-29555063D01*
X113966243Y-29849929D01*
X114932281Y-29958414D01*
X115900921Y-29876351D01*
X116834938Y-29606893D01*
X117698440Y-29160394D01*
X117811054Y-29085149D01*
X118303213Y-28482818D01*
X115000000Y-25179605D01*
X111696787Y-28482818D01*
X104858966Y-28482818D01*
X104885000Y-28351939D01*
X104885000Y-28148061D01*
X104845226Y-27948102D01*
X104767205Y-27759744D01*
X104653937Y-27590226D01*
X104509774Y-27446063D01*
X104340256Y-27332795D01*
X104151898Y-27254774D01*
X103951939Y-27215000D01*
X103748061Y-27215000D01*
X103548102Y-27254774D01*
X103359744Y-27332795D01*
X103190226Y-27446063D01*
X103046063Y-27590226D01*
X102932795Y-27759744D01*
X102854774Y-27948102D01*
X102815000Y-28148061D01*
X102638072Y-28148061D01*
X102638072Y-27750000D01*
X102625812Y-27625518D01*
X102589502Y-27505820D01*
X102541930Y-27416820D01*
X102577446Y-27336864D01*
X102594119Y-27281874D01*
X102467954Y-27107000D01*
X101627000Y-27107000D01*
X101627000Y-27111928D01*
X101373000Y-27111928D01*
X101373000Y-27107000D01*
X101361974Y-27107000D01*
X101365000Y-27091788D01*
X101365000Y-26868212D01*
X101361974Y-26853000D01*
X101373000Y-26853000D01*
X101373000Y-25837000D01*
X101627000Y-25837000D01*
X101627000Y-26853000D01*
X102467954Y-26853000D01*
X102594119Y-26678126D01*
X102577446Y-26623136D01*
X102487123Y-26419794D01*
X102434361Y-26345000D01*
X102487123Y-26270206D01*
X102577446Y-26066864D01*
X102594119Y-26011874D01*
X102467954Y-25837000D01*
X101627000Y-25837000D01*
X101373000Y-25837000D01*
X101361974Y-25837000D01*
X101365000Y-25821788D01*
X101365000Y-25598212D01*
X101361974Y-25583000D01*
X101373000Y-25583000D01*
X101373000Y-25571974D01*
X101388212Y-25575000D01*
X101611788Y-25575000D01*
X101627000Y-25571974D01*
X101627000Y-25583000D01*
X102467954Y-25583000D01*
X102594119Y-25408126D01*
X102577446Y-25353136D01*
X102487123Y-25149794D01*
X102437647Y-25079658D01*
X102505824Y-24977624D01*
X102524605Y-24932281D01*
X110041586Y-24932281D01*
X110123649Y-25900921D01*
X110393107Y-26834938D01*
X110839606Y-27698440D01*
X110914851Y-27811054D01*
X111517182Y-28303213D01*
X114820395Y-25000000D01*
X111517182Y-21696787D01*
X110914851Y-22188946D01*
X110444937Y-23039933D01*
X110150071Y-23966243D01*
X110041586Y-24932281D01*
X102524605Y-24932281D01*
X102591383Y-24771067D01*
X102635000Y-24551788D01*
X102635000Y-24328212D01*
X102591383Y-24108933D01*
X102505824Y-23902376D01*
X102437647Y-23800342D01*
X102487123Y-23730206D01*
X102577446Y-23526864D01*
X102594119Y-23471874D01*
X102467954Y-23297000D01*
X101627000Y-23297000D01*
X101627000Y-23308026D01*
X101611788Y-23305000D01*
X101388212Y-23305000D01*
X101373000Y-23308026D01*
X101373000Y-23297000D01*
X101361974Y-23297000D01*
X101365000Y-23281788D01*
X101365000Y-23058212D01*
X101361974Y-23043000D01*
X101373000Y-23043000D01*
X101373000Y-22200871D01*
X101627000Y-22200871D01*
X101627000Y-23043000D01*
X102467954Y-23043000D01*
X102594119Y-22868126D01*
X102577446Y-22813136D01*
X102487123Y-22609794D01*
X102358865Y-22427980D01*
X102197601Y-22274682D01*
X102009529Y-22155790D01*
X101801876Y-22075874D01*
X101627000Y-22200871D01*
X101373000Y-22200871D01*
X101198124Y-22075874D01*
X100990471Y-22155790D01*
X100869512Y-22232256D01*
X100767624Y-22164176D01*
X100561067Y-22078617D01*
X100341788Y-22035000D01*
X100118212Y-22035000D01*
X99898933Y-22078617D01*
X99692376Y-22164176D01*
X99506480Y-22288388D01*
X99429868Y-22365000D01*
X97888552Y-22365000D01*
X97849999Y-22361203D01*
X97811446Y-22365000D01*
X97811439Y-22365000D01*
X97713353Y-22374661D01*
X97696112Y-22376359D01*
X97627521Y-22397166D01*
X97548140Y-22421246D01*
X97411767Y-22494138D01*
X97383518Y-22517322D01*
X97322187Y-22567655D01*
X97322184Y-22567658D01*
X97292236Y-22592236D01*
X97267657Y-22622185D01*
X96722188Y-23167655D01*
X96692236Y-23192236D01*
X96594138Y-23311767D01*
X96521246Y-23448140D01*
X96476359Y-23596113D01*
X96465000Y-23711439D01*
X96465000Y-23711447D01*
X96461203Y-23750000D01*
X96465000Y-23788553D01*
X96465000Y-24088560D01*
X96465001Y-24088570D01*
X96465000Y-25424843D01*
X94972193Y-26917650D01*
X94972187Y-26917655D01*
X92285000Y-29604842D01*
X92285000Y-25088201D01*
X92486632Y-24953475D01*
X92693475Y-24746632D01*
X92855990Y-24503411D01*
X92967932Y-24233158D01*
X93025000Y-23946260D01*
X93025000Y-23653740D01*
X92967932Y-23366842D01*
X92855990Y-23096589D01*
X92693475Y-22853368D01*
X92486632Y-22646525D01*
X92243411Y-22484010D01*
X91973158Y-22372068D01*
X91686260Y-22315000D01*
X91393740Y-22315000D01*
X91106842Y-22372068D01*
X90836589Y-22484010D01*
X90593368Y-22646525D01*
X90461513Y-22778380D01*
X90439502Y-22705820D01*
X90380537Y-22595506D01*
X90301185Y-22498815D01*
X90204494Y-22419463D01*
X90094180Y-22360498D01*
X89974482Y-22324188D01*
X89850000Y-22311928D01*
X88150000Y-22311928D01*
X88025518Y-22324188D01*
X87905820Y-22360498D01*
X87795506Y-22419463D01*
X87698815Y-22498815D01*
X87619463Y-22595506D01*
X87560498Y-22705820D01*
X87524188Y-22825518D01*
X87511928Y-22950000D01*
X87511928Y-24650000D01*
X87524188Y-24774482D01*
X87560498Y-24894180D01*
X87619463Y-25004494D01*
X87698815Y-25101185D01*
X87795506Y-25180537D01*
X87905820Y-25239502D01*
X88025518Y-25275812D01*
X88150000Y-25288072D01*
X88215001Y-25288072D01*
X88215000Y-30814841D01*
X70722185Y-48307656D01*
X70692237Y-48332234D01*
X70676834Y-48351003D01*
X70655862Y-48311767D01*
X70606450Y-48251559D01*
X70582345Y-48222187D01*
X70582342Y-48222184D01*
X70557764Y-48192236D01*
X70527817Y-48167659D01*
X69535000Y-47174843D01*
X69535000Y-47148061D01*
X69495226Y-46948102D01*
X69417205Y-46759744D01*
X69303937Y-46590226D01*
X69159774Y-46446063D01*
X68990256Y-46332795D01*
X68801898Y-46254774D01*
X68601939Y-46215000D01*
X68398061Y-46215000D01*
X68198102Y-46254774D01*
X68009744Y-46332795D01*
X67840226Y-46446063D01*
X67696063Y-46590226D01*
X67611430Y-46716888D01*
X67601939Y-46715000D01*
X67398061Y-46715000D01*
X67198102Y-46754774D01*
X67009744Y-46832795D01*
X66840226Y-46946063D01*
X66696063Y-47090226D01*
X66582795Y-47259744D01*
X66504774Y-47448102D01*
X66465000Y-47648061D01*
X66465000Y-47851939D01*
X66504774Y-48051898D01*
X66582795Y-48240256D01*
X66696063Y-48409774D01*
X66840226Y-48553937D01*
X67009744Y-48667205D01*
X67198102Y-48745226D01*
X67398061Y-48785000D01*
X67424843Y-48785000D01*
X68465002Y-49825160D01*
X68465001Y-57215000D01*
X68398061Y-57215000D01*
X68285000Y-57237489D01*
X68285000Y-53288556D01*
X68288797Y-53250000D01*
X68285000Y-53211444D01*
X68285000Y-53211439D01*
X68281020Y-53171026D01*
X68273642Y-53096113D01*
X68228754Y-52948140D01*
X68225598Y-52942236D01*
X68155862Y-52811767D01*
X68057764Y-52692236D01*
X68027805Y-52667649D01*
X67582347Y-52222190D01*
X67557764Y-52192236D01*
X67438233Y-52094138D01*
X67301860Y-52021246D01*
X67153887Y-51976359D01*
X67038561Y-51965000D01*
X67038553Y-51965000D01*
X67000000Y-51961203D01*
X66961447Y-51965000D01*
X66928711Y-51965000D01*
X66909774Y-51946063D01*
X66740256Y-51832795D01*
X66551898Y-51754774D01*
X66351939Y-51715000D01*
X66148061Y-51715000D01*
X65948102Y-51754774D01*
X65759744Y-51832795D01*
X65590226Y-51946063D01*
X65446063Y-52090226D01*
X65332795Y-52259744D01*
X65254774Y-52448102D01*
X65215000Y-52648061D01*
X65215000Y-52851939D01*
X65254774Y-53051898D01*
X65332795Y-53240256D01*
X65366718Y-53291026D01*
X65332795Y-53341796D01*
X65254774Y-53530154D01*
X65215000Y-53730113D01*
X65215000Y-53933991D01*
X65254774Y-54133950D01*
X65332795Y-54322308D01*
X65446063Y-54491826D01*
X65590226Y-54635989D01*
X65759744Y-54749257D01*
X65948102Y-54827278D01*
X66148061Y-54867052D01*
X66215000Y-54867052D01*
X66215001Y-57894308D01*
X66215000Y-57894317D01*
X66215000Y-58288560D01*
X66215001Y-58288569D01*
X66215000Y-58924843D01*
X66174843Y-58965000D01*
X60825157Y-58965000D01*
X56589718Y-54729561D01*
X56740256Y-54667205D01*
X56909774Y-54553937D01*
X57053937Y-54409774D01*
X57167205Y-54240256D01*
X57245226Y-54051898D01*
X57285000Y-53851939D01*
X57285000Y-53648061D01*
X57245226Y-53448102D01*
X57167205Y-53259744D01*
X57053937Y-53090226D01*
X56909774Y-52946063D01*
X56740256Y-52832795D01*
X56551898Y-52754774D01*
X56351939Y-52715000D01*
X56148061Y-52715000D01*
X55948102Y-52754774D01*
X55759744Y-52832795D01*
X55590226Y-52946063D01*
X55446063Y-53090226D01*
X55332795Y-53259744D01*
X55270439Y-53410282D01*
X49832347Y-47972190D01*
X49807764Y-47942236D01*
X49688233Y-47844138D01*
X49551860Y-47771246D01*
X49403887Y-47726359D01*
X49288561Y-47715000D01*
X49288553Y-47715000D01*
X49250000Y-47711203D01*
X49211447Y-47715000D01*
X46941877Y-47715000D01*
X46769987Y-47457748D01*
X46542252Y-47230013D01*
X46274463Y-47051082D01*
X45976912Y-46927832D01*
X45661033Y-46865000D01*
X45338967Y-46865000D01*
X45023088Y-46927832D01*
X44725537Y-47051082D01*
X44457748Y-47230013D01*
X44230013Y-47457748D01*
X44051082Y-47725537D01*
X43927832Y-48023088D01*
X43865000Y-48338967D01*
X43865000Y-48661033D01*
X43927832Y-48976912D01*
X44051082Y-49274463D01*
X44230013Y-49542252D01*
X44457748Y-49769987D01*
X44554935Y-49834925D01*
X44544192Y-49864587D01*
X45500000Y-50820395D01*
X46455808Y-49864587D01*
X46445065Y-49834925D01*
X46542252Y-49769987D01*
X46769987Y-49542252D01*
X46941877Y-49285000D01*
X48924843Y-49285000D01*
X52354843Y-52715000D01*
X47138072Y-52715000D01*
X47138072Y-52500000D01*
X47125812Y-52375518D01*
X47089502Y-52255820D01*
X47030537Y-52145506D01*
X46951185Y-52048815D01*
X46854494Y-51969463D01*
X46750777Y-51914024D01*
X46899814Y-51860044D01*
X47040704Y-51570429D01*
X47122384Y-51258892D01*
X47141718Y-50937405D01*
X47097961Y-50618325D01*
X46992795Y-50313912D01*
X46899814Y-50139956D01*
X46635413Y-50044192D01*
X45679605Y-51000000D01*
X45693748Y-51014143D01*
X45514143Y-51193748D01*
X45500000Y-51179605D01*
X45485858Y-51193748D01*
X45306253Y-51014143D01*
X45320395Y-51000000D01*
X44364587Y-50044192D01*
X44100186Y-50139956D01*
X43959296Y-50429571D01*
X43877616Y-50741108D01*
X43858282Y-51062595D01*
X20660000Y-51062595D01*
X20660000Y-48338967D01*
X29365000Y-48338967D01*
X29365000Y-48661033D01*
X29427832Y-48976912D01*
X29551082Y-49274463D01*
X29730013Y-49542252D01*
X29957748Y-49769987D01*
X30225537Y-49948918D01*
X30523088Y-50072168D01*
X30838967Y-50135000D01*
X31161033Y-50135000D01*
X31476912Y-50072168D01*
X31774463Y-49948918D01*
X32042252Y-49769987D01*
X32269987Y-49542252D01*
X32448918Y-49274463D01*
X32572168Y-48976912D01*
X32635000Y-48661033D01*
X32635000Y-48338967D01*
X32572168Y-48023088D01*
X32448918Y-47725537D01*
X32269987Y-47457748D01*
X32042252Y-47230013D01*
X31774463Y-47051082D01*
X31476912Y-46927832D01*
X31161033Y-46865000D01*
X30838967Y-46865000D01*
X30523088Y-46927832D01*
X30225537Y-47051082D01*
X29957748Y-47230013D01*
X29730013Y-47457748D01*
X29551082Y-47725537D01*
X29427832Y-48023088D01*
X29365000Y-48338967D01*
X20660000Y-48338967D01*
X20660000Y-44400000D01*
X35761928Y-44400000D01*
X35761928Y-46400000D01*
X35774188Y-46524482D01*
X35810498Y-46644180D01*
X35869463Y-46754494D01*
X35948815Y-46851185D01*
X36045506Y-46930537D01*
X36155820Y-46989502D01*
X36275518Y-47025812D01*
X36400000Y-47038072D01*
X39600000Y-47038072D01*
X39724482Y-47025812D01*
X39844180Y-46989502D01*
X39954494Y-46930537D01*
X40051185Y-46851185D01*
X40130537Y-46754494D01*
X40189502Y-46644180D01*
X40225812Y-46524482D01*
X40238072Y-46400000D01*
X40238072Y-44750000D01*
X56873000Y-44750000D01*
X56873000Y-52750000D01*
X56875440Y-52774776D01*
X56882667Y-52798601D01*
X56894403Y-52820557D01*
X56910197Y-52839803D01*
X56929443Y-52855597D01*
X56951399Y-52867333D01*
X56975224Y-52874560D01*
X57000000Y-52877000D01*
X61500000Y-52877000D01*
X61524776Y-52874560D01*
X61548601Y-52867333D01*
X61570557Y-52855597D01*
X61589803Y-52839803D01*
X61605597Y-52820557D01*
X61617333Y-52798601D01*
X61624560Y-52774776D01*
X61627000Y-52750000D01*
X61627000Y-51127000D01*
X63300000Y-51127000D01*
X63324776Y-51124560D01*
X63348601Y-51117333D01*
X63370557Y-51105597D01*
X63389803Y-51089803D01*
X63405597Y-51070557D01*
X63417333Y-51048601D01*
X63424560Y-51024776D01*
X63427000Y-51000000D01*
X63427000Y-50227000D01*
X65300000Y-50227000D01*
X65324776Y-50224560D01*
X65348601Y-50217333D01*
X65370557Y-50205597D01*
X65389803Y-50189803D01*
X65405597Y-50170557D01*
X65417333Y-50148601D01*
X65424560Y-50124776D01*
X65427000Y-50100000D01*
X65427000Y-48800000D01*
X65424560Y-48775224D01*
X65417333Y-48751399D01*
X65405597Y-48729443D01*
X65389803Y-48710197D01*
X65370557Y-48694403D01*
X65348601Y-48682667D01*
X65324776Y-48675440D01*
X65300000Y-48673000D01*
X63427000Y-48673000D01*
X63427000Y-48300000D01*
X63424560Y-48275224D01*
X63417333Y-48251399D01*
X63405597Y-48229443D01*
X63389803Y-48210197D01*
X63370557Y-48194403D01*
X63348601Y-48182667D01*
X63324776Y-48175440D01*
X63300000Y-48173000D01*
X62226266Y-48173000D01*
X62240256Y-48167205D01*
X62409774Y-48053937D01*
X62553937Y-47909774D01*
X62667205Y-47740256D01*
X62745226Y-47551898D01*
X62785000Y-47351939D01*
X62785000Y-47148061D01*
X62745226Y-46948102D01*
X62667205Y-46759744D01*
X62553937Y-46590226D01*
X62409774Y-46446063D01*
X62240256Y-46332795D01*
X62051898Y-46254774D01*
X61851939Y-46215000D01*
X61648061Y-46215000D01*
X61627000Y-46219189D01*
X61627000Y-44750000D01*
X61624560Y-44725224D01*
X61617333Y-44701399D01*
X61605597Y-44679443D01*
X61589803Y-44660197D01*
X61570557Y-44644403D01*
X61548601Y-44632667D01*
X61524776Y-44625440D01*
X61500000Y-44623000D01*
X57000000Y-44623000D01*
X56975224Y-44625440D01*
X56951399Y-44632667D01*
X56929443Y-44644403D01*
X56910197Y-44660197D01*
X56894403Y-44679443D01*
X56882667Y-44701399D01*
X56875440Y-44725224D01*
X56873000Y-44750000D01*
X40238072Y-44750000D01*
X40238072Y-44400000D01*
X40225812Y-44275518D01*
X40189502Y-44155820D01*
X40130537Y-44045506D01*
X40051185Y-43948815D01*
X39954494Y-43869463D01*
X39844180Y-43810498D01*
X39724482Y-43774188D01*
X39600000Y-43761928D01*
X36400000Y-43761928D01*
X36275518Y-43774188D01*
X36155820Y-43810498D01*
X36045506Y-43869463D01*
X35948815Y-43948815D01*
X35869463Y-44045506D01*
X35810498Y-44155820D01*
X35774188Y-44275518D01*
X35761928Y-44400000D01*
X20660000Y-44400000D01*
X20660000Y-43398061D01*
X60215000Y-43398061D01*
X60215000Y-43601939D01*
X60254774Y-43801898D01*
X60332795Y-43990256D01*
X60446063Y-44159774D01*
X60590226Y-44303937D01*
X60759744Y-44417205D01*
X60948102Y-44495226D01*
X61148061Y-44535000D01*
X61351939Y-44535000D01*
X61551898Y-44495226D01*
X61740256Y-44417205D01*
X61909774Y-44303937D01*
X62053937Y-44159774D01*
X62167205Y-43990256D01*
X62245226Y-43801898D01*
X62285000Y-43601939D01*
X62285000Y-43398061D01*
X62245226Y-43198102D01*
X62167205Y-43009744D01*
X62053937Y-42840226D01*
X61909774Y-42696063D01*
X61740256Y-42582795D01*
X61551898Y-42504774D01*
X61351939Y-42465000D01*
X61148061Y-42465000D01*
X60948102Y-42504774D01*
X60759744Y-42582795D01*
X60590226Y-42696063D01*
X60446063Y-42840226D01*
X60332795Y-43009744D01*
X60254774Y-43198102D01*
X60215000Y-43398061D01*
X20660000Y-43398061D01*
X20660000Y-41898061D01*
X61665000Y-41898061D01*
X61665000Y-42101939D01*
X61704774Y-42301898D01*
X61782795Y-42490256D01*
X61896063Y-42659774D01*
X62040226Y-42803937D01*
X62209744Y-42917205D01*
X62398102Y-42995226D01*
X62598061Y-43035000D01*
X62801939Y-43035000D01*
X63001898Y-42995226D01*
X63190256Y-42917205D01*
X63359774Y-42803937D01*
X63503937Y-42659774D01*
X63617205Y-42490256D01*
X63695226Y-42301898D01*
X63735000Y-42101939D01*
X63735000Y-41898061D01*
X63695226Y-41698102D01*
X63617205Y-41509744D01*
X63503937Y-41340226D01*
X63359774Y-41196063D01*
X63190256Y-41082795D01*
X63001898Y-41004774D01*
X62801939Y-40965000D01*
X62598061Y-40965000D01*
X62398102Y-41004774D01*
X62209744Y-41082795D01*
X62040226Y-41196063D01*
X61896063Y-41340226D01*
X61782795Y-41509744D01*
X61704774Y-41698102D01*
X61665000Y-41898061D01*
X20660000Y-41898061D01*
X20660000Y-35988212D01*
X71815000Y-35988212D01*
X71815000Y-36211788D01*
X71858617Y-36431067D01*
X71944176Y-36637624D01*
X72068388Y-36823520D01*
X72226480Y-36981612D01*
X72412376Y-37105824D01*
X72618933Y-37191383D01*
X72838212Y-37235000D01*
X73061788Y-37235000D01*
X73281067Y-37191383D01*
X73487624Y-37105824D01*
X73673520Y-36981612D01*
X73831612Y-36823520D01*
X73955824Y-36637624D01*
X74041383Y-36431067D01*
X74085000Y-36211788D01*
X74085000Y-35988212D01*
X74315000Y-35988212D01*
X74315000Y-36211788D01*
X74358617Y-36431067D01*
X74444176Y-36637624D01*
X74568388Y-36823520D01*
X74726480Y-36981612D01*
X74912376Y-37105824D01*
X75118933Y-37191383D01*
X75338212Y-37235000D01*
X75561788Y-37235000D01*
X75781067Y-37191383D01*
X75828198Y-37171861D01*
X75815000Y-37238212D01*
X75815000Y-37461788D01*
X75858617Y-37681067D01*
X75944176Y-37887624D01*
X76068388Y-38073520D01*
X76226480Y-38231612D01*
X76412376Y-38355824D01*
X76618933Y-38441383D01*
X76838212Y-38485000D01*
X77061788Y-38485000D01*
X77281067Y-38441383D01*
X77487624Y-38355824D01*
X77673520Y-38231612D01*
X77831612Y-38073520D01*
X77955824Y-37887624D01*
X78041383Y-37681067D01*
X78085000Y-37461788D01*
X78085000Y-37238212D01*
X78041383Y-37018933D01*
X77955824Y-36812376D01*
X77831612Y-36626480D01*
X77673520Y-36468388D01*
X77487624Y-36344176D01*
X77281067Y-36258617D01*
X77061788Y-36215000D01*
X76838212Y-36215000D01*
X76618933Y-36258617D01*
X76571802Y-36278139D01*
X76585000Y-36211788D01*
X76585000Y-35988212D01*
X76541383Y-35768933D01*
X76455824Y-35562376D01*
X76331612Y-35376480D01*
X76173520Y-35218388D01*
X75987624Y-35094176D01*
X75781067Y-35008617D01*
X75561788Y-34965000D01*
X75338212Y-34965000D01*
X75118933Y-35008617D01*
X74912376Y-35094176D01*
X74726480Y-35218388D01*
X74568388Y-35376480D01*
X74444176Y-35562376D01*
X74358617Y-35768933D01*
X74315000Y-35988212D01*
X74085000Y-35988212D01*
X74041383Y-35768933D01*
X73955824Y-35562376D01*
X73831612Y-35376480D01*
X73673520Y-35218388D01*
X73487624Y-35094176D01*
X73281067Y-35008617D01*
X73061788Y-34965000D01*
X72838212Y-34965000D01*
X72618933Y-35008617D01*
X72412376Y-35094176D01*
X72226480Y-35218388D01*
X72068388Y-35376480D01*
X71944176Y-35562376D01*
X71858617Y-35768933D01*
X71815000Y-35988212D01*
X20660000Y-35988212D01*
X20660000Y-32988212D01*
X71815000Y-32988212D01*
X71815000Y-33211788D01*
X71858617Y-33431067D01*
X71944176Y-33637624D01*
X72068388Y-33823520D01*
X72226480Y-33981612D01*
X72412376Y-34105824D01*
X72618933Y-34191383D01*
X72838212Y-34235000D01*
X73061788Y-34235000D01*
X73281067Y-34191383D01*
X73487624Y-34105824D01*
X73673520Y-33981612D01*
X73831612Y-33823520D01*
X73955824Y-33637624D01*
X74041383Y-33431067D01*
X74085000Y-33211788D01*
X74085000Y-32988212D01*
X74315000Y-32988212D01*
X74315000Y-33211788D01*
X74358617Y-33431067D01*
X74444176Y-33637624D01*
X74568388Y-33823520D01*
X74726480Y-33981612D01*
X74912376Y-34105824D01*
X75118933Y-34191383D01*
X75338212Y-34235000D01*
X75561788Y-34235000D01*
X75781067Y-34191383D01*
X75987624Y-34105824D01*
X76173520Y-33981612D01*
X76331612Y-33823520D01*
X76455824Y-33637624D01*
X76541383Y-33431067D01*
X76585000Y-33211788D01*
X76585000Y-32988212D01*
X76541383Y-32768933D01*
X76486547Y-32636547D01*
X76618933Y-32691383D01*
X76838212Y-32735000D01*
X77061788Y-32735000D01*
X77281067Y-32691383D01*
X77487624Y-32605824D01*
X77673520Y-32481612D01*
X77831612Y-32323520D01*
X77955824Y-32137624D01*
X78041383Y-31931067D01*
X78085000Y-31711788D01*
X78085000Y-31488212D01*
X78041383Y-31268933D01*
X77955824Y-31062376D01*
X77831612Y-30876480D01*
X77673520Y-30718388D01*
X77487624Y-30594176D01*
X77281067Y-30508617D01*
X77061788Y-30465000D01*
X76838212Y-30465000D01*
X76618933Y-30508617D01*
X76412376Y-30594176D01*
X76226480Y-30718388D01*
X76068388Y-30876480D01*
X75944176Y-31062376D01*
X75858617Y-31268933D01*
X75815000Y-31488212D01*
X75815000Y-31711788D01*
X75858617Y-31931067D01*
X75913453Y-32063453D01*
X75781067Y-32008617D01*
X75561788Y-31965000D01*
X75338212Y-31965000D01*
X75118933Y-32008617D01*
X74912376Y-32094176D01*
X74726480Y-32218388D01*
X74568388Y-32376480D01*
X74444176Y-32562376D01*
X74358617Y-32768933D01*
X74315000Y-32988212D01*
X74085000Y-32988212D01*
X74041383Y-32768933D01*
X73955824Y-32562376D01*
X73831612Y-32376480D01*
X73673520Y-32218388D01*
X73487624Y-32094176D01*
X73281067Y-32008617D01*
X73061788Y-31965000D01*
X72838212Y-31965000D01*
X72618933Y-32008617D01*
X72412376Y-32094176D01*
X72226480Y-32218388D01*
X72068388Y-32376480D01*
X71944176Y-32562376D01*
X71858617Y-32768933D01*
X71815000Y-32988212D01*
X20660000Y-32988212D01*
X20660000Y-28482818D01*
X21696787Y-28482818D01*
X22188946Y-29085149D01*
X23039933Y-29555063D01*
X23966243Y-29849929D01*
X24932281Y-29958414D01*
X25900921Y-29876351D01*
X26834938Y-29606893D01*
X27698440Y-29160394D01*
X27811054Y-29085149D01*
X28303213Y-28482818D01*
X25000000Y-25179605D01*
X21696787Y-28482818D01*
X20660000Y-28482818D01*
X20660000Y-27351093D01*
X20839606Y-27698440D01*
X20914851Y-27811054D01*
X21517182Y-28303213D01*
X24820395Y-25000000D01*
X25179605Y-25000000D01*
X28482818Y-28303213D01*
X29085149Y-27811054D01*
X29555063Y-26960067D01*
X29849929Y-26033757D01*
X29904485Y-25547938D01*
X66280732Y-25547938D01*
X66350397Y-25736150D01*
X66464447Y-25921822D01*
X66612529Y-26081676D01*
X66788951Y-26209569D01*
X66986934Y-26300586D01*
X67198869Y-26351230D01*
X67373000Y-26202564D01*
X67373000Y-25377000D01*
X67627000Y-25377000D01*
X67627000Y-26202564D01*
X67801131Y-26351230D01*
X68013066Y-26300586D01*
X68211049Y-26209569D01*
X68387471Y-26081676D01*
X68535553Y-25921822D01*
X68649603Y-25736150D01*
X68719268Y-25547938D01*
X71280732Y-25547938D01*
X71350397Y-25736150D01*
X71464447Y-25921822D01*
X71612529Y-26081676D01*
X71788951Y-26209569D01*
X71986934Y-26300586D01*
X72198869Y-26351230D01*
X72373000Y-26202564D01*
X72373000Y-25377000D01*
X72627000Y-25377000D01*
X72627000Y-26202564D01*
X72801131Y-26351230D01*
X73013066Y-26300586D01*
X73211049Y-26209569D01*
X73387471Y-26081676D01*
X73535553Y-25921822D01*
X73649603Y-25736150D01*
X73719268Y-25547938D01*
X73592734Y-25377000D01*
X72627000Y-25377000D01*
X72373000Y-25377000D01*
X71407266Y-25377000D01*
X71280732Y-25547938D01*
X68719268Y-25547938D01*
X68592734Y-25377000D01*
X67627000Y-25377000D01*
X67373000Y-25377000D01*
X66407266Y-25377000D01*
X66280732Y-25547938D01*
X29904485Y-25547938D01*
X29958414Y-25067719D01*
X29948616Y-24952062D01*
X66280732Y-24952062D01*
X66407266Y-25123000D01*
X67373000Y-25123000D01*
X67373000Y-24297436D01*
X67627000Y-24297436D01*
X67627000Y-25123000D01*
X68592734Y-25123000D01*
X68719268Y-24952062D01*
X71280732Y-24952062D01*
X71407266Y-25123000D01*
X72373000Y-25123000D01*
X72373000Y-24297436D01*
X72627000Y-24297436D01*
X72627000Y-25123000D01*
X73592734Y-25123000D01*
X73719268Y-24952062D01*
X73649603Y-24763850D01*
X73535553Y-24578178D01*
X73387471Y-24418324D01*
X73211049Y-24290431D01*
X73013066Y-24199414D01*
X72801131Y-24148770D01*
X72627000Y-24297436D01*
X72373000Y-24297436D01*
X72198869Y-24148770D01*
X71986934Y-24199414D01*
X71788951Y-24290431D01*
X71612529Y-24418324D01*
X71464447Y-24578178D01*
X71350397Y-24763850D01*
X71280732Y-24952062D01*
X68719268Y-24952062D01*
X68649603Y-24763850D01*
X68535553Y-24578178D01*
X68387471Y-24418324D01*
X68211049Y-24290431D01*
X68013066Y-24199414D01*
X67801131Y-24148770D01*
X67627000Y-24297436D01*
X67373000Y-24297436D01*
X67198869Y-24148770D01*
X66986934Y-24199414D01*
X66788951Y-24290431D01*
X66612529Y-24418324D01*
X66464447Y-24578178D01*
X66350397Y-24763850D01*
X66280732Y-24952062D01*
X29948616Y-24952062D01*
X29876351Y-24099079D01*
X29606893Y-23165062D01*
X29354527Y-22677000D01*
X65365000Y-22677000D01*
X65365000Y-22952000D01*
X65411585Y-23170987D01*
X65499997Y-23376678D01*
X65626839Y-23561169D01*
X65787236Y-23717369D01*
X65975024Y-23839276D01*
X66198126Y-23919119D01*
X66373000Y-23792954D01*
X66373000Y-22677000D01*
X66627000Y-22677000D01*
X66627000Y-23792954D01*
X66801874Y-23919119D01*
X67024976Y-23839276D01*
X67212764Y-23717369D01*
X67373161Y-23561169D01*
X67500003Y-23376678D01*
X67588415Y-23170987D01*
X67635000Y-22952000D01*
X67635000Y-22677000D01*
X72365000Y-22677000D01*
X72365000Y-22952000D01*
X72411585Y-23170987D01*
X72499997Y-23376678D01*
X72626839Y-23561169D01*
X72787236Y-23717369D01*
X72975024Y-23839276D01*
X73198126Y-23919119D01*
X73373000Y-23792954D01*
X73373000Y-22677000D01*
X73627000Y-22677000D01*
X73627000Y-23792954D01*
X73801874Y-23919119D01*
X74024976Y-23839276D01*
X74212764Y-23717369D01*
X74373161Y-23561169D01*
X74500003Y-23376678D01*
X74588415Y-23170987D01*
X74635000Y-22952000D01*
X74635000Y-22677000D01*
X73627000Y-22677000D01*
X73373000Y-22677000D01*
X72365000Y-22677000D01*
X67635000Y-22677000D01*
X66627000Y-22677000D01*
X66373000Y-22677000D01*
X65365000Y-22677000D01*
X29354527Y-22677000D01*
X29160394Y-22301560D01*
X29085149Y-22188946D01*
X29035038Y-22148000D01*
X65365000Y-22148000D01*
X65365000Y-22423000D01*
X66373000Y-22423000D01*
X66373000Y-21307046D01*
X66627000Y-21307046D01*
X66627000Y-22423000D01*
X67635000Y-22423000D01*
X67635000Y-22148000D01*
X72365000Y-22148000D01*
X72365000Y-22423000D01*
X73373000Y-22423000D01*
X73373000Y-21307046D01*
X73627000Y-21307046D01*
X73627000Y-22423000D01*
X74635000Y-22423000D01*
X74635000Y-22148000D01*
X74588415Y-21929013D01*
X74500003Y-21723322D01*
X74373161Y-21538831D01*
X74212764Y-21382631D01*
X74024976Y-21260724D01*
X73801874Y-21180881D01*
X73627000Y-21307046D01*
X73373000Y-21307046D01*
X73198126Y-21180881D01*
X72975024Y-21260724D01*
X72787236Y-21382631D01*
X72626839Y-21538831D01*
X72499997Y-21723322D01*
X72411585Y-21929013D01*
X72365000Y-22148000D01*
X67635000Y-22148000D01*
X67588415Y-21929013D01*
X67500003Y-21723322D01*
X67373161Y-21538831D01*
X67212764Y-21382631D01*
X67024976Y-21260724D01*
X66801874Y-21180881D01*
X66627000Y-21307046D01*
X66373000Y-21307046D01*
X66198126Y-21180881D01*
X65975024Y-21260724D01*
X65787236Y-21382631D01*
X65626839Y-21538831D01*
X65499997Y-21723322D01*
X65411585Y-21929013D01*
X65365000Y-22148000D01*
X29035038Y-22148000D01*
X28482818Y-21696787D01*
X25179605Y-25000000D01*
X24820395Y-25000000D01*
X24806253Y-24985858D01*
X24985858Y-24806253D01*
X25000000Y-24820395D01*
X28303213Y-21517182D01*
X27811054Y-20914851D01*
X27349534Y-20660000D01*
X112648907Y-20660000D01*
X112301560Y-20839606D01*
M02*
