G04 #@! TF.GenerationSoftware,KiCad,Pcbnew,(5.1.5-0-10_14)*
G04 #@! TF.CreationDate,2020-04-18T14:32:56+10:00*
G04 #@! TF.ProjectId,etch-a-sketch,65746368-2d61-42d7-936b-657463682e6b,rev?*
G04 #@! TF.SameCoordinates,Original*
G04 #@! TF.FileFunction,Legend,Top*
G04 #@! TF.FilePolarity,Positive*
%FSLAX46Y46*%
G04 Gerber Fmt 4.6, Leading zero omitted, Abs format (unit mm)*
G04 Created by KiCad (PCBNEW (5.1.5-0-10_14)) date 2020-04-18 14:32:56*
%MOMM*%
%LPD*%
G04 APERTURE LIST*
%ADD10C,0.250000*%
%ADD11C,0.120000*%
%ADD12C,0.150000*%
G04 APERTURE END LIST*
D10*
X32571428Y-76892857D02*
X33071428Y-76892857D01*
X33285714Y-77678571D02*
X32571428Y-77678571D01*
X32571428Y-76178571D01*
X33285714Y-76178571D01*
X33714285Y-76678571D02*
X34285714Y-76678571D01*
X33928571Y-76178571D02*
X33928571Y-77464285D01*
X34000000Y-77607142D01*
X34142857Y-77678571D01*
X34285714Y-77678571D01*
X35428571Y-77607142D02*
X35285714Y-77678571D01*
X35000000Y-77678571D01*
X34857142Y-77607142D01*
X34785714Y-77535714D01*
X34714285Y-77392857D01*
X34714285Y-76964285D01*
X34785714Y-76821428D01*
X34857142Y-76750000D01*
X35000000Y-76678571D01*
X35285714Y-76678571D01*
X35428571Y-76750000D01*
X36071428Y-77678571D02*
X36071428Y-76178571D01*
X36714285Y-77678571D02*
X36714285Y-76892857D01*
X36642857Y-76750000D01*
X36500000Y-76678571D01*
X36285714Y-76678571D01*
X36142857Y-76750000D01*
X36071428Y-76821428D01*
X38500000Y-77250000D02*
X39214285Y-77250000D01*
X38357142Y-77678571D02*
X38857142Y-76178571D01*
X39357142Y-77678571D01*
X40928571Y-77607142D02*
X41142857Y-77678571D01*
X41500000Y-77678571D01*
X41642857Y-77607142D01*
X41714285Y-77535714D01*
X41785714Y-77392857D01*
X41785714Y-77250000D01*
X41714285Y-77107142D01*
X41642857Y-77035714D01*
X41500000Y-76964285D01*
X41214285Y-76892857D01*
X41071428Y-76821428D01*
X41000000Y-76750000D01*
X40928571Y-76607142D01*
X40928571Y-76464285D01*
X41000000Y-76321428D01*
X41071428Y-76250000D01*
X41214285Y-76178571D01*
X41571428Y-76178571D01*
X41785714Y-76250000D01*
X42428571Y-77678571D02*
X42428571Y-76178571D01*
X42571428Y-77107142D02*
X43000000Y-77678571D01*
X43000000Y-76678571D02*
X42428571Y-77250000D01*
X44214285Y-77607142D02*
X44071428Y-77678571D01*
X43785714Y-77678571D01*
X43642857Y-77607142D01*
X43571428Y-77464285D01*
X43571428Y-76892857D01*
X43642857Y-76750000D01*
X43785714Y-76678571D01*
X44071428Y-76678571D01*
X44214285Y-76750000D01*
X44285714Y-76892857D01*
X44285714Y-77035714D01*
X43571428Y-77178571D01*
X44714285Y-76678571D02*
X45285714Y-76678571D01*
X44928571Y-76178571D02*
X44928571Y-77464285D01*
X45000000Y-77607142D01*
X45142857Y-77678571D01*
X45285714Y-77678571D01*
X46428571Y-77607142D02*
X46285714Y-77678571D01*
X46000000Y-77678571D01*
X45857142Y-77607142D01*
X45785714Y-77535714D01*
X45714285Y-77392857D01*
X45714285Y-76964285D01*
X45785714Y-76821428D01*
X45857142Y-76750000D01*
X46000000Y-76678571D01*
X46285714Y-76678571D01*
X46428571Y-76750000D01*
X47071428Y-77678571D02*
X47071428Y-76178571D01*
X47714285Y-77678571D02*
X47714285Y-76892857D01*
X47642857Y-76750000D01*
X47500000Y-76678571D01*
X47285714Y-76678571D01*
X47142857Y-76750000D01*
X47071428Y-76821428D01*
X49428571Y-76678571D02*
X49785714Y-77678571D01*
X50142857Y-76678571D01*
X51500000Y-77678571D02*
X50642857Y-77678571D01*
X51071428Y-77678571D02*
X51071428Y-76178571D01*
X50928571Y-76392857D01*
X50785714Y-76535714D01*
X50642857Y-76607142D01*
D11*
X46800000Y-53500000D02*
G75*
G03X46800000Y-53500000I0J0D01*
G01*
X93200000Y-48500000D02*
G75*
G03X93200000Y-48500000I0J0D01*
G01*
X71400000Y-28100000D02*
G75*
G03X71400000Y-28100000I0J0D01*
G01*
X104500000Y-28300000D02*
G75*
G03X104500000Y-28300000I0J0D01*
G01*
X58200000Y-46400000D02*
G75*
G03X58200000Y-46400000I0J0D01*
G01*
X63300000Y-47250000D02*
G75*
G03X63300000Y-47250000I0J0D01*
G01*
D12*
X82369047Y-33071428D02*
X83130952Y-33071428D01*
X82750000Y-33452380D02*
X82750000Y-32690476D01*
X78119047Y-54071428D02*
X78880952Y-54071428D01*
X78500000Y-54452380D02*
X78500000Y-53690476D01*
X78523809Y-53404761D02*
X78666666Y-53452380D01*
X78904761Y-53452380D01*
X79000000Y-53404761D01*
X79047619Y-53357142D01*
X79095238Y-53261904D01*
X79095238Y-53166666D01*
X79047619Y-53071428D01*
X79000000Y-53023809D01*
X78904761Y-52976190D01*
X78714285Y-52928571D01*
X78619047Y-52880952D01*
X78571428Y-52833333D01*
X78523809Y-52738095D01*
X78523809Y-52642857D01*
X78571428Y-52547619D01*
X78619047Y-52500000D01*
X78714285Y-52452380D01*
X78952380Y-52452380D01*
X79095238Y-52500000D01*
X79380952Y-52452380D02*
X79952380Y-52452380D01*
X79666666Y-53452380D02*
X79666666Y-52452380D01*
X80238095Y-53166666D02*
X80714285Y-53166666D01*
X80142857Y-53452380D02*
X80476190Y-52452380D01*
X80809523Y-53452380D01*
X81000000Y-52452380D02*
X81571428Y-52452380D01*
X81285714Y-53452380D02*
X81285714Y-52452380D01*
X79761904Y-31452380D02*
X80380952Y-31452380D01*
X80047619Y-31833333D01*
X80190476Y-31833333D01*
X80285714Y-31880952D01*
X80333333Y-31928571D01*
X80380952Y-32023809D01*
X80380952Y-32261904D01*
X80333333Y-32357142D01*
X80285714Y-32404761D01*
X80190476Y-32452380D01*
X79904761Y-32452380D01*
X79809523Y-32404761D01*
X79761904Y-32357142D01*
X80666666Y-31452380D02*
X81000000Y-32452380D01*
X81333333Y-31452380D01*
X81571428Y-31452380D02*
X82190476Y-31452380D01*
X81857142Y-31833333D01*
X82000000Y-31833333D01*
X82095238Y-31880952D01*
X82142857Y-31928571D01*
X82190476Y-32023809D01*
X82190476Y-32261904D01*
X82142857Y-32357142D01*
X82095238Y-32404761D01*
X82000000Y-32452380D01*
X81714285Y-32452380D01*
X81619047Y-32404761D01*
X81571428Y-32357142D01*
X99642857Y-30904761D02*
X99785714Y-30952380D01*
X100023809Y-30952380D01*
X100119047Y-30904761D01*
X100166666Y-30857142D01*
X100214285Y-30761904D01*
X100214285Y-30666666D01*
X100166666Y-30571428D01*
X100119047Y-30523809D01*
X100023809Y-30476190D01*
X99833333Y-30428571D01*
X99738095Y-30380952D01*
X99690476Y-30333333D01*
X99642857Y-30238095D01*
X99642857Y-30142857D01*
X99690476Y-30047619D01*
X99738095Y-30000000D01*
X99833333Y-29952380D01*
X100071428Y-29952380D01*
X100214285Y-30000000D01*
X100547619Y-29952380D02*
X100785714Y-30952380D01*
X100976190Y-30238095D01*
X101166666Y-30952380D01*
X101404761Y-29952380D01*
X101785714Y-30952380D02*
X101785714Y-29952380D01*
X102023809Y-29952380D01*
X102166666Y-30000000D01*
X102261904Y-30095238D01*
X102309523Y-30190476D01*
X102357142Y-30380952D01*
X102357142Y-30523809D01*
X102309523Y-30714285D01*
X102261904Y-30809523D01*
X102166666Y-30904761D01*
X102023809Y-30952380D01*
X101785714Y-30952380D01*
X88128571Y-26052380D02*
X88128571Y-26861904D01*
X88176190Y-26957142D01*
X88223809Y-27004761D01*
X88319047Y-27052380D01*
X88509523Y-27052380D01*
X88604761Y-27004761D01*
X88652380Y-26957142D01*
X88700000Y-26861904D01*
X88700000Y-26052380D01*
X89128571Y-27004761D02*
X89271428Y-27052380D01*
X89509523Y-27052380D01*
X89604761Y-27004761D01*
X89652380Y-26957142D01*
X89700000Y-26861904D01*
X89700000Y-26766666D01*
X89652380Y-26671428D01*
X89604761Y-26623809D01*
X89509523Y-26576190D01*
X89319047Y-26528571D01*
X89223809Y-26480952D01*
X89176190Y-26433333D01*
X89128571Y-26338095D01*
X89128571Y-26242857D01*
X89176190Y-26147619D01*
X89223809Y-26100000D01*
X89319047Y-26052380D01*
X89557142Y-26052380D01*
X89700000Y-26100000D01*
X90080952Y-26766666D02*
X90557142Y-26766666D01*
X89985714Y-27052380D02*
X90319047Y-26052380D01*
X90652380Y-27052380D01*
X91557142Y-27052380D02*
X91223809Y-26576190D01*
X90985714Y-27052380D02*
X90985714Y-26052380D01*
X91366666Y-26052380D01*
X91461904Y-26100000D01*
X91509523Y-26147619D01*
X91557142Y-26242857D01*
X91557142Y-26385714D01*
X91509523Y-26480952D01*
X91461904Y-26528571D01*
X91366666Y-26576190D01*
X90985714Y-26576190D01*
X91842857Y-26052380D02*
X92414285Y-26052380D01*
X92128571Y-27052380D02*
X92128571Y-26052380D01*
X100285714Y-42928571D02*
X100619047Y-42928571D01*
X100761904Y-43452380D02*
X100285714Y-43452380D01*
X100285714Y-42452380D01*
X100761904Y-42452380D01*
X101190476Y-43452380D02*
X101190476Y-42452380D01*
X101761904Y-43452380D01*
X101761904Y-42452380D01*
X102809523Y-43357142D02*
X102761904Y-43404761D01*
X102619047Y-43452380D01*
X102523809Y-43452380D01*
X102380952Y-43404761D01*
X102285714Y-43309523D01*
X102238095Y-43214285D01*
X102190476Y-43023809D01*
X102190476Y-42880952D01*
X102238095Y-42690476D01*
X102285714Y-42595238D01*
X102380952Y-42500000D01*
X102523809Y-42452380D01*
X102619047Y-42452380D01*
X102761904Y-42500000D01*
X102809523Y-42547619D01*
X103761904Y-43452380D02*
X103190476Y-43452380D01*
X103476190Y-43452380D02*
X103476190Y-42452380D01*
X103380952Y-42595238D01*
X103285714Y-42690476D01*
X103190476Y-42738095D01*
X36285714Y-42928571D02*
X36619047Y-42928571D01*
X36761904Y-43452380D02*
X36285714Y-43452380D01*
X36285714Y-42452380D01*
X36761904Y-42452380D01*
X37190476Y-43452380D02*
X37190476Y-42452380D01*
X37761904Y-43452380D01*
X37761904Y-42452380D01*
X38809523Y-43357142D02*
X38761904Y-43404761D01*
X38619047Y-43452380D01*
X38523809Y-43452380D01*
X38380952Y-43404761D01*
X38285714Y-43309523D01*
X38238095Y-43214285D01*
X38190476Y-43023809D01*
X38190476Y-42880952D01*
X38238095Y-42690476D01*
X38285714Y-42595238D01*
X38380952Y-42500000D01*
X38523809Y-42452380D01*
X38619047Y-42452380D01*
X38761904Y-42500000D01*
X38809523Y-42547619D01*
X39190476Y-42547619D02*
X39238095Y-42500000D01*
X39333333Y-42452380D01*
X39571428Y-42452380D01*
X39666666Y-42500000D01*
X39714285Y-42547619D01*
X39761904Y-42642857D01*
X39761904Y-42738095D01*
X39714285Y-42880952D01*
X39142857Y-43452380D01*
X39761904Y-43452380D01*
X69047619Y-66952380D02*
X69238095Y-66952380D01*
X69333333Y-67000000D01*
X69428571Y-67095238D01*
X69476190Y-67285714D01*
X69476190Y-67619047D01*
X69428571Y-67809523D01*
X69333333Y-67904761D01*
X69238095Y-67952380D01*
X69047619Y-67952380D01*
X68952380Y-67904761D01*
X68857142Y-67809523D01*
X68809523Y-67619047D01*
X68809523Y-67285714D01*
X68857142Y-67095238D01*
X68952380Y-67000000D01*
X69047619Y-66952380D01*
X70380952Y-67952380D02*
X69904761Y-67952380D01*
X69904761Y-66952380D01*
X70714285Y-67428571D02*
X71047619Y-67428571D01*
X71190476Y-67952380D02*
X70714285Y-67952380D01*
X70714285Y-66952380D01*
X71190476Y-66952380D01*
X71619047Y-67952380D02*
X71619047Y-66952380D01*
X71857142Y-66952380D01*
X72000000Y-67000000D01*
X72095238Y-67095238D01*
X72142857Y-67190476D01*
X72190476Y-67380952D01*
X72190476Y-67523809D01*
X72142857Y-67714285D01*
X72095238Y-67809523D01*
X72000000Y-67904761D01*
X71857142Y-67952380D01*
X71619047Y-67952380D01*
D11*
X74160000Y-56110000D02*
X75110000Y-56110000D01*
X75110000Y-56110000D02*
X75110000Y-55160000D01*
X65840000Y-56110000D02*
X64890000Y-56110000D01*
X64890000Y-56110000D02*
X64890000Y-55160000D01*
X74160000Y-45890000D02*
X75110000Y-45890000D01*
X75110000Y-45890000D02*
X75110000Y-46840000D01*
X65840000Y-45890000D02*
X64890000Y-45890000D01*
X64890000Y-45890000D02*
X64890000Y-46840000D01*
X64890000Y-46840000D02*
X63550000Y-46840000D01*
X63670000Y-70250000D02*
X63670000Y-68920000D01*
X63670000Y-68920000D02*
X65000000Y-68920000D01*
X66270000Y-68920000D02*
X76490000Y-68920000D01*
X76490000Y-71580000D02*
X76490000Y-68920000D01*
X66270000Y-71580000D02*
X76490000Y-71580000D01*
X66270000Y-71580000D02*
X66270000Y-68920000D01*
X65040000Y-35696078D02*
X65040000Y-35178922D01*
X66460000Y-35696078D02*
X66460000Y-35178922D01*
X79290000Y-34491422D02*
X79290000Y-35008578D01*
X80710000Y-34491422D02*
X80710000Y-35008578D01*
X63210000Y-44049721D02*
X63210000Y-44375279D01*
X62190000Y-44049721D02*
X62190000Y-44375279D01*
X72890000Y-59337221D02*
X72890000Y-59662779D01*
X73910000Y-59337221D02*
X73910000Y-59662779D01*
X67500000Y-30250000D02*
X67500000Y-32250000D01*
X67500000Y-32250000D02*
X71400000Y-32250000D01*
X67500000Y-30250000D02*
X71400000Y-30250000D01*
X82735000Y-36022500D02*
X82735000Y-33737500D01*
X81265000Y-36022500D02*
X82735000Y-36022500D01*
X81265000Y-33737500D02*
X81265000Y-36022500D01*
X81522500Y-54015000D02*
X79237500Y-54015000D01*
X81522500Y-55485000D02*
X81522500Y-54015000D01*
X79237500Y-55485000D02*
X81522500Y-55485000D01*
X63160000Y-32147936D02*
X63160000Y-33352064D01*
X61340000Y-32147936D02*
X61340000Y-33352064D01*
X68071078Y-38290000D02*
X67553922Y-38290000D01*
X68071078Y-39710000D02*
X67553922Y-39710000D01*
X58921078Y-53190000D02*
X58403922Y-53190000D01*
X58921078Y-54610000D02*
X58403922Y-54610000D01*
X60700000Y-46600000D02*
X57400000Y-46600000D01*
X57400000Y-46600000D02*
X57400000Y-50600000D01*
X90270000Y-25130000D02*
X90270000Y-22470000D01*
X90270000Y-25130000D02*
X92870000Y-25130000D01*
X92870000Y-25130000D02*
X92870000Y-22470000D01*
X90270000Y-22470000D02*
X92870000Y-22470000D01*
X87670000Y-22470000D02*
X89000000Y-22470000D01*
X87670000Y-23800000D02*
X87670000Y-22470000D01*
X102465000Y-29005000D02*
X98935000Y-29005000D01*
X102465000Y-22535000D02*
X98935000Y-22535000D01*
X103790000Y-28940000D02*
X102465000Y-28940000D01*
X102465000Y-29005000D02*
X102465000Y-28940000D01*
X98935000Y-29005000D02*
X98935000Y-28940000D01*
X102465000Y-22600000D02*
X102465000Y-22535000D01*
X98935000Y-22600000D02*
X98935000Y-22535000D01*
D12*
X74150000Y-25650000D02*
X74150000Y-24250000D01*
X74150000Y-21850000D02*
X74150000Y-21700000D01*
X74150000Y-21700000D02*
X73850000Y-21700000D01*
X73850000Y-21700000D02*
X73850000Y-21250000D01*
X66150000Y-21250000D02*
X66150000Y-21700000D01*
X66150000Y-21700000D02*
X65850000Y-21700000D01*
X65850000Y-21700000D02*
X65850000Y-21850000D01*
X65850000Y-24250000D02*
X65850000Y-25650000D01*
X71075000Y-27825000D02*
X71800000Y-27825000D01*
X71800000Y-27825000D02*
X71800000Y-27400000D01*
X71800000Y-27400000D02*
X72800000Y-27400000D01*
X68200000Y-27400000D02*
X67200000Y-27400000D01*
D11*
X80662779Y-38010000D02*
X80337221Y-38010000D01*
X80662779Y-36990000D02*
X80337221Y-36990000D01*
X80200279Y-55990000D02*
X79874721Y-55990000D01*
X80200279Y-57010000D02*
X79874721Y-57010000D01*
X101500000Y-51000000D02*
X102500000Y-51000000D01*
X102000000Y-50500000D02*
X102000000Y-51500000D01*
X108100000Y-54500000D02*
X108100000Y-56900000D01*
X108100000Y-49700000D02*
X108100000Y-52300000D01*
X108100000Y-45100000D02*
X108100000Y-47500000D01*
X94800000Y-46900000D02*
X94500000Y-47200000D01*
X94200000Y-46900000D02*
X94800000Y-46900000D01*
X94500000Y-47200000D02*
X94200000Y-46900000D01*
X95900000Y-45100000D02*
X95900000Y-56900000D01*
X100000000Y-45100000D02*
X95900000Y-45100000D01*
X100000000Y-56900000D02*
X95900000Y-56900000D01*
X108100000Y-56900000D02*
X104000000Y-56900000D01*
X104000000Y-45100000D02*
X108100000Y-45100000D01*
X105000000Y-51000000D02*
G75*
G03X105000000Y-51000000I-3000000J0D01*
G01*
X38500000Y-51000000D02*
X37500000Y-51000000D01*
X38000000Y-51500000D02*
X38000000Y-50500000D01*
X31900000Y-47500000D02*
X31900000Y-45100000D01*
X31900000Y-52300000D02*
X31900000Y-49700000D01*
X31900000Y-56900000D02*
X31900000Y-54500000D01*
X45200000Y-55100000D02*
X45500000Y-54800000D01*
X45800000Y-55100000D02*
X45200000Y-55100000D01*
X45500000Y-54800000D02*
X45800000Y-55100000D01*
X44100000Y-56900000D02*
X44100000Y-45100000D01*
X40000000Y-56900000D02*
X44100000Y-56900000D01*
X40000000Y-45100000D02*
X44100000Y-45100000D01*
X31900000Y-45100000D02*
X36000000Y-45100000D01*
X36000000Y-56900000D02*
X31900000Y-56900000D01*
X41000000Y-51000000D02*
G75*
G03X41000000Y-51000000I-3000000J0D01*
G01*
X70150000Y-33090000D02*
X76160000Y-33090000D01*
X72400000Y-39910000D02*
X76160000Y-39910000D01*
X76160000Y-33090000D02*
X76160000Y-34350000D01*
X76160000Y-39910000D02*
X76160000Y-38650000D01*
D12*
X61682380Y-70583333D02*
X62396666Y-70583333D01*
X62539523Y-70630952D01*
X62634761Y-70726190D01*
X62682380Y-70869047D01*
X62682380Y-70964285D01*
X61682380Y-70202380D02*
X61682380Y-69583333D01*
X62063333Y-69916666D01*
X62063333Y-69773809D01*
X62110952Y-69678571D01*
X62158571Y-69630952D01*
X62253809Y-69583333D01*
X62491904Y-69583333D01*
X62587142Y-69630952D01*
X62634761Y-69678571D01*
X62682380Y-69773809D01*
X62682380Y-70059523D01*
X62634761Y-70154761D01*
X62587142Y-70202380D01*
M02*
