G04 #@! TF.GenerationSoftware,KiCad,Pcbnew,(5.1.5-0-10_14)*
G04 #@! TF.CreationDate,2020-04-18T14:32:56+10:00*
G04 #@! TF.ProjectId,etch-a-sketch,65746368-2d61-42d7-936b-657463682e6b,rev?*
G04 #@! TF.SameCoordinates,Original*
G04 #@! TF.FileFunction,Soldermask,Bot*
G04 #@! TF.FilePolarity,Negative*
%FSLAX46Y46*%
G04 Gerber Fmt 4.6, Leading zero omitted, Abs format (unit mm)*
G04 Created by KiCad (PCBNEW (5.1.5-0-10_14)) date 2020-04-18 14:32:56*
%MOMM*%
%LPD*%
G04 APERTURE LIST*
%ADD10C,0.100000*%
G04 APERTURE END LIST*
D10*
G36*
X115548156Y-72672794D02*
G01*
X116269140Y-72816206D01*
X117060972Y-73144193D01*
X117773601Y-73620357D01*
X118379643Y-74226399D01*
X118855807Y-74939028D01*
X119183794Y-75730860D01*
X119351000Y-76571464D01*
X119351000Y-77428536D01*
X119183794Y-78269140D01*
X118855807Y-79060972D01*
X118379643Y-79773601D01*
X117773601Y-80379643D01*
X117060972Y-80855807D01*
X116269140Y-81183794D01*
X115548156Y-81327206D01*
X115428537Y-81351000D01*
X114571463Y-81351000D01*
X114451844Y-81327206D01*
X113730860Y-81183794D01*
X112939028Y-80855807D01*
X112226399Y-80379643D01*
X111620357Y-79773601D01*
X111144193Y-79060972D01*
X110816206Y-78269140D01*
X110649000Y-77428536D01*
X110649000Y-76571464D01*
X110816206Y-75730860D01*
X111144193Y-74939028D01*
X111620357Y-74226399D01*
X112226399Y-73620357D01*
X112939028Y-73144193D01*
X113730860Y-72816206D01*
X114451844Y-72672794D01*
X114571463Y-72649000D01*
X115428537Y-72649000D01*
X115548156Y-72672794D01*
G37*
G36*
X25548156Y-72672794D02*
G01*
X26269140Y-72816206D01*
X27060972Y-73144193D01*
X27773601Y-73620357D01*
X28379643Y-74226399D01*
X28855807Y-74939028D01*
X29183794Y-75730860D01*
X29351000Y-76571464D01*
X29351000Y-77428536D01*
X29183794Y-78269140D01*
X28855807Y-79060972D01*
X28379643Y-79773601D01*
X27773601Y-80379643D01*
X27060972Y-80855807D01*
X26269140Y-81183794D01*
X25548156Y-81327206D01*
X25428537Y-81351000D01*
X24571463Y-81351000D01*
X24451844Y-81327206D01*
X23730860Y-81183794D01*
X22939028Y-80855807D01*
X22226399Y-80379643D01*
X21620357Y-79773601D01*
X21144193Y-79060972D01*
X20816206Y-78269140D01*
X20649000Y-77428536D01*
X20649000Y-76571464D01*
X20816206Y-75730860D01*
X21144193Y-74939028D01*
X21620357Y-74226399D01*
X22226399Y-73620357D01*
X22939028Y-73144193D01*
X23730860Y-72816206D01*
X24451844Y-72672794D01*
X24571463Y-72649000D01*
X25428537Y-72649000D01*
X25548156Y-72672794D01*
G37*
G36*
X65901000Y-71151000D02*
G01*
X64099000Y-71151000D01*
X64099000Y-69349000D01*
X65901000Y-69349000D01*
X65901000Y-71151000D01*
G37*
G36*
X67653512Y-69353927D02*
G01*
X67802812Y-69383624D01*
X67966784Y-69451544D01*
X68114354Y-69550147D01*
X68239853Y-69675646D01*
X68338456Y-69823216D01*
X68406376Y-69987188D01*
X68441000Y-70161259D01*
X68441000Y-70338741D01*
X68406376Y-70512812D01*
X68338456Y-70676784D01*
X68239853Y-70824354D01*
X68114354Y-70949853D01*
X67966784Y-71048456D01*
X67802812Y-71116376D01*
X67653512Y-71146073D01*
X67628742Y-71151000D01*
X67451258Y-71151000D01*
X67426488Y-71146073D01*
X67277188Y-71116376D01*
X67113216Y-71048456D01*
X66965646Y-70949853D01*
X66840147Y-70824354D01*
X66741544Y-70676784D01*
X66673624Y-70512812D01*
X66639000Y-70338741D01*
X66639000Y-70161259D01*
X66673624Y-69987188D01*
X66741544Y-69823216D01*
X66840147Y-69675646D01*
X66965646Y-69550147D01*
X67113216Y-69451544D01*
X67277188Y-69383624D01*
X67426488Y-69353927D01*
X67451258Y-69349000D01*
X67628742Y-69349000D01*
X67653512Y-69353927D01*
G37*
G36*
X70193512Y-69353927D02*
G01*
X70342812Y-69383624D01*
X70506784Y-69451544D01*
X70654354Y-69550147D01*
X70779853Y-69675646D01*
X70878456Y-69823216D01*
X70946376Y-69987188D01*
X70981000Y-70161259D01*
X70981000Y-70338741D01*
X70946376Y-70512812D01*
X70878456Y-70676784D01*
X70779853Y-70824354D01*
X70654354Y-70949853D01*
X70506784Y-71048456D01*
X70342812Y-71116376D01*
X70193512Y-71146073D01*
X70168742Y-71151000D01*
X69991258Y-71151000D01*
X69966488Y-71146073D01*
X69817188Y-71116376D01*
X69653216Y-71048456D01*
X69505646Y-70949853D01*
X69380147Y-70824354D01*
X69281544Y-70676784D01*
X69213624Y-70512812D01*
X69179000Y-70338741D01*
X69179000Y-70161259D01*
X69213624Y-69987188D01*
X69281544Y-69823216D01*
X69380147Y-69675646D01*
X69505646Y-69550147D01*
X69653216Y-69451544D01*
X69817188Y-69383624D01*
X69966488Y-69353927D01*
X69991258Y-69349000D01*
X70168742Y-69349000D01*
X70193512Y-69353927D01*
G37*
G36*
X72733512Y-69353927D02*
G01*
X72882812Y-69383624D01*
X73046784Y-69451544D01*
X73194354Y-69550147D01*
X73319853Y-69675646D01*
X73418456Y-69823216D01*
X73486376Y-69987188D01*
X73521000Y-70161259D01*
X73521000Y-70338741D01*
X73486376Y-70512812D01*
X73418456Y-70676784D01*
X73319853Y-70824354D01*
X73194354Y-70949853D01*
X73046784Y-71048456D01*
X72882812Y-71116376D01*
X72733512Y-71146073D01*
X72708742Y-71151000D01*
X72531258Y-71151000D01*
X72506488Y-71146073D01*
X72357188Y-71116376D01*
X72193216Y-71048456D01*
X72045646Y-70949853D01*
X71920147Y-70824354D01*
X71821544Y-70676784D01*
X71753624Y-70512812D01*
X71719000Y-70338741D01*
X71719000Y-70161259D01*
X71753624Y-69987188D01*
X71821544Y-69823216D01*
X71920147Y-69675646D01*
X72045646Y-69550147D01*
X72193216Y-69451544D01*
X72357188Y-69383624D01*
X72506488Y-69353927D01*
X72531258Y-69349000D01*
X72708742Y-69349000D01*
X72733512Y-69353927D01*
G37*
G36*
X75273512Y-69353927D02*
G01*
X75422812Y-69383624D01*
X75586784Y-69451544D01*
X75734354Y-69550147D01*
X75859853Y-69675646D01*
X75958456Y-69823216D01*
X76026376Y-69987188D01*
X76061000Y-70161259D01*
X76061000Y-70338741D01*
X76026376Y-70512812D01*
X75958456Y-70676784D01*
X75859853Y-70824354D01*
X75734354Y-70949853D01*
X75586784Y-71048456D01*
X75422812Y-71116376D01*
X75273512Y-71146073D01*
X75248742Y-71151000D01*
X75071258Y-71151000D01*
X75046488Y-71146073D01*
X74897188Y-71116376D01*
X74733216Y-71048456D01*
X74585646Y-70949853D01*
X74460147Y-70824354D01*
X74361544Y-70676784D01*
X74293624Y-70512812D01*
X74259000Y-70338741D01*
X74259000Y-70161259D01*
X74293624Y-69987188D01*
X74361544Y-69823216D01*
X74460147Y-69675646D01*
X74585646Y-69550147D01*
X74733216Y-69451544D01*
X74897188Y-69383624D01*
X75046488Y-69353927D01*
X75071258Y-69349000D01*
X75248742Y-69349000D01*
X75273512Y-69353927D01*
G37*
G36*
X39651000Y-57651000D02*
G01*
X36349000Y-57651000D01*
X36349000Y-55549000D01*
X39651000Y-55549000D01*
X39651000Y-57651000D01*
G37*
G36*
X103651000Y-57651000D02*
G01*
X100349000Y-57651000D01*
X100349000Y-55549000D01*
X103651000Y-55549000D01*
X103651000Y-57651000D01*
G37*
G36*
X46551000Y-54551000D02*
G01*
X44449000Y-54551000D01*
X44449000Y-52449000D01*
X46551000Y-52449000D01*
X46551000Y-54551000D01*
G37*
G36*
X94806564Y-52489389D02*
G01*
X94997833Y-52568615D01*
X94997835Y-52568616D01*
X95169973Y-52683635D01*
X95316365Y-52830027D01*
X95431385Y-53002167D01*
X95510611Y-53193436D01*
X95551000Y-53396484D01*
X95551000Y-53603516D01*
X95510611Y-53806564D01*
X95431385Y-53997833D01*
X95431384Y-53997835D01*
X95316365Y-54169973D01*
X95169973Y-54316365D01*
X94997835Y-54431384D01*
X94997834Y-54431385D01*
X94997833Y-54431385D01*
X94806564Y-54510611D01*
X94603516Y-54551000D01*
X94396484Y-54551000D01*
X94193436Y-54510611D01*
X94002167Y-54431385D01*
X94002166Y-54431385D01*
X94002165Y-54431384D01*
X93830027Y-54316365D01*
X93683635Y-54169973D01*
X93568616Y-53997835D01*
X93568615Y-53997833D01*
X93489389Y-53806564D01*
X93449000Y-53603516D01*
X93449000Y-53396484D01*
X93489389Y-53193436D01*
X93568615Y-53002167D01*
X93683635Y-52830027D01*
X93830027Y-52683635D01*
X94002165Y-52568616D01*
X94002167Y-52568615D01*
X94193436Y-52489389D01*
X94396484Y-52449000D01*
X94603516Y-52449000D01*
X94806564Y-52489389D01*
G37*
G36*
X109306564Y-52489389D02*
G01*
X109497833Y-52568615D01*
X109497835Y-52568616D01*
X109669973Y-52683635D01*
X109816365Y-52830027D01*
X109931385Y-53002167D01*
X110010611Y-53193436D01*
X110051000Y-53396484D01*
X110051000Y-53603516D01*
X110010611Y-53806564D01*
X109931385Y-53997833D01*
X109931384Y-53997835D01*
X109816365Y-54169973D01*
X109669973Y-54316365D01*
X109497835Y-54431384D01*
X109497834Y-54431385D01*
X109497833Y-54431385D01*
X109306564Y-54510611D01*
X109103516Y-54551000D01*
X108896484Y-54551000D01*
X108693436Y-54510611D01*
X108502167Y-54431385D01*
X108502166Y-54431385D01*
X108502165Y-54431384D01*
X108330027Y-54316365D01*
X108183635Y-54169973D01*
X108068616Y-53997835D01*
X108068615Y-53997833D01*
X107989389Y-53806564D01*
X107949000Y-53603516D01*
X107949000Y-53396484D01*
X107989389Y-53193436D01*
X108068615Y-53002167D01*
X108183635Y-52830027D01*
X108330027Y-52683635D01*
X108502165Y-52568616D01*
X108502167Y-52568615D01*
X108693436Y-52489389D01*
X108896484Y-52449000D01*
X109103516Y-52449000D01*
X109306564Y-52489389D01*
G37*
G36*
X31306564Y-52489389D02*
G01*
X31497833Y-52568615D01*
X31497835Y-52568616D01*
X31669973Y-52683635D01*
X31816365Y-52830027D01*
X31931385Y-53002167D01*
X32010611Y-53193436D01*
X32051000Y-53396484D01*
X32051000Y-53603516D01*
X32010611Y-53806564D01*
X31931385Y-53997833D01*
X31931384Y-53997835D01*
X31816365Y-54169973D01*
X31669973Y-54316365D01*
X31497835Y-54431384D01*
X31497834Y-54431385D01*
X31497833Y-54431385D01*
X31306564Y-54510611D01*
X31103516Y-54551000D01*
X30896484Y-54551000D01*
X30693436Y-54510611D01*
X30502167Y-54431385D01*
X30502166Y-54431385D01*
X30502165Y-54431384D01*
X30330027Y-54316365D01*
X30183635Y-54169973D01*
X30068616Y-53997835D01*
X30068615Y-53997833D01*
X29989389Y-53806564D01*
X29949000Y-53603516D01*
X29949000Y-53396484D01*
X29989389Y-53193436D01*
X30068615Y-53002167D01*
X30183635Y-52830027D01*
X30330027Y-52683635D01*
X30502165Y-52568616D01*
X30502167Y-52568615D01*
X30693436Y-52489389D01*
X30896484Y-52449000D01*
X31103516Y-52449000D01*
X31306564Y-52489389D01*
G37*
G36*
X94806564Y-49989389D02*
G01*
X94997833Y-50068615D01*
X94997835Y-50068616D01*
X95169973Y-50183635D01*
X95316365Y-50330027D01*
X95431385Y-50502167D01*
X95510611Y-50693436D01*
X95551000Y-50896484D01*
X95551000Y-51103516D01*
X95510611Y-51306564D01*
X95431385Y-51497833D01*
X95431384Y-51497835D01*
X95316365Y-51669973D01*
X95169973Y-51816365D01*
X94997835Y-51931384D01*
X94997834Y-51931385D01*
X94997833Y-51931385D01*
X94806564Y-52010611D01*
X94603516Y-52051000D01*
X94396484Y-52051000D01*
X94193436Y-52010611D01*
X94002167Y-51931385D01*
X94002166Y-51931385D01*
X94002165Y-51931384D01*
X93830027Y-51816365D01*
X93683635Y-51669973D01*
X93568616Y-51497835D01*
X93568615Y-51497833D01*
X93489389Y-51306564D01*
X93449000Y-51103516D01*
X93449000Y-50896484D01*
X93489389Y-50693436D01*
X93568615Y-50502167D01*
X93683635Y-50330027D01*
X93830027Y-50183635D01*
X94002165Y-50068616D01*
X94002167Y-50068615D01*
X94193436Y-49989389D01*
X94396484Y-49949000D01*
X94603516Y-49949000D01*
X94806564Y-49989389D01*
G37*
G36*
X45806564Y-49989389D02*
G01*
X45997833Y-50068615D01*
X45997835Y-50068616D01*
X46169973Y-50183635D01*
X46316365Y-50330027D01*
X46431385Y-50502167D01*
X46510611Y-50693436D01*
X46551000Y-50896484D01*
X46551000Y-51103516D01*
X46510611Y-51306564D01*
X46431385Y-51497833D01*
X46431384Y-51497835D01*
X46316365Y-51669973D01*
X46169973Y-51816365D01*
X45997835Y-51931384D01*
X45997834Y-51931385D01*
X45997833Y-51931385D01*
X45806564Y-52010611D01*
X45603516Y-52051000D01*
X45396484Y-52051000D01*
X45193436Y-52010611D01*
X45002167Y-51931385D01*
X45002166Y-51931385D01*
X45002165Y-51931384D01*
X44830027Y-51816365D01*
X44683635Y-51669973D01*
X44568616Y-51497835D01*
X44568615Y-51497833D01*
X44489389Y-51306564D01*
X44449000Y-51103516D01*
X44449000Y-50896484D01*
X44489389Y-50693436D01*
X44568615Y-50502167D01*
X44683635Y-50330027D01*
X44830027Y-50183635D01*
X45002165Y-50068616D01*
X45002167Y-50068615D01*
X45193436Y-49989389D01*
X45396484Y-49949000D01*
X45603516Y-49949000D01*
X45806564Y-49989389D01*
G37*
G36*
X109306564Y-47489389D02*
G01*
X109497833Y-47568615D01*
X109497835Y-47568616D01*
X109669973Y-47683635D01*
X109816365Y-47830027D01*
X109931385Y-48002167D01*
X110010611Y-48193436D01*
X110051000Y-48396484D01*
X110051000Y-48603516D01*
X110010611Y-48806564D01*
X109931385Y-48997833D01*
X109931384Y-48997835D01*
X109816365Y-49169973D01*
X109669973Y-49316365D01*
X109497835Y-49431384D01*
X109497834Y-49431385D01*
X109497833Y-49431385D01*
X109306564Y-49510611D01*
X109103516Y-49551000D01*
X108896484Y-49551000D01*
X108693436Y-49510611D01*
X108502167Y-49431385D01*
X108502166Y-49431385D01*
X108502165Y-49431384D01*
X108330027Y-49316365D01*
X108183635Y-49169973D01*
X108068616Y-48997835D01*
X108068615Y-48997833D01*
X107989389Y-48806564D01*
X107949000Y-48603516D01*
X107949000Y-48396484D01*
X107989389Y-48193436D01*
X108068615Y-48002167D01*
X108183635Y-47830027D01*
X108330027Y-47683635D01*
X108502165Y-47568616D01*
X108502167Y-47568615D01*
X108693436Y-47489389D01*
X108896484Y-47449000D01*
X109103516Y-47449000D01*
X109306564Y-47489389D01*
G37*
G36*
X45806564Y-47489389D02*
G01*
X45997833Y-47568615D01*
X45997835Y-47568616D01*
X46169973Y-47683635D01*
X46316365Y-47830027D01*
X46431385Y-48002167D01*
X46510611Y-48193436D01*
X46551000Y-48396484D01*
X46551000Y-48603516D01*
X46510611Y-48806564D01*
X46431385Y-48997833D01*
X46431384Y-48997835D01*
X46316365Y-49169973D01*
X46169973Y-49316365D01*
X45997835Y-49431384D01*
X45997834Y-49431385D01*
X45997833Y-49431385D01*
X45806564Y-49510611D01*
X45603516Y-49551000D01*
X45396484Y-49551000D01*
X45193436Y-49510611D01*
X45002167Y-49431385D01*
X45002166Y-49431385D01*
X45002165Y-49431384D01*
X44830027Y-49316365D01*
X44683635Y-49169973D01*
X44568616Y-48997835D01*
X44568615Y-48997833D01*
X44489389Y-48806564D01*
X44449000Y-48603516D01*
X44449000Y-48396484D01*
X44489389Y-48193436D01*
X44568615Y-48002167D01*
X44683635Y-47830027D01*
X44830027Y-47683635D01*
X45002165Y-47568616D01*
X45002167Y-47568615D01*
X45193436Y-47489389D01*
X45396484Y-47449000D01*
X45603516Y-47449000D01*
X45806564Y-47489389D01*
G37*
G36*
X31306564Y-47489389D02*
G01*
X31497833Y-47568615D01*
X31497835Y-47568616D01*
X31669973Y-47683635D01*
X31816365Y-47830027D01*
X31931385Y-48002167D01*
X32010611Y-48193436D01*
X32051000Y-48396484D01*
X32051000Y-48603516D01*
X32010611Y-48806564D01*
X31931385Y-48997833D01*
X31931384Y-48997835D01*
X31816365Y-49169973D01*
X31669973Y-49316365D01*
X31497835Y-49431384D01*
X31497834Y-49431385D01*
X31497833Y-49431385D01*
X31306564Y-49510611D01*
X31103516Y-49551000D01*
X30896484Y-49551000D01*
X30693436Y-49510611D01*
X30502167Y-49431385D01*
X30502166Y-49431385D01*
X30502165Y-49431384D01*
X30330027Y-49316365D01*
X30183635Y-49169973D01*
X30068616Y-48997835D01*
X30068615Y-48997833D01*
X29989389Y-48806564D01*
X29949000Y-48603516D01*
X29949000Y-48396484D01*
X29989389Y-48193436D01*
X30068615Y-48002167D01*
X30183635Y-47830027D01*
X30330027Y-47683635D01*
X30502165Y-47568616D01*
X30502167Y-47568615D01*
X30693436Y-47489389D01*
X30896484Y-47449000D01*
X31103516Y-47449000D01*
X31306564Y-47489389D01*
G37*
G36*
X95551000Y-49551000D02*
G01*
X93449000Y-49551000D01*
X93449000Y-47449000D01*
X95551000Y-47449000D01*
X95551000Y-49551000D01*
G37*
G36*
X103651000Y-46451000D02*
G01*
X100349000Y-46451000D01*
X100349000Y-44349000D01*
X103651000Y-44349000D01*
X103651000Y-46451000D01*
G37*
G36*
X39651000Y-46451000D02*
G01*
X36349000Y-46451000D01*
X36349000Y-44349000D01*
X39651000Y-44349000D01*
X39651000Y-46451000D01*
G37*
G36*
X115548156Y-20672794D02*
G01*
X116269140Y-20816206D01*
X117060972Y-21144193D01*
X117773601Y-21620357D01*
X118379643Y-22226399D01*
X118855807Y-22939028D01*
X119183794Y-23730860D01*
X119351000Y-24571464D01*
X119351000Y-25428536D01*
X119183794Y-26269140D01*
X118855807Y-27060972D01*
X118379643Y-27773601D01*
X117773601Y-28379643D01*
X117060972Y-28855807D01*
X116269140Y-29183794D01*
X115548156Y-29327206D01*
X115428537Y-29351000D01*
X114571463Y-29351000D01*
X114451844Y-29327206D01*
X113730860Y-29183794D01*
X112939028Y-28855807D01*
X112226399Y-28379643D01*
X111620357Y-27773601D01*
X111144193Y-27060972D01*
X110816206Y-26269140D01*
X110649000Y-25428536D01*
X110649000Y-24571464D01*
X110816206Y-23730860D01*
X111144193Y-22939028D01*
X111620357Y-22226399D01*
X112226399Y-21620357D01*
X112939028Y-21144193D01*
X113730860Y-20816206D01*
X114451844Y-20672794D01*
X114571463Y-20649000D01*
X115428537Y-20649000D01*
X115548156Y-20672794D01*
G37*
G36*
X25548156Y-20672794D02*
G01*
X26269140Y-20816206D01*
X27060972Y-21144193D01*
X27773601Y-21620357D01*
X28379643Y-22226399D01*
X28855807Y-22939028D01*
X29183794Y-23730860D01*
X29351000Y-24571464D01*
X29351000Y-25428536D01*
X29183794Y-26269140D01*
X28855807Y-27060972D01*
X28379643Y-27773601D01*
X27773601Y-28379643D01*
X27060972Y-28855807D01*
X26269140Y-29183794D01*
X25548156Y-29327206D01*
X25428537Y-29351000D01*
X24571463Y-29351000D01*
X24451844Y-29327206D01*
X23730860Y-29183794D01*
X22939028Y-28855807D01*
X22226399Y-28379643D01*
X21620357Y-27773601D01*
X21144193Y-27060972D01*
X20816206Y-26269140D01*
X20649000Y-25428536D01*
X20649000Y-24571464D01*
X20816206Y-23730860D01*
X21144193Y-22939028D01*
X21620357Y-22226399D01*
X22226399Y-21620357D01*
X22939028Y-21144193D01*
X23730860Y-20816206D01*
X24451844Y-20672794D01*
X24571463Y-20649000D01*
X25428537Y-20649000D01*
X25548156Y-20672794D01*
G37*
G36*
X67631552Y-25366331D02*
G01*
X67713627Y-25400328D01*
X67713629Y-25400329D01*
X67750813Y-25425175D01*
X67787495Y-25449685D01*
X67850315Y-25512505D01*
X67899672Y-25586373D01*
X67933669Y-25668448D01*
X67951000Y-25755579D01*
X67951000Y-25844421D01*
X67933669Y-25931552D01*
X67899672Y-26013627D01*
X67850399Y-26087370D01*
X67850314Y-26087496D01*
X67787496Y-26150314D01*
X67713629Y-26199671D01*
X67713628Y-26199672D01*
X67713627Y-26199672D01*
X67631552Y-26233669D01*
X67544421Y-26251000D01*
X67455579Y-26251000D01*
X67368448Y-26233669D01*
X67286373Y-26199672D01*
X67286372Y-26199672D01*
X67286371Y-26199671D01*
X67212504Y-26150314D01*
X67196952Y-26134762D01*
X67178010Y-26119217D01*
X67156399Y-26107666D01*
X67132950Y-26100553D01*
X67108564Y-26098151D01*
X67084178Y-26100553D01*
X67060729Y-26107666D01*
X67039118Y-26119217D01*
X67020176Y-26134762D01*
X67004631Y-26153704D01*
X66993080Y-26175315D01*
X66985967Y-26198764D01*
X66983565Y-26223150D01*
X66985967Y-26247536D01*
X66993080Y-26270985D01*
X66994796Y-26274614D01*
X67039772Y-26422879D01*
X67051000Y-26536882D01*
X67051000Y-27163118D01*
X67039772Y-27277121D01*
X66995398Y-27423402D01*
X66923345Y-27558204D01*
X66826367Y-27676372D01*
X66708206Y-27773343D01*
X66573401Y-27845398D01*
X66427120Y-27889772D01*
X66275000Y-27904754D01*
X66122879Y-27889772D01*
X65976598Y-27845398D01*
X65841796Y-27773345D01*
X65723628Y-27676367D01*
X65626657Y-27558206D01*
X65554602Y-27423401D01*
X65510228Y-27277120D01*
X65499000Y-27163117D01*
X65499000Y-26536882D01*
X65510228Y-26422879D01*
X65554601Y-26276600D01*
X65626657Y-26141794D01*
X65723632Y-26023631D01*
X65765363Y-25989383D01*
X65841793Y-25926658D01*
X65841794Y-25926657D01*
X65841797Y-25926655D01*
X65976599Y-25854602D01*
X66122880Y-25810228D01*
X66275000Y-25795246D01*
X66427121Y-25810228D01*
X66573402Y-25854602D01*
X66708204Y-25926655D01*
X66826372Y-26023633D01*
X66853288Y-26056430D01*
X66870615Y-26073757D01*
X66890989Y-26087370D01*
X66913628Y-26096748D01*
X66937661Y-26101528D01*
X66962165Y-26101528D01*
X66986199Y-26096748D01*
X67008837Y-26087370D01*
X67029212Y-26073756D01*
X67046539Y-26056429D01*
X67060152Y-26036055D01*
X67069530Y-26013416D01*
X67074310Y-25989383D01*
X67074310Y-25964879D01*
X67069530Y-25940845D01*
X67066490Y-25932351D01*
X67049000Y-25844421D01*
X67049000Y-25755579D01*
X67066331Y-25668448D01*
X67100328Y-25586373D01*
X67149685Y-25512505D01*
X67212505Y-25449685D01*
X67249187Y-25425175D01*
X67286371Y-25400329D01*
X67286373Y-25400328D01*
X67368448Y-25366331D01*
X67455579Y-25349000D01*
X67544421Y-25349000D01*
X67631552Y-25366331D01*
G37*
G36*
X72631552Y-25366331D02*
G01*
X72713627Y-25400328D01*
X72713629Y-25400329D01*
X72750813Y-25425175D01*
X72787495Y-25449685D01*
X72850315Y-25512505D01*
X72899672Y-25586373D01*
X72933669Y-25668448D01*
X72951000Y-25755579D01*
X72951000Y-25844421D01*
X72933193Y-25933946D01*
X72927490Y-25952743D01*
X72925087Y-25977129D01*
X72927488Y-26001515D01*
X72934600Y-26024964D01*
X72946151Y-26046575D01*
X72961695Y-26065518D01*
X72980637Y-26081063D01*
X73002247Y-26092615D01*
X73025696Y-26099729D01*
X73050082Y-26102132D01*
X73074468Y-26099731D01*
X73097917Y-26092619D01*
X73119528Y-26081068D01*
X73138471Y-26065524D01*
X73146711Y-26056432D01*
X73173628Y-26023634D01*
X73291797Y-25926655D01*
X73426599Y-25854602D01*
X73572880Y-25810228D01*
X73725000Y-25795246D01*
X73877121Y-25810228D01*
X74023402Y-25854602D01*
X74158204Y-25926655D01*
X74158207Y-25926657D01*
X74158208Y-25926658D01*
X74276369Y-26023631D01*
X74367573Y-26134762D01*
X74373345Y-26141796D01*
X74445398Y-26276598D01*
X74489772Y-26422879D01*
X74501000Y-26536882D01*
X74501000Y-27163118D01*
X74489772Y-27277121D01*
X74445398Y-27423402D01*
X74373345Y-27558204D01*
X74276367Y-27676372D01*
X74158206Y-27773343D01*
X74023401Y-27845398D01*
X73877120Y-27889772D01*
X73725000Y-27904754D01*
X73572879Y-27889772D01*
X73426598Y-27845398D01*
X73291796Y-27773345D01*
X73173628Y-27676367D01*
X73076657Y-27558206D01*
X73004602Y-27423401D01*
X72960228Y-27277120D01*
X72949000Y-27163117D01*
X72949000Y-26536882D01*
X72960228Y-26422879D01*
X73006402Y-26270664D01*
X73011052Y-26259439D01*
X73015833Y-26235405D01*
X73015833Y-26210901D01*
X73011054Y-26186868D01*
X73001677Y-26164229D01*
X72988064Y-26143854D01*
X72970737Y-26126527D01*
X72950363Y-26112912D01*
X72927725Y-26103534D01*
X72903691Y-26098753D01*
X72879187Y-26098753D01*
X72855154Y-26103532D01*
X72832515Y-26112909D01*
X72812140Y-26126522D01*
X72803048Y-26134762D01*
X72787496Y-26150314D01*
X72713629Y-26199671D01*
X72713628Y-26199672D01*
X72713627Y-26199672D01*
X72631552Y-26233669D01*
X72544421Y-26251000D01*
X72455579Y-26251000D01*
X72368448Y-26233669D01*
X72286373Y-26199672D01*
X72286372Y-26199672D01*
X72286371Y-26199671D01*
X72212504Y-26150314D01*
X72149686Y-26087496D01*
X72149602Y-26087370D01*
X72100328Y-26013627D01*
X72066331Y-25931552D01*
X72049000Y-25844421D01*
X72049000Y-25755579D01*
X72066331Y-25668448D01*
X72100328Y-25586373D01*
X72149685Y-25512505D01*
X72212505Y-25449685D01*
X72249187Y-25425175D01*
X72286371Y-25400329D01*
X72286373Y-25400328D01*
X72368448Y-25366331D01*
X72455579Y-25349000D01*
X72544421Y-25349000D01*
X72631552Y-25366331D01*
G37*
G36*
X89901000Y-24701000D02*
G01*
X88099000Y-24701000D01*
X88099000Y-22899000D01*
X89901000Y-22899000D01*
X89901000Y-24701000D01*
G37*
G36*
X91653512Y-22903927D02*
G01*
X91802812Y-22933624D01*
X91966784Y-23001544D01*
X92114354Y-23100147D01*
X92239853Y-23225646D01*
X92338456Y-23373216D01*
X92406376Y-23537188D01*
X92441000Y-23711259D01*
X92441000Y-23888741D01*
X92406376Y-24062812D01*
X92338456Y-24226784D01*
X92239853Y-24374354D01*
X92114354Y-24499853D01*
X91966784Y-24598456D01*
X91802812Y-24666376D01*
X91653512Y-24696073D01*
X91628742Y-24701000D01*
X91451258Y-24701000D01*
X91426488Y-24696073D01*
X91277188Y-24666376D01*
X91113216Y-24598456D01*
X90965646Y-24499853D01*
X90840147Y-24374354D01*
X90741544Y-24226784D01*
X90673624Y-24062812D01*
X90639000Y-23888741D01*
X90639000Y-23711259D01*
X90673624Y-23537188D01*
X90741544Y-23373216D01*
X90840147Y-23225646D01*
X90965646Y-23100147D01*
X91113216Y-23001544D01*
X91277188Y-22933624D01*
X91426488Y-22903927D01*
X91451258Y-22899000D01*
X91628742Y-22899000D01*
X91653512Y-22903927D01*
G37*
G36*
X66247715Y-22108058D02*
G01*
X66365722Y-22143855D01*
X66474468Y-22201981D01*
X66569790Y-22280210D01*
X66648019Y-22375532D01*
X66706145Y-22484278D01*
X66741942Y-22602285D01*
X66751000Y-22694254D01*
X66751000Y-23405746D01*
X66741942Y-23497715D01*
X66706145Y-23615722D01*
X66648019Y-23724468D01*
X66569790Y-23819790D01*
X66474468Y-23898019D01*
X66365721Y-23956145D01*
X66247714Y-23991942D01*
X66125000Y-24004028D01*
X66002285Y-23991942D01*
X65884278Y-23956145D01*
X65775532Y-23898019D01*
X65680210Y-23819790D01*
X65601981Y-23724468D01*
X65543855Y-23615721D01*
X65508058Y-23497714D01*
X65499000Y-23405745D01*
X65499000Y-22694254D01*
X65508058Y-22602285D01*
X65543855Y-22484279D01*
X65601982Y-22375532D01*
X65680211Y-22280210D01*
X65775533Y-22201981D01*
X65884279Y-22143855D01*
X66002286Y-22108058D01*
X66125000Y-22095972D01*
X66247715Y-22108058D01*
G37*
G36*
X73997715Y-22108058D02*
G01*
X74115722Y-22143855D01*
X74224468Y-22201981D01*
X74319790Y-22280210D01*
X74398019Y-22375532D01*
X74456145Y-22484278D01*
X74491942Y-22602285D01*
X74501000Y-22694254D01*
X74501000Y-23405746D01*
X74491942Y-23497715D01*
X74456145Y-23615722D01*
X74398019Y-23724468D01*
X74319790Y-23819790D01*
X74224468Y-23898019D01*
X74115721Y-23956145D01*
X73997714Y-23991942D01*
X73875000Y-24004028D01*
X73752285Y-23991942D01*
X73634278Y-23956145D01*
X73525532Y-23898019D01*
X73430210Y-23819790D01*
X73351981Y-23724468D01*
X73293855Y-23615721D01*
X73258058Y-23497714D01*
X73249000Y-23405745D01*
X73249000Y-22694254D01*
X73258058Y-22602285D01*
X73293855Y-22484279D01*
X73351982Y-22375532D01*
X73430211Y-22280210D01*
X73525533Y-22201981D01*
X73634279Y-22143855D01*
X73752286Y-22108058D01*
X73875000Y-22095972D01*
X73997715Y-22108058D01*
G37*
M02*
