M48
; DRILL file {KiCad (5.1.5-0-10_14)} date Saturday, 18 April 2020 at 07:02:35 pm
; FORMAT={3:3/ absolute / metric / suppress leading zeros}
; #@! TF.CreationDate,2020-04-18T19:02:35+10:00
; #@! TF.GenerationSoftware,Kicad,Pcbnew,(5.1.5-0-10_14)
FMAT,2
METRIC,TZ
T1C0.400
T2C0.500
T3C0.550
T4C0.600
T5C0.650
T6C0.800
T7C1.000
T8C1.500
T9C4.300
%
G90
G05
T1
X24250Y-32750
X24250Y-37750
X24250Y-42750
X24250Y-47750
X24250Y-52750
X24250Y-57750
X24250Y-62750
X24250Y-67750
X29250Y-32750
X29250Y-37750
X29250Y-42750
X29250Y-62750
X29250Y-67750
X34250Y-22750
X34250Y-27750
X34250Y-32750
X34250Y-37750
X34250Y-42750
X34250Y-62750
X34250Y-67750
X34250Y-72750
X39250Y-22750
X39250Y-27750
X39250Y-32750
X39250Y-37750
X39250Y-62750
X39250Y-67750
X39250Y-72750
X44250Y-22750
X44250Y-27750
X44250Y-32750
X44250Y-37750
X44250Y-42750
X44250Y-62750
X44250Y-67750
X44250Y-72750
X47500Y-51000
X49250Y-22750
X49250Y-27750
X49250Y-32750
X49250Y-37750
X49250Y-42750
X49250Y-57750
X49250Y-62750
X49250Y-67750
X49250Y-72750
X54250Y-22750
X54250Y-27750
X54250Y-32750
X54250Y-37750
X54250Y-42750
X54250Y-57750
X54250Y-62750
X54250Y-67750
X54250Y-72750
X56250Y-53750
X58000Y-52250
X59250Y-22750
X59250Y-27750
X59250Y-32750
X59250Y-37750
X59250Y-62750
X59250Y-67750
X59250Y-72750
X59250Y-77750
X60800Y-45900
X61250Y-43500
X61750Y-47250
X62250Y-52250
X62700Y-42000
X64000Y-45000
X64000Y-46250
X64250Y-62750
X64250Y-77750
X65250Y-58250
X66250Y-52750
X66250Y-53832
X66500Y-42500
X67500Y-47750
X68500Y-47250
X68500Y-58250
X69250Y-77750
X69500Y-42750
X71250Y-51250
X71750Y-60500
X72250Y-52000
X73750Y-49250
X74250Y-62750
X74250Y-77750
X74750Y-60250
X76000Y-56750
X76000Y-57750
X77750Y-56500
X78000Y-49750
X78000Y-51250
X78500Y-46500
X78500Y-47500
X79250Y-22750
X79250Y-27750
X79250Y-58000
X79250Y-62750
X79250Y-67750
X79250Y-72750
X79250Y-77750
X79700Y-37100
X84250Y-22750
X84250Y-27750
X84250Y-57750
X84250Y-62750
X84250Y-67750
X84250Y-72750
X84250Y-77750
X89250Y-37750
X89250Y-42750
X89250Y-47750
X89250Y-57750
X89250Y-62750
X89250Y-67750
X89250Y-72750
X89250Y-77750
X92500Y-51000
X94250Y-37750
X94250Y-42750
X94250Y-62750
X94250Y-67750
X94250Y-72750
X94250Y-77750
X99250Y-32750
X99250Y-37750
X99250Y-42750
X99250Y-62750
X99250Y-67750
X99250Y-72750
X99250Y-77750
X103850Y-23150
X103850Y-25650
X103850Y-27050
X103850Y-28250
X104250Y-32750
X104250Y-37750
X104250Y-62750
X104250Y-67750
X104250Y-72750
X104250Y-77750
X109250Y-32750
X109250Y-37750
X109250Y-42750
X109250Y-62750
X109250Y-67750
X109250Y-72750
X109250Y-77750
X114250Y-32750
X114250Y-37750
X114250Y-42750
X114250Y-47750
X114250Y-52750
X114250Y-57750
X114250Y-62750
X114250Y-67750
T4
X111775Y-77000
X112720Y-74720
X112720Y-79280
X115000Y-73775
X115000Y-80225
X117280Y-74720
X117280Y-79280
X118225Y-77000
X21775Y-77000
X22720Y-74720
X22720Y-79280
X25000Y-73775
X25000Y-80225
X27280Y-74720
X27280Y-79280
X28225Y-77000
X111775Y-25000
X112720Y-22720
X112720Y-27280
X115000Y-21775
X115000Y-28225
X117280Y-22720
X117280Y-27280
X118225Y-25000
X21775Y-25000
X22720Y-22720
X22720Y-27280
X25000Y-21775
X25000Y-28225
X27280Y-22720
X27280Y-27280
X28225Y-25000
T5
X100230Y-23170
X100230Y-24440
X100230Y-25710
X100230Y-26980
X100230Y-28250
X101500Y-23170
X101500Y-24440
X101500Y-25710
X101500Y-26980
X101500Y-28250
T6
X67700Y-31350
X67700Y-32600
X67700Y-33850
X68950Y-27200
X68950Y-31350
X68950Y-32600
X68950Y-33850
X72950Y-31850
X72950Y-33100
X72950Y-36100
X75450Y-33100
X75450Y-36100
X76950Y-31600
X76950Y-37350
T7
X89000Y-23800
X91540Y-23800
X65000Y-70250
X67540Y-70250
X70080Y-70250
X72620Y-70250
X75160Y-70250
X31000Y-48500
X31000Y-53500
X45500Y-48500
X45500Y-51000
X45500Y-53500
X94500Y-48500
X94500Y-51000
X94500Y-53500
X109000Y-48500
X109000Y-53500
T9
X25000Y-25000
X115000Y-77000
X25000Y-77000
X115000Y-25000
T2
G00X66500Y-22875
M15
G01X66500Y-22225
M16
G05
G00X73500Y-22875
M15
G01X73500Y-22225
M16
G05
T3
G00X67650Y-25250
M15
G01X67350Y-25250
M16
G05
G00X72650Y-25250
M15
G01X72350Y-25250
M16
G05
T8
G00X38650Y-45400
M15
G01X37350Y-45400
M16
G05
G00X38650Y-56600
M15
G01X37350Y-56600
M16
G05
G00X101350Y-45400
M15
G01X102650Y-45400
M16
G05
G00X101350Y-56600
M15
G01X102650Y-56600
M16
G05
T0
M30
