G04 #@! TF.GenerationSoftware,KiCad,Pcbnew,(5.1.5-0-10_14)*
G04 #@! TF.CreationDate,2020-04-18T16:35:32+10:00*
G04 #@! TF.ProjectId,etch-a-sketch,65746368-2d61-42d7-936b-657463682e6b,rev?*
G04 #@! TF.SameCoordinates,Original*
G04 #@! TF.FileFunction,Soldermask,Top*
G04 #@! TF.FilePolarity,Negative*
%FSLAX46Y46*%
G04 Gerber Fmt 4.6, Leading zero omitted, Abs format (unit mm)*
G04 Created by KiCad (PCBNEW (5.1.5-0-10_14)) date 2020-04-18 16:35:32*
%MOMM*%
%LPD*%
G04 APERTURE LIST*
%ADD10C,0.100000*%
G04 APERTURE END LIST*
D10*
G36*
X115548156Y-72672794D02*
G01*
X116269140Y-72816206D01*
X117060972Y-73144193D01*
X117773601Y-73620357D01*
X118379643Y-74226399D01*
X118855807Y-74939028D01*
X119183794Y-75730860D01*
X119351000Y-76571464D01*
X119351000Y-77428536D01*
X119183794Y-78269140D01*
X118855807Y-79060972D01*
X118379643Y-79773601D01*
X117773601Y-80379643D01*
X117060972Y-80855807D01*
X116269140Y-81183794D01*
X115548156Y-81327206D01*
X115428537Y-81351000D01*
X114571463Y-81351000D01*
X114451844Y-81327206D01*
X113730860Y-81183794D01*
X112939028Y-80855807D01*
X112226399Y-80379643D01*
X111620357Y-79773601D01*
X111144193Y-79060972D01*
X110816206Y-78269140D01*
X110649000Y-77428536D01*
X110649000Y-76571464D01*
X110816206Y-75730860D01*
X111144193Y-74939028D01*
X111620357Y-74226399D01*
X112226399Y-73620357D01*
X112939028Y-73144193D01*
X113730860Y-72816206D01*
X114451844Y-72672794D01*
X114571463Y-72649000D01*
X115428537Y-72649000D01*
X115548156Y-72672794D01*
G37*
G36*
X25548156Y-72672794D02*
G01*
X26269140Y-72816206D01*
X27060972Y-73144193D01*
X27773601Y-73620357D01*
X28379643Y-74226399D01*
X28855807Y-74939028D01*
X29183794Y-75730860D01*
X29351000Y-76571464D01*
X29351000Y-77428536D01*
X29183794Y-78269140D01*
X28855807Y-79060972D01*
X28379643Y-79773601D01*
X27773601Y-80379643D01*
X27060972Y-80855807D01*
X26269140Y-81183794D01*
X25548156Y-81327206D01*
X25428537Y-81351000D01*
X24571463Y-81351000D01*
X24451844Y-81327206D01*
X23730860Y-81183794D01*
X22939028Y-80855807D01*
X22226399Y-80379643D01*
X21620357Y-79773601D01*
X21144193Y-79060972D01*
X20816206Y-78269140D01*
X20649000Y-77428536D01*
X20649000Y-76571464D01*
X20816206Y-75730860D01*
X21144193Y-74939028D01*
X21620357Y-74226399D01*
X22226399Y-73620357D01*
X22939028Y-73144193D01*
X23730860Y-72816206D01*
X24451844Y-72672794D01*
X24571463Y-72649000D01*
X25428537Y-72649000D01*
X25548156Y-72672794D01*
G37*
G36*
X67653512Y-69353927D02*
G01*
X67802812Y-69383624D01*
X67966784Y-69451544D01*
X68114354Y-69550147D01*
X68239853Y-69675646D01*
X68338456Y-69823216D01*
X68406376Y-69987188D01*
X68441000Y-70161259D01*
X68441000Y-70338741D01*
X68406376Y-70512812D01*
X68338456Y-70676784D01*
X68239853Y-70824354D01*
X68114354Y-70949853D01*
X67966784Y-71048456D01*
X67802812Y-71116376D01*
X67653512Y-71146073D01*
X67628742Y-71151000D01*
X67451258Y-71151000D01*
X67426488Y-71146073D01*
X67277188Y-71116376D01*
X67113216Y-71048456D01*
X66965646Y-70949853D01*
X66840147Y-70824354D01*
X66741544Y-70676784D01*
X66673624Y-70512812D01*
X66639000Y-70338741D01*
X66639000Y-70161259D01*
X66673624Y-69987188D01*
X66741544Y-69823216D01*
X66840147Y-69675646D01*
X66965646Y-69550147D01*
X67113216Y-69451544D01*
X67277188Y-69383624D01*
X67426488Y-69353927D01*
X67451258Y-69349000D01*
X67628742Y-69349000D01*
X67653512Y-69353927D01*
G37*
G36*
X70193512Y-69353927D02*
G01*
X70342812Y-69383624D01*
X70506784Y-69451544D01*
X70654354Y-69550147D01*
X70779853Y-69675646D01*
X70878456Y-69823216D01*
X70946376Y-69987188D01*
X70981000Y-70161259D01*
X70981000Y-70338741D01*
X70946376Y-70512812D01*
X70878456Y-70676784D01*
X70779853Y-70824354D01*
X70654354Y-70949853D01*
X70506784Y-71048456D01*
X70342812Y-71116376D01*
X70193512Y-71146073D01*
X70168742Y-71151000D01*
X69991258Y-71151000D01*
X69966488Y-71146073D01*
X69817188Y-71116376D01*
X69653216Y-71048456D01*
X69505646Y-70949853D01*
X69380147Y-70824354D01*
X69281544Y-70676784D01*
X69213624Y-70512812D01*
X69179000Y-70338741D01*
X69179000Y-70161259D01*
X69213624Y-69987188D01*
X69281544Y-69823216D01*
X69380147Y-69675646D01*
X69505646Y-69550147D01*
X69653216Y-69451544D01*
X69817188Y-69383624D01*
X69966488Y-69353927D01*
X69991258Y-69349000D01*
X70168742Y-69349000D01*
X70193512Y-69353927D01*
G37*
G36*
X65901000Y-71151000D02*
G01*
X64099000Y-71151000D01*
X64099000Y-69349000D01*
X65901000Y-69349000D01*
X65901000Y-71151000D01*
G37*
G36*
X75273512Y-69353927D02*
G01*
X75422812Y-69383624D01*
X75586784Y-69451544D01*
X75734354Y-69550147D01*
X75859853Y-69675646D01*
X75958456Y-69823216D01*
X76026376Y-69987188D01*
X76061000Y-70161259D01*
X76061000Y-70338741D01*
X76026376Y-70512812D01*
X75958456Y-70676784D01*
X75859853Y-70824354D01*
X75734354Y-70949853D01*
X75586784Y-71048456D01*
X75422812Y-71116376D01*
X75273512Y-71146073D01*
X75248742Y-71151000D01*
X75071258Y-71151000D01*
X75046488Y-71146073D01*
X74897188Y-71116376D01*
X74733216Y-71048456D01*
X74585646Y-70949853D01*
X74460147Y-70824354D01*
X74361544Y-70676784D01*
X74293624Y-70512812D01*
X74259000Y-70338741D01*
X74259000Y-70161259D01*
X74293624Y-69987188D01*
X74361544Y-69823216D01*
X74460147Y-69675646D01*
X74585646Y-69550147D01*
X74733216Y-69451544D01*
X74897188Y-69383624D01*
X75046488Y-69353927D01*
X75071258Y-69349000D01*
X75248742Y-69349000D01*
X75273512Y-69353927D01*
G37*
G36*
X72733512Y-69353927D02*
G01*
X72882812Y-69383624D01*
X73046784Y-69451544D01*
X73194354Y-69550147D01*
X73319853Y-69675646D01*
X73418456Y-69823216D01*
X73486376Y-69987188D01*
X73521000Y-70161259D01*
X73521000Y-70338741D01*
X73486376Y-70512812D01*
X73418456Y-70676784D01*
X73319853Y-70824354D01*
X73194354Y-70949853D01*
X73046784Y-71048456D01*
X72882812Y-71116376D01*
X72733512Y-71146073D01*
X72708742Y-71151000D01*
X72531258Y-71151000D01*
X72506488Y-71146073D01*
X72357188Y-71116376D01*
X72193216Y-71048456D01*
X72045646Y-70949853D01*
X71920147Y-70824354D01*
X71821544Y-70676784D01*
X71753624Y-70512812D01*
X71719000Y-70338741D01*
X71719000Y-70161259D01*
X71753624Y-69987188D01*
X71821544Y-69823216D01*
X71920147Y-69675646D01*
X72045646Y-69550147D01*
X72193216Y-69451544D01*
X72357188Y-69383624D01*
X72506488Y-69353927D01*
X72531258Y-69349000D01*
X72708742Y-69349000D01*
X72733512Y-69353927D01*
G37*
G36*
X73779591Y-59803085D02*
G01*
X73813569Y-59813393D01*
X73844890Y-59830134D01*
X73872339Y-59852661D01*
X73894866Y-59880110D01*
X73911607Y-59911431D01*
X73921915Y-59945409D01*
X73926000Y-59986890D01*
X73926000Y-60588110D01*
X73921915Y-60629591D01*
X73911607Y-60663569D01*
X73894866Y-60694890D01*
X73872339Y-60722339D01*
X73844890Y-60744866D01*
X73813569Y-60761607D01*
X73779591Y-60771915D01*
X73738110Y-60776000D01*
X73061890Y-60776000D01*
X73020409Y-60771915D01*
X72986431Y-60761607D01*
X72955110Y-60744866D01*
X72927661Y-60722339D01*
X72905134Y-60694890D01*
X72888393Y-60663569D01*
X72878085Y-60629591D01*
X72874000Y-60588110D01*
X72874000Y-59986890D01*
X72878085Y-59945409D01*
X72888393Y-59911431D01*
X72905134Y-59880110D01*
X72927661Y-59852661D01*
X72955110Y-59830134D01*
X72986431Y-59813393D01*
X73020409Y-59803085D01*
X73061890Y-59799000D01*
X73738110Y-59799000D01*
X73779591Y-59803085D01*
G37*
G36*
X72081938Y-59026716D02*
G01*
X72102557Y-59032971D01*
X72121553Y-59043124D01*
X72138208Y-59056792D01*
X72151876Y-59073447D01*
X72162029Y-59092443D01*
X72168284Y-59113062D01*
X72171000Y-59140640D01*
X72171000Y-59599360D01*
X72168284Y-59626938D01*
X72162029Y-59647557D01*
X72151876Y-59666553D01*
X72138208Y-59683208D01*
X72121553Y-59696876D01*
X72102557Y-59707029D01*
X72081938Y-59713284D01*
X72054360Y-59716000D01*
X71545640Y-59716000D01*
X71518062Y-59713284D01*
X71497443Y-59707029D01*
X71478447Y-59696876D01*
X71461792Y-59683208D01*
X71448124Y-59666553D01*
X71437971Y-59647557D01*
X71431716Y-59626938D01*
X71429000Y-59599360D01*
X71429000Y-59140640D01*
X71431716Y-59113062D01*
X71437971Y-59092443D01*
X71448124Y-59073447D01*
X71461792Y-59056792D01*
X71478447Y-59043124D01*
X71497443Y-59032971D01*
X71518062Y-59026716D01*
X71545640Y-59024000D01*
X72054360Y-59024000D01*
X72081938Y-59026716D01*
G37*
G36*
X73779591Y-58228085D02*
G01*
X73813569Y-58238393D01*
X73844890Y-58255134D01*
X73872339Y-58277661D01*
X73894866Y-58305110D01*
X73911607Y-58336431D01*
X73921915Y-58370409D01*
X73926000Y-58411890D01*
X73926000Y-59013110D01*
X73921915Y-59054591D01*
X73911607Y-59088569D01*
X73894866Y-59119890D01*
X73872339Y-59147339D01*
X73844890Y-59169866D01*
X73813569Y-59186607D01*
X73779591Y-59196915D01*
X73738110Y-59201000D01*
X73061890Y-59201000D01*
X73020409Y-59196915D01*
X72986431Y-59186607D01*
X72955110Y-59169866D01*
X72927661Y-59147339D01*
X72905134Y-59119890D01*
X72888393Y-59088569D01*
X72878085Y-59054591D01*
X72874000Y-59013110D01*
X72874000Y-58411890D01*
X72878085Y-58370409D01*
X72888393Y-58336431D01*
X72905134Y-58305110D01*
X72927661Y-58277661D01*
X72955110Y-58255134D01*
X72986431Y-58238393D01*
X73020409Y-58228085D01*
X73061890Y-58224000D01*
X73738110Y-58224000D01*
X73779591Y-58228085D01*
G37*
G36*
X72081938Y-58056716D02*
G01*
X72102557Y-58062971D01*
X72121553Y-58073124D01*
X72138208Y-58086792D01*
X72151876Y-58103447D01*
X72162029Y-58122443D01*
X72168284Y-58143062D01*
X72171000Y-58170640D01*
X72171000Y-58629360D01*
X72168284Y-58656938D01*
X72162029Y-58677557D01*
X72151876Y-58696553D01*
X72138208Y-58713208D01*
X72121553Y-58726876D01*
X72102557Y-58737029D01*
X72081938Y-58743284D01*
X72054360Y-58746000D01*
X71545640Y-58746000D01*
X71518062Y-58743284D01*
X71497443Y-58737029D01*
X71478447Y-58726876D01*
X71461792Y-58713208D01*
X71448124Y-58696553D01*
X71437971Y-58677557D01*
X71431716Y-58656938D01*
X71429000Y-58629360D01*
X71429000Y-58170640D01*
X71431716Y-58143062D01*
X71437971Y-58122443D01*
X71448124Y-58103447D01*
X71461792Y-58086792D01*
X71478447Y-58073124D01*
X71497443Y-58062971D01*
X71518062Y-58056716D01*
X71545640Y-58054000D01*
X72054360Y-58054000D01*
X72081938Y-58056716D01*
G37*
G36*
X66786938Y-57931716D02*
G01*
X66807557Y-57937971D01*
X66826553Y-57948124D01*
X66843208Y-57961792D01*
X66856876Y-57978447D01*
X66867029Y-57997443D01*
X66873284Y-58018062D01*
X66876000Y-58045640D01*
X66876000Y-58554360D01*
X66873284Y-58581938D01*
X66867029Y-58602557D01*
X66856876Y-58621553D01*
X66843208Y-58638208D01*
X66826553Y-58651876D01*
X66807557Y-58662029D01*
X66786938Y-58668284D01*
X66759360Y-58671000D01*
X66300640Y-58671000D01*
X66273062Y-58668284D01*
X66252443Y-58662029D01*
X66233447Y-58651876D01*
X66216792Y-58638208D01*
X66203124Y-58621553D01*
X66192971Y-58602557D01*
X66186716Y-58581938D01*
X66184000Y-58554360D01*
X66184000Y-58045640D01*
X66186716Y-58018062D01*
X66192971Y-57997443D01*
X66203124Y-57978447D01*
X66216792Y-57961792D01*
X66233447Y-57948124D01*
X66252443Y-57937971D01*
X66273062Y-57931716D01*
X66300640Y-57929000D01*
X66759360Y-57929000D01*
X66786938Y-57931716D01*
G37*
G36*
X67756938Y-57931716D02*
G01*
X67777557Y-57937971D01*
X67796553Y-57948124D01*
X67813208Y-57961792D01*
X67826876Y-57978447D01*
X67837029Y-57997443D01*
X67843284Y-58018062D01*
X67846000Y-58045640D01*
X67846000Y-58554360D01*
X67843284Y-58581938D01*
X67837029Y-58602557D01*
X67826876Y-58621553D01*
X67813208Y-58638208D01*
X67796553Y-58651876D01*
X67777557Y-58662029D01*
X67756938Y-58668284D01*
X67729360Y-58671000D01*
X67270640Y-58671000D01*
X67243062Y-58668284D01*
X67222443Y-58662029D01*
X67203447Y-58651876D01*
X67186792Y-58638208D01*
X67173124Y-58621553D01*
X67162971Y-58602557D01*
X67156716Y-58581938D01*
X67154000Y-58554360D01*
X67154000Y-58045640D01*
X67156716Y-58018062D01*
X67162971Y-57997443D01*
X67173124Y-57978447D01*
X67186792Y-57961792D01*
X67203447Y-57948124D01*
X67222443Y-57937971D01*
X67243062Y-57931716D01*
X67270640Y-57929000D01*
X67729360Y-57929000D01*
X67756938Y-57931716D01*
G37*
G36*
X75081938Y-57456716D02*
G01*
X75102557Y-57462971D01*
X75121553Y-57473124D01*
X75138208Y-57486792D01*
X75151876Y-57503447D01*
X75162029Y-57522443D01*
X75168284Y-57543062D01*
X75171000Y-57570640D01*
X75171000Y-58029360D01*
X75168284Y-58056938D01*
X75162029Y-58077557D01*
X75151876Y-58096553D01*
X75138208Y-58113208D01*
X75121553Y-58126876D01*
X75102557Y-58137029D01*
X75081938Y-58143284D01*
X75054360Y-58146000D01*
X74545640Y-58146000D01*
X74518062Y-58143284D01*
X74497443Y-58137029D01*
X74478447Y-58126876D01*
X74461792Y-58113208D01*
X74448124Y-58096553D01*
X74437971Y-58077557D01*
X74431716Y-58056938D01*
X74429000Y-58029360D01*
X74429000Y-57570640D01*
X74431716Y-57543062D01*
X74437971Y-57522443D01*
X74448124Y-57503447D01*
X74461792Y-57486792D01*
X74478447Y-57473124D01*
X74497443Y-57462971D01*
X74518062Y-57456716D01*
X74545640Y-57454000D01*
X75054360Y-57454000D01*
X75081938Y-57456716D01*
G37*
G36*
X103651000Y-57651000D02*
G01*
X100349000Y-57651000D01*
X100349000Y-55549000D01*
X103651000Y-55549000D01*
X103651000Y-57651000D01*
G37*
G36*
X39651000Y-57651000D02*
G01*
X36349000Y-57651000D01*
X36349000Y-55549000D01*
X39651000Y-55549000D01*
X39651000Y-57651000D01*
G37*
G36*
X66420295Y-55850323D02*
G01*
X66427309Y-55852451D01*
X66441077Y-55859810D01*
X66463716Y-55869187D01*
X66487749Y-55873967D01*
X66512253Y-55873967D01*
X66536286Y-55869186D01*
X66558923Y-55859810D01*
X66572691Y-55852451D01*
X66579705Y-55850323D01*
X66593140Y-55849000D01*
X66906860Y-55849000D01*
X66920295Y-55850323D01*
X66927309Y-55852451D01*
X66941077Y-55859810D01*
X66963716Y-55869187D01*
X66987749Y-55873967D01*
X67012253Y-55873967D01*
X67036286Y-55869186D01*
X67058923Y-55859810D01*
X67072691Y-55852451D01*
X67079705Y-55850323D01*
X67093140Y-55849000D01*
X67406860Y-55849000D01*
X67420295Y-55850323D01*
X67427309Y-55852451D01*
X67441077Y-55859810D01*
X67463716Y-55869187D01*
X67487749Y-55873967D01*
X67512253Y-55873967D01*
X67536286Y-55869186D01*
X67558923Y-55859810D01*
X67572691Y-55852451D01*
X67579705Y-55850323D01*
X67593140Y-55849000D01*
X67906860Y-55849000D01*
X67920295Y-55850323D01*
X67927309Y-55852451D01*
X67941077Y-55859810D01*
X67963716Y-55869187D01*
X67987749Y-55873967D01*
X68012253Y-55873967D01*
X68036286Y-55869186D01*
X68058923Y-55859810D01*
X68072691Y-55852451D01*
X68079705Y-55850323D01*
X68093140Y-55849000D01*
X68406860Y-55849000D01*
X68420295Y-55850323D01*
X68427309Y-55852451D01*
X68441077Y-55859810D01*
X68463716Y-55869187D01*
X68487749Y-55873967D01*
X68512253Y-55873967D01*
X68536286Y-55869186D01*
X68558923Y-55859810D01*
X68572691Y-55852451D01*
X68579705Y-55850323D01*
X68593140Y-55849000D01*
X68906860Y-55849000D01*
X68920295Y-55850323D01*
X68927309Y-55852451D01*
X68941077Y-55859810D01*
X68963716Y-55869187D01*
X68987749Y-55873967D01*
X69012253Y-55873967D01*
X69036286Y-55869186D01*
X69058923Y-55859810D01*
X69072691Y-55852451D01*
X69079705Y-55850323D01*
X69093140Y-55849000D01*
X69406860Y-55849000D01*
X69420295Y-55850323D01*
X69427309Y-55852451D01*
X69441077Y-55859810D01*
X69463716Y-55869187D01*
X69487749Y-55873967D01*
X69512253Y-55873967D01*
X69536286Y-55869186D01*
X69558923Y-55859810D01*
X69572691Y-55852451D01*
X69579705Y-55850323D01*
X69593140Y-55849000D01*
X69906860Y-55849000D01*
X69920295Y-55850323D01*
X69927309Y-55852451D01*
X69941077Y-55859810D01*
X69963716Y-55869187D01*
X69987749Y-55873967D01*
X70012253Y-55873967D01*
X70036286Y-55869186D01*
X70058923Y-55859810D01*
X70072691Y-55852451D01*
X70079705Y-55850323D01*
X70093140Y-55849000D01*
X70406860Y-55849000D01*
X70420295Y-55850323D01*
X70427309Y-55852451D01*
X70441077Y-55859810D01*
X70463716Y-55869187D01*
X70487749Y-55873967D01*
X70512253Y-55873967D01*
X70536286Y-55869186D01*
X70558923Y-55859810D01*
X70572691Y-55852451D01*
X70579705Y-55850323D01*
X70593140Y-55849000D01*
X70906860Y-55849000D01*
X70920295Y-55850323D01*
X70927309Y-55852451D01*
X70941077Y-55859810D01*
X70963716Y-55869187D01*
X70987749Y-55873967D01*
X71012253Y-55873967D01*
X71036286Y-55869186D01*
X71058923Y-55859810D01*
X71072691Y-55852451D01*
X71079705Y-55850323D01*
X71093140Y-55849000D01*
X71406860Y-55849000D01*
X71420295Y-55850323D01*
X71427309Y-55852451D01*
X71441077Y-55859810D01*
X71463716Y-55869187D01*
X71487749Y-55873967D01*
X71512253Y-55873967D01*
X71536286Y-55869186D01*
X71558923Y-55859810D01*
X71572691Y-55852451D01*
X71579705Y-55850323D01*
X71593140Y-55849000D01*
X71906860Y-55849000D01*
X71920295Y-55850323D01*
X71927309Y-55852451D01*
X71941077Y-55859810D01*
X71963716Y-55869187D01*
X71987749Y-55873967D01*
X72012253Y-55873967D01*
X72036286Y-55869186D01*
X72058923Y-55859810D01*
X72072691Y-55852451D01*
X72079705Y-55850323D01*
X72093140Y-55849000D01*
X72406860Y-55849000D01*
X72420295Y-55850323D01*
X72427309Y-55852451D01*
X72441077Y-55859810D01*
X72463716Y-55869187D01*
X72487749Y-55873967D01*
X72512253Y-55873967D01*
X72536286Y-55869186D01*
X72558923Y-55859810D01*
X72572691Y-55852451D01*
X72579705Y-55850323D01*
X72593140Y-55849000D01*
X72906860Y-55849000D01*
X72920295Y-55850323D01*
X72927309Y-55852451D01*
X72941077Y-55859810D01*
X72963716Y-55869187D01*
X72987749Y-55873967D01*
X73012253Y-55873967D01*
X73036286Y-55869186D01*
X73058923Y-55859810D01*
X73072691Y-55852451D01*
X73079705Y-55850323D01*
X73093140Y-55849000D01*
X73406860Y-55849000D01*
X73420295Y-55850323D01*
X73427309Y-55852451D01*
X73441077Y-55859810D01*
X73463716Y-55869187D01*
X73487749Y-55873967D01*
X73512253Y-55873967D01*
X73536286Y-55869186D01*
X73558923Y-55859810D01*
X73572691Y-55852451D01*
X73579705Y-55850323D01*
X73593140Y-55849000D01*
X73906860Y-55849000D01*
X73920295Y-55850323D01*
X73927310Y-55852451D01*
X73933776Y-55855908D01*
X73939442Y-55860558D01*
X73944092Y-55866224D01*
X73947549Y-55872690D01*
X73949677Y-55879705D01*
X73951000Y-55893140D01*
X73951000Y-57456860D01*
X73949677Y-57470295D01*
X73947549Y-57477310D01*
X73944092Y-57483776D01*
X73939442Y-57489442D01*
X73933776Y-57494092D01*
X73927310Y-57497549D01*
X73920295Y-57499677D01*
X73906860Y-57501000D01*
X73593140Y-57501000D01*
X73579705Y-57499677D01*
X73572691Y-57497549D01*
X73558923Y-57490190D01*
X73536284Y-57480813D01*
X73512251Y-57476033D01*
X73487747Y-57476033D01*
X73463714Y-57480814D01*
X73441077Y-57490190D01*
X73427309Y-57497549D01*
X73420295Y-57499677D01*
X73406860Y-57501000D01*
X73093140Y-57501000D01*
X73079705Y-57499677D01*
X73072691Y-57497549D01*
X73058923Y-57490190D01*
X73036284Y-57480813D01*
X73012251Y-57476033D01*
X72987747Y-57476033D01*
X72963714Y-57480814D01*
X72941077Y-57490190D01*
X72927309Y-57497549D01*
X72920295Y-57499677D01*
X72906860Y-57501000D01*
X72593140Y-57501000D01*
X72579705Y-57499677D01*
X72572691Y-57497549D01*
X72558923Y-57490190D01*
X72536284Y-57480813D01*
X72512251Y-57476033D01*
X72487747Y-57476033D01*
X72463714Y-57480814D01*
X72441077Y-57490190D01*
X72427309Y-57497549D01*
X72420295Y-57499677D01*
X72406860Y-57501000D01*
X72093140Y-57501000D01*
X72079705Y-57499677D01*
X72072691Y-57497549D01*
X72058923Y-57490190D01*
X72036284Y-57480813D01*
X72012251Y-57476033D01*
X71987747Y-57476033D01*
X71963714Y-57480814D01*
X71941077Y-57490190D01*
X71927309Y-57497549D01*
X71920295Y-57499677D01*
X71906860Y-57501000D01*
X71593140Y-57501000D01*
X71579705Y-57499677D01*
X71572691Y-57497549D01*
X71558923Y-57490190D01*
X71536284Y-57480813D01*
X71512251Y-57476033D01*
X71487747Y-57476033D01*
X71463714Y-57480814D01*
X71441077Y-57490190D01*
X71427309Y-57497549D01*
X71420295Y-57499677D01*
X71406860Y-57501000D01*
X71093140Y-57501000D01*
X71079705Y-57499677D01*
X71072691Y-57497549D01*
X71058923Y-57490190D01*
X71036284Y-57480813D01*
X71012251Y-57476033D01*
X70987747Y-57476033D01*
X70963714Y-57480814D01*
X70941077Y-57490190D01*
X70927309Y-57497549D01*
X70920295Y-57499677D01*
X70906860Y-57501000D01*
X70593140Y-57501000D01*
X70579705Y-57499677D01*
X70572691Y-57497549D01*
X70558923Y-57490190D01*
X70536284Y-57480813D01*
X70512251Y-57476033D01*
X70487747Y-57476033D01*
X70463714Y-57480814D01*
X70441077Y-57490190D01*
X70427309Y-57497549D01*
X70420295Y-57499677D01*
X70406860Y-57501000D01*
X70093140Y-57501000D01*
X70079705Y-57499677D01*
X70072691Y-57497549D01*
X70058923Y-57490190D01*
X70036284Y-57480813D01*
X70012251Y-57476033D01*
X69987747Y-57476033D01*
X69963714Y-57480814D01*
X69941077Y-57490190D01*
X69927309Y-57497549D01*
X69920295Y-57499677D01*
X69906860Y-57501000D01*
X69593140Y-57501000D01*
X69579705Y-57499677D01*
X69572691Y-57497549D01*
X69558923Y-57490190D01*
X69536284Y-57480813D01*
X69512251Y-57476033D01*
X69487747Y-57476033D01*
X69463714Y-57480814D01*
X69441077Y-57490190D01*
X69427309Y-57497549D01*
X69420295Y-57499677D01*
X69406860Y-57501000D01*
X69093140Y-57501000D01*
X69079705Y-57499677D01*
X69072691Y-57497549D01*
X69058923Y-57490190D01*
X69036284Y-57480813D01*
X69012251Y-57476033D01*
X68987747Y-57476033D01*
X68963714Y-57480814D01*
X68941077Y-57490190D01*
X68927309Y-57497549D01*
X68920295Y-57499677D01*
X68906860Y-57501000D01*
X68593140Y-57501000D01*
X68579705Y-57499677D01*
X68572691Y-57497549D01*
X68558923Y-57490190D01*
X68536284Y-57480813D01*
X68512251Y-57476033D01*
X68487747Y-57476033D01*
X68463714Y-57480814D01*
X68441077Y-57490190D01*
X68427309Y-57497549D01*
X68420295Y-57499677D01*
X68406860Y-57501000D01*
X68093140Y-57501000D01*
X68079705Y-57499677D01*
X68072691Y-57497549D01*
X68058923Y-57490190D01*
X68036284Y-57480813D01*
X68012251Y-57476033D01*
X67987747Y-57476033D01*
X67963714Y-57480814D01*
X67941077Y-57490190D01*
X67927309Y-57497549D01*
X67920295Y-57499677D01*
X67906860Y-57501000D01*
X67593140Y-57501000D01*
X67579705Y-57499677D01*
X67572691Y-57497549D01*
X67558923Y-57490190D01*
X67536284Y-57480813D01*
X67512251Y-57476033D01*
X67487747Y-57476033D01*
X67463714Y-57480814D01*
X67441077Y-57490190D01*
X67427309Y-57497549D01*
X67420295Y-57499677D01*
X67406860Y-57501000D01*
X67093140Y-57501000D01*
X67079705Y-57499677D01*
X67072691Y-57497549D01*
X67058923Y-57490190D01*
X67036284Y-57480813D01*
X67012251Y-57476033D01*
X66987747Y-57476033D01*
X66963714Y-57480814D01*
X66941077Y-57490190D01*
X66927309Y-57497549D01*
X66920295Y-57499677D01*
X66906860Y-57501000D01*
X66593140Y-57501000D01*
X66579705Y-57499677D01*
X66572691Y-57497549D01*
X66558923Y-57490190D01*
X66536284Y-57480813D01*
X66512251Y-57476033D01*
X66487747Y-57476033D01*
X66463714Y-57480814D01*
X66441077Y-57490190D01*
X66427309Y-57497549D01*
X66420295Y-57499677D01*
X66406860Y-57501000D01*
X66093140Y-57501000D01*
X66079705Y-57499677D01*
X66072690Y-57497549D01*
X66066224Y-57494092D01*
X66060558Y-57489442D01*
X66055908Y-57483776D01*
X66052451Y-57477310D01*
X66050323Y-57470295D01*
X66049000Y-57456860D01*
X66049000Y-55893140D01*
X66050323Y-55879705D01*
X66052451Y-55872690D01*
X66055908Y-55866224D01*
X66060558Y-55860558D01*
X66066224Y-55855908D01*
X66072690Y-55852451D01*
X66079705Y-55850323D01*
X66093140Y-55849000D01*
X66406860Y-55849000D01*
X66420295Y-55850323D01*
G37*
G36*
X75081938Y-56486716D02*
G01*
X75102557Y-56492971D01*
X75121553Y-56503124D01*
X75138208Y-56516792D01*
X75151876Y-56533447D01*
X75162029Y-56552443D01*
X75168284Y-56573062D01*
X75171000Y-56600640D01*
X75171000Y-57059360D01*
X75168284Y-57086938D01*
X75162029Y-57107557D01*
X75151876Y-57126553D01*
X75138208Y-57143208D01*
X75121553Y-57156876D01*
X75102557Y-57167029D01*
X75081938Y-57173284D01*
X75054360Y-57176000D01*
X74545640Y-57176000D01*
X74518062Y-57173284D01*
X74497443Y-57167029D01*
X74478447Y-57156876D01*
X74461792Y-57143208D01*
X74448124Y-57126553D01*
X74437971Y-57107557D01*
X74431716Y-57086938D01*
X74429000Y-57059360D01*
X74429000Y-56600640D01*
X74431716Y-56573062D01*
X74437971Y-56552443D01*
X74448124Y-56533447D01*
X74461792Y-56516792D01*
X74478447Y-56503124D01*
X74497443Y-56492971D01*
X74518062Y-56486716D01*
X74545640Y-56484000D01*
X75054360Y-56484000D01*
X75081938Y-56486716D01*
G37*
G36*
X79592091Y-55978085D02*
G01*
X79626069Y-55988393D01*
X79657390Y-56005134D01*
X79684839Y-56027661D01*
X79707366Y-56055110D01*
X79724107Y-56086431D01*
X79734415Y-56120409D01*
X79738500Y-56161890D01*
X79738500Y-56838110D01*
X79734415Y-56879591D01*
X79724107Y-56913569D01*
X79707366Y-56944890D01*
X79684839Y-56972339D01*
X79657390Y-56994866D01*
X79626069Y-57011607D01*
X79592091Y-57021915D01*
X79550610Y-57026000D01*
X78949390Y-57026000D01*
X78907909Y-57021915D01*
X78873931Y-57011607D01*
X78842610Y-56994866D01*
X78815161Y-56972339D01*
X78792634Y-56944890D01*
X78775893Y-56913569D01*
X78765585Y-56879591D01*
X78761500Y-56838110D01*
X78761500Y-56161890D01*
X78765585Y-56120409D01*
X78775893Y-56086431D01*
X78792634Y-56055110D01*
X78815161Y-56027661D01*
X78842610Y-56005134D01*
X78873931Y-55988393D01*
X78907909Y-55978085D01*
X78949390Y-55974000D01*
X79550610Y-55974000D01*
X79592091Y-55978085D01*
G37*
G36*
X81167091Y-55978085D02*
G01*
X81201069Y-55988393D01*
X81232390Y-56005134D01*
X81259839Y-56027661D01*
X81282366Y-56055110D01*
X81299107Y-56086431D01*
X81309415Y-56120409D01*
X81313500Y-56161890D01*
X81313500Y-56838110D01*
X81309415Y-56879591D01*
X81299107Y-56913569D01*
X81282366Y-56944890D01*
X81259839Y-56972339D01*
X81232390Y-56994866D01*
X81201069Y-57011607D01*
X81167091Y-57021915D01*
X81125610Y-57026000D01*
X80524390Y-57026000D01*
X80482909Y-57021915D01*
X80448931Y-57011607D01*
X80417610Y-56994866D01*
X80390161Y-56972339D01*
X80367634Y-56944890D01*
X80350893Y-56913569D01*
X80340585Y-56879591D01*
X80336500Y-56838110D01*
X80336500Y-56161890D01*
X80340585Y-56120409D01*
X80350893Y-56086431D01*
X80367634Y-56055110D01*
X80390161Y-56027661D01*
X80417610Y-56005134D01*
X80448931Y-55988393D01*
X80482909Y-55978085D01*
X80524390Y-55974000D01*
X81125610Y-55974000D01*
X81167091Y-55978085D01*
G37*
G36*
X79592091Y-54228085D02*
G01*
X79626069Y-54238393D01*
X79657390Y-54255134D01*
X79684839Y-54277661D01*
X79707366Y-54305110D01*
X79724107Y-54336431D01*
X79734415Y-54370409D01*
X79738500Y-54411890D01*
X79738500Y-55088110D01*
X79734415Y-55129591D01*
X79724107Y-55163569D01*
X79707366Y-55194890D01*
X79684839Y-55222339D01*
X79657390Y-55244866D01*
X79626069Y-55261607D01*
X79592091Y-55271915D01*
X79550610Y-55276000D01*
X78949390Y-55276000D01*
X78907909Y-55271915D01*
X78873931Y-55261607D01*
X78842610Y-55244866D01*
X78815161Y-55222339D01*
X78792634Y-55194890D01*
X78775893Y-55163569D01*
X78765585Y-55129591D01*
X78761500Y-55088110D01*
X78761500Y-54411890D01*
X78765585Y-54370409D01*
X78775893Y-54336431D01*
X78792634Y-54305110D01*
X78815161Y-54277661D01*
X78842610Y-54255134D01*
X78873931Y-54238393D01*
X78907909Y-54228085D01*
X78949390Y-54224000D01*
X79550610Y-54224000D01*
X79592091Y-54228085D01*
G37*
G36*
X81167091Y-54228085D02*
G01*
X81201069Y-54238393D01*
X81232390Y-54255134D01*
X81259839Y-54277661D01*
X81282366Y-54305110D01*
X81299107Y-54336431D01*
X81309415Y-54370409D01*
X81313500Y-54411890D01*
X81313500Y-55088110D01*
X81309415Y-55129591D01*
X81299107Y-55163569D01*
X81282366Y-55194890D01*
X81259839Y-55222339D01*
X81232390Y-55244866D01*
X81201069Y-55261607D01*
X81167091Y-55271915D01*
X81125610Y-55276000D01*
X80524390Y-55276000D01*
X80482909Y-55271915D01*
X80448931Y-55261607D01*
X80417610Y-55244866D01*
X80390161Y-55222339D01*
X80367634Y-55194890D01*
X80350893Y-55163569D01*
X80340585Y-55129591D01*
X80336500Y-55088110D01*
X80336500Y-54411890D01*
X80340585Y-54370409D01*
X80350893Y-54336431D01*
X80367634Y-54305110D01*
X80390161Y-54277661D01*
X80417610Y-54255134D01*
X80448931Y-54238393D01*
X80482909Y-54228085D01*
X80524390Y-54224000D01*
X81125610Y-54224000D01*
X81167091Y-54228085D01*
G37*
G36*
X76470295Y-47050323D02*
G01*
X76477310Y-47052451D01*
X76483776Y-47055908D01*
X76489442Y-47060558D01*
X76494092Y-47066224D01*
X76497549Y-47072690D01*
X76499677Y-47079705D01*
X76501000Y-47093140D01*
X76501000Y-47406860D01*
X76499677Y-47420295D01*
X76497549Y-47427309D01*
X76490190Y-47441077D01*
X76480813Y-47463716D01*
X76476033Y-47487749D01*
X76476033Y-47512253D01*
X76480814Y-47536286D01*
X76490190Y-47558923D01*
X76497549Y-47572691D01*
X76499677Y-47579705D01*
X76501000Y-47593140D01*
X76501000Y-47906860D01*
X76499677Y-47920295D01*
X76497549Y-47927309D01*
X76490190Y-47941077D01*
X76480813Y-47963716D01*
X76476033Y-47987749D01*
X76476033Y-48012253D01*
X76480814Y-48036286D01*
X76490190Y-48058923D01*
X76497549Y-48072691D01*
X76499677Y-48079705D01*
X76501000Y-48093140D01*
X76501000Y-48406860D01*
X76499677Y-48420295D01*
X76497549Y-48427309D01*
X76490190Y-48441077D01*
X76480813Y-48463716D01*
X76476033Y-48487749D01*
X76476033Y-48512253D01*
X76480814Y-48536286D01*
X76490190Y-48558923D01*
X76497549Y-48572691D01*
X76499677Y-48579705D01*
X76501000Y-48593140D01*
X76501000Y-48906860D01*
X76499677Y-48920295D01*
X76497549Y-48927309D01*
X76490190Y-48941077D01*
X76480813Y-48963716D01*
X76476033Y-48987749D01*
X76476033Y-49012253D01*
X76480814Y-49036286D01*
X76490190Y-49058923D01*
X76497549Y-49072691D01*
X76499677Y-49079705D01*
X76501000Y-49093140D01*
X76501000Y-49406860D01*
X76499677Y-49420295D01*
X76497549Y-49427309D01*
X76490190Y-49441077D01*
X76480813Y-49463716D01*
X76476033Y-49487749D01*
X76476033Y-49512253D01*
X76480814Y-49536286D01*
X76490190Y-49558923D01*
X76497549Y-49572691D01*
X76499677Y-49579705D01*
X76501000Y-49593140D01*
X76501000Y-49906860D01*
X76499677Y-49920295D01*
X76497549Y-49927309D01*
X76490190Y-49941077D01*
X76480813Y-49963716D01*
X76476033Y-49987749D01*
X76476033Y-50012253D01*
X76480814Y-50036286D01*
X76490190Y-50058923D01*
X76497549Y-50072691D01*
X76499677Y-50079705D01*
X76501000Y-50093140D01*
X76501000Y-50406860D01*
X76499677Y-50420295D01*
X76497549Y-50427309D01*
X76490190Y-50441077D01*
X76480813Y-50463716D01*
X76476033Y-50487749D01*
X76476033Y-50512253D01*
X76480814Y-50536286D01*
X76490190Y-50558923D01*
X76497549Y-50572691D01*
X76499677Y-50579705D01*
X76501000Y-50593140D01*
X76501000Y-50906860D01*
X76499677Y-50920295D01*
X76497549Y-50927309D01*
X76490190Y-50941077D01*
X76480813Y-50963716D01*
X76476033Y-50987749D01*
X76476033Y-51012253D01*
X76480814Y-51036286D01*
X76490190Y-51058923D01*
X76497549Y-51072691D01*
X76499677Y-51079705D01*
X76501000Y-51093140D01*
X76501000Y-51406860D01*
X76499677Y-51420295D01*
X76497549Y-51427309D01*
X76490190Y-51441077D01*
X76480813Y-51463716D01*
X76476033Y-51487749D01*
X76476033Y-51512253D01*
X76480814Y-51536286D01*
X76490190Y-51558923D01*
X76497549Y-51572691D01*
X76499677Y-51579705D01*
X76501000Y-51593140D01*
X76501000Y-51906860D01*
X76499677Y-51920295D01*
X76497549Y-51927309D01*
X76490190Y-51941077D01*
X76480813Y-51963716D01*
X76476033Y-51987749D01*
X76476033Y-52012253D01*
X76480814Y-52036286D01*
X76490190Y-52058923D01*
X76497549Y-52072691D01*
X76499677Y-52079705D01*
X76501000Y-52093140D01*
X76501000Y-52406860D01*
X76499677Y-52420295D01*
X76497549Y-52427309D01*
X76490190Y-52441077D01*
X76480813Y-52463716D01*
X76476033Y-52487749D01*
X76476033Y-52512253D01*
X76480814Y-52536286D01*
X76490190Y-52558923D01*
X76497549Y-52572691D01*
X76499677Y-52579705D01*
X76501000Y-52593140D01*
X76501000Y-52906860D01*
X76499677Y-52920295D01*
X76497549Y-52927309D01*
X76490190Y-52941077D01*
X76480813Y-52963716D01*
X76476033Y-52987749D01*
X76476033Y-53012253D01*
X76480814Y-53036286D01*
X76490190Y-53058923D01*
X76497549Y-53072691D01*
X76499677Y-53079705D01*
X76501000Y-53093140D01*
X76501000Y-53406860D01*
X76499677Y-53420295D01*
X76497549Y-53427309D01*
X76490190Y-53441077D01*
X76480813Y-53463716D01*
X76476033Y-53487749D01*
X76476033Y-53512253D01*
X76480814Y-53536286D01*
X76490190Y-53558923D01*
X76497549Y-53572691D01*
X76499677Y-53579705D01*
X76501000Y-53593140D01*
X76501000Y-53906860D01*
X76499677Y-53920295D01*
X76497549Y-53927309D01*
X76490190Y-53941077D01*
X76480813Y-53963716D01*
X76476033Y-53987749D01*
X76476033Y-54012253D01*
X76480814Y-54036286D01*
X76490190Y-54058923D01*
X76497549Y-54072691D01*
X76499677Y-54079705D01*
X76501000Y-54093140D01*
X76501000Y-54406860D01*
X76499677Y-54420295D01*
X76497549Y-54427309D01*
X76490190Y-54441077D01*
X76480813Y-54463716D01*
X76476033Y-54487749D01*
X76476033Y-54512253D01*
X76480814Y-54536286D01*
X76490190Y-54558923D01*
X76497549Y-54572691D01*
X76499677Y-54579705D01*
X76501000Y-54593140D01*
X76501000Y-54906860D01*
X76499677Y-54920295D01*
X76497549Y-54927310D01*
X76494092Y-54933776D01*
X76489442Y-54939442D01*
X76483776Y-54944092D01*
X76477310Y-54947549D01*
X76470295Y-54949677D01*
X76456860Y-54951000D01*
X74893140Y-54951000D01*
X74879705Y-54949677D01*
X74872690Y-54947549D01*
X74866224Y-54944092D01*
X74860558Y-54939442D01*
X74855908Y-54933776D01*
X74852451Y-54927310D01*
X74850323Y-54920295D01*
X74849000Y-54906860D01*
X74849000Y-54593140D01*
X74850323Y-54579705D01*
X74852451Y-54572691D01*
X74859810Y-54558923D01*
X74869187Y-54536284D01*
X74873967Y-54512251D01*
X74873967Y-54487747D01*
X74869186Y-54463714D01*
X74859810Y-54441077D01*
X74852451Y-54427309D01*
X74850323Y-54420295D01*
X74849000Y-54406860D01*
X74849000Y-54093140D01*
X74850323Y-54079705D01*
X74852451Y-54072691D01*
X74859810Y-54058923D01*
X74869187Y-54036284D01*
X74873967Y-54012251D01*
X74873967Y-53987747D01*
X74869186Y-53963714D01*
X74859810Y-53941077D01*
X74852451Y-53927309D01*
X74850323Y-53920295D01*
X74849000Y-53906860D01*
X74849000Y-53593140D01*
X74850323Y-53579705D01*
X74852451Y-53572691D01*
X74859810Y-53558923D01*
X74869187Y-53536284D01*
X74873967Y-53512251D01*
X74873967Y-53487747D01*
X74869186Y-53463714D01*
X74859810Y-53441077D01*
X74852451Y-53427309D01*
X74850323Y-53420295D01*
X74849000Y-53406860D01*
X74849000Y-53093140D01*
X74850323Y-53079705D01*
X74852451Y-53072691D01*
X74859810Y-53058923D01*
X74869187Y-53036284D01*
X74873967Y-53012251D01*
X74873967Y-52987747D01*
X74869186Y-52963714D01*
X74859810Y-52941077D01*
X74852451Y-52927309D01*
X74850323Y-52920295D01*
X74849000Y-52906860D01*
X74849000Y-52593140D01*
X74850323Y-52579705D01*
X74852451Y-52572691D01*
X74859810Y-52558923D01*
X74869187Y-52536284D01*
X74873967Y-52512251D01*
X74873967Y-52487747D01*
X74869186Y-52463714D01*
X74859810Y-52441077D01*
X74852451Y-52427309D01*
X74850323Y-52420295D01*
X74849000Y-52406860D01*
X74849000Y-52093140D01*
X74850323Y-52079705D01*
X74852451Y-52072691D01*
X74859810Y-52058923D01*
X74869187Y-52036284D01*
X74873967Y-52012251D01*
X74873967Y-51987747D01*
X74869186Y-51963714D01*
X74859810Y-51941077D01*
X74852451Y-51927309D01*
X74850323Y-51920295D01*
X74849000Y-51906860D01*
X74849000Y-51593140D01*
X74850323Y-51579705D01*
X74852451Y-51572691D01*
X74859810Y-51558923D01*
X74869187Y-51536284D01*
X74873967Y-51512251D01*
X74873967Y-51487747D01*
X74869186Y-51463714D01*
X74859810Y-51441077D01*
X74852451Y-51427309D01*
X74850323Y-51420295D01*
X74849000Y-51406860D01*
X74849000Y-51093140D01*
X74850323Y-51079705D01*
X74852451Y-51072691D01*
X74859810Y-51058923D01*
X74869187Y-51036284D01*
X74873967Y-51012251D01*
X74873967Y-50987747D01*
X74869186Y-50963714D01*
X74859810Y-50941077D01*
X74852451Y-50927309D01*
X74850323Y-50920295D01*
X74849000Y-50906860D01*
X74849000Y-50593140D01*
X74850323Y-50579705D01*
X74852451Y-50572691D01*
X74859810Y-50558923D01*
X74869187Y-50536284D01*
X74873967Y-50512251D01*
X74873967Y-50487747D01*
X74869186Y-50463714D01*
X74859810Y-50441077D01*
X74852451Y-50427309D01*
X74850323Y-50420295D01*
X74849000Y-50406860D01*
X74849000Y-50093140D01*
X74850323Y-50079705D01*
X74852451Y-50072691D01*
X74859810Y-50058923D01*
X74869187Y-50036284D01*
X74873967Y-50012251D01*
X74873967Y-49987747D01*
X74869186Y-49963714D01*
X74859810Y-49941077D01*
X74852451Y-49927309D01*
X74850323Y-49920295D01*
X74849000Y-49906860D01*
X74849000Y-49593140D01*
X74850323Y-49579705D01*
X74852451Y-49572691D01*
X74859810Y-49558923D01*
X74869187Y-49536284D01*
X74873967Y-49512251D01*
X74873967Y-49487747D01*
X74869186Y-49463714D01*
X74859810Y-49441077D01*
X74852451Y-49427309D01*
X74850323Y-49420295D01*
X74849000Y-49406860D01*
X74849000Y-49093140D01*
X74850323Y-49079705D01*
X74852451Y-49072691D01*
X74859810Y-49058923D01*
X74869187Y-49036284D01*
X74873967Y-49012251D01*
X74873967Y-48987747D01*
X74869186Y-48963714D01*
X74859810Y-48941077D01*
X74852451Y-48927309D01*
X74850323Y-48920295D01*
X74849000Y-48906860D01*
X74849000Y-48593140D01*
X74850323Y-48579705D01*
X74852451Y-48572691D01*
X74859810Y-48558923D01*
X74869187Y-48536284D01*
X74873967Y-48512251D01*
X74873967Y-48487747D01*
X74869186Y-48463714D01*
X74859810Y-48441077D01*
X74852451Y-48427309D01*
X74850323Y-48420295D01*
X74849000Y-48406860D01*
X74849000Y-48093140D01*
X74850323Y-48079705D01*
X74852451Y-48072691D01*
X74859810Y-48058923D01*
X74869187Y-48036284D01*
X74873967Y-48012251D01*
X74873967Y-47987747D01*
X74869186Y-47963714D01*
X74859810Y-47941077D01*
X74852451Y-47927309D01*
X74850323Y-47920295D01*
X74849000Y-47906860D01*
X74849000Y-47593140D01*
X74850323Y-47579705D01*
X74852451Y-47572691D01*
X74859810Y-47558923D01*
X74869187Y-47536284D01*
X74873967Y-47512251D01*
X74873967Y-47487747D01*
X74869186Y-47463714D01*
X74859810Y-47441077D01*
X74852451Y-47427309D01*
X74850323Y-47420295D01*
X74849000Y-47406860D01*
X74849000Y-47093140D01*
X74850323Y-47079705D01*
X74852451Y-47072690D01*
X74855908Y-47066224D01*
X74860558Y-47060558D01*
X74866224Y-47055908D01*
X74872690Y-47052451D01*
X74879705Y-47050323D01*
X74893140Y-47049000D01*
X76456860Y-47049000D01*
X76470295Y-47050323D01*
G37*
G36*
X65120295Y-47050323D02*
G01*
X65127310Y-47052451D01*
X65133776Y-47055908D01*
X65139442Y-47060558D01*
X65144092Y-47066224D01*
X65147549Y-47072690D01*
X65149677Y-47079705D01*
X65151000Y-47093140D01*
X65151000Y-47406860D01*
X65149677Y-47420295D01*
X65147549Y-47427309D01*
X65140190Y-47441077D01*
X65130813Y-47463716D01*
X65126033Y-47487749D01*
X65126033Y-47512253D01*
X65130814Y-47536286D01*
X65140190Y-47558923D01*
X65147549Y-47572691D01*
X65149677Y-47579705D01*
X65151000Y-47593140D01*
X65151000Y-47906860D01*
X65149677Y-47920295D01*
X65147549Y-47927309D01*
X65140190Y-47941077D01*
X65130813Y-47963716D01*
X65126033Y-47987749D01*
X65126033Y-48012253D01*
X65130814Y-48036286D01*
X65140190Y-48058923D01*
X65147549Y-48072691D01*
X65149677Y-48079705D01*
X65151000Y-48093140D01*
X65151000Y-48406860D01*
X65149677Y-48420295D01*
X65147549Y-48427309D01*
X65140190Y-48441077D01*
X65130813Y-48463716D01*
X65126033Y-48487749D01*
X65126033Y-48512253D01*
X65130814Y-48536286D01*
X65140190Y-48558923D01*
X65147549Y-48572691D01*
X65149677Y-48579705D01*
X65151000Y-48593140D01*
X65151000Y-48906860D01*
X65149677Y-48920295D01*
X65147549Y-48927309D01*
X65140190Y-48941077D01*
X65130813Y-48963716D01*
X65126033Y-48987749D01*
X65126033Y-49012253D01*
X65130814Y-49036286D01*
X65140190Y-49058923D01*
X65147549Y-49072691D01*
X65149677Y-49079705D01*
X65151000Y-49093140D01*
X65151000Y-49406860D01*
X65149677Y-49420295D01*
X65147549Y-49427309D01*
X65140190Y-49441077D01*
X65130813Y-49463716D01*
X65126033Y-49487749D01*
X65126033Y-49512253D01*
X65130814Y-49536286D01*
X65140190Y-49558923D01*
X65147549Y-49572691D01*
X65149677Y-49579705D01*
X65151000Y-49593140D01*
X65151000Y-49906860D01*
X65149677Y-49920295D01*
X65147549Y-49927309D01*
X65140190Y-49941077D01*
X65130813Y-49963716D01*
X65126033Y-49987749D01*
X65126033Y-50012253D01*
X65130814Y-50036286D01*
X65140190Y-50058923D01*
X65147549Y-50072691D01*
X65149677Y-50079705D01*
X65151000Y-50093140D01*
X65151000Y-50406860D01*
X65149677Y-50420295D01*
X65147549Y-50427309D01*
X65140190Y-50441077D01*
X65130813Y-50463716D01*
X65126033Y-50487749D01*
X65126033Y-50512253D01*
X65130814Y-50536286D01*
X65140190Y-50558923D01*
X65147549Y-50572691D01*
X65149677Y-50579705D01*
X65151000Y-50593140D01*
X65151000Y-50906860D01*
X65149677Y-50920295D01*
X65147549Y-50927309D01*
X65140190Y-50941077D01*
X65130813Y-50963716D01*
X65126033Y-50987749D01*
X65126033Y-51012253D01*
X65130814Y-51036286D01*
X65140190Y-51058923D01*
X65147549Y-51072691D01*
X65149677Y-51079705D01*
X65151000Y-51093140D01*
X65151000Y-51406860D01*
X65149677Y-51420295D01*
X65147549Y-51427309D01*
X65140190Y-51441077D01*
X65130813Y-51463716D01*
X65126033Y-51487749D01*
X65126033Y-51512253D01*
X65130814Y-51536286D01*
X65140190Y-51558923D01*
X65147549Y-51572691D01*
X65149677Y-51579705D01*
X65151000Y-51593140D01*
X65151000Y-51906860D01*
X65149677Y-51920295D01*
X65147549Y-51927309D01*
X65140190Y-51941077D01*
X65130813Y-51963716D01*
X65126033Y-51987749D01*
X65126033Y-52012253D01*
X65130814Y-52036286D01*
X65140190Y-52058923D01*
X65147549Y-52072691D01*
X65149677Y-52079705D01*
X65151000Y-52093140D01*
X65151000Y-52406860D01*
X65149677Y-52420295D01*
X65147549Y-52427309D01*
X65140190Y-52441077D01*
X65130813Y-52463716D01*
X65126033Y-52487749D01*
X65126033Y-52512253D01*
X65130814Y-52536286D01*
X65140190Y-52558923D01*
X65147549Y-52572691D01*
X65149677Y-52579705D01*
X65151000Y-52593140D01*
X65151000Y-52906860D01*
X65149677Y-52920295D01*
X65147549Y-52927309D01*
X65140190Y-52941077D01*
X65130813Y-52963716D01*
X65126033Y-52987749D01*
X65126033Y-53012253D01*
X65130814Y-53036286D01*
X65140190Y-53058923D01*
X65147549Y-53072691D01*
X65149677Y-53079705D01*
X65151000Y-53093140D01*
X65151000Y-53406860D01*
X65149677Y-53420295D01*
X65147549Y-53427309D01*
X65140190Y-53441077D01*
X65130813Y-53463716D01*
X65126033Y-53487749D01*
X65126033Y-53512253D01*
X65130814Y-53536286D01*
X65140190Y-53558923D01*
X65147549Y-53572691D01*
X65149677Y-53579705D01*
X65151000Y-53593140D01*
X65151000Y-53906860D01*
X65149677Y-53920295D01*
X65147549Y-53927309D01*
X65140190Y-53941077D01*
X65130813Y-53963716D01*
X65126033Y-53987749D01*
X65126033Y-54012253D01*
X65130814Y-54036286D01*
X65140190Y-54058923D01*
X65147549Y-54072691D01*
X65149677Y-54079705D01*
X65151000Y-54093140D01*
X65151000Y-54406860D01*
X65149677Y-54420295D01*
X65147549Y-54427309D01*
X65140190Y-54441077D01*
X65130813Y-54463716D01*
X65126033Y-54487749D01*
X65126033Y-54512253D01*
X65130814Y-54536286D01*
X65140190Y-54558923D01*
X65147549Y-54572691D01*
X65149677Y-54579705D01*
X65151000Y-54593140D01*
X65151000Y-54906860D01*
X65149677Y-54920295D01*
X65147549Y-54927310D01*
X65144092Y-54933776D01*
X65139442Y-54939442D01*
X65133776Y-54944092D01*
X65127310Y-54947549D01*
X65120295Y-54949677D01*
X65106860Y-54951000D01*
X63543140Y-54951000D01*
X63529705Y-54949677D01*
X63522690Y-54947549D01*
X63516224Y-54944092D01*
X63510558Y-54939442D01*
X63505908Y-54933776D01*
X63502451Y-54927310D01*
X63500323Y-54920295D01*
X63499000Y-54906860D01*
X63499000Y-54593140D01*
X63500323Y-54579705D01*
X63502451Y-54572691D01*
X63509810Y-54558923D01*
X63519187Y-54536284D01*
X63523967Y-54512251D01*
X63523967Y-54487747D01*
X63519186Y-54463714D01*
X63509810Y-54441077D01*
X63502451Y-54427309D01*
X63500323Y-54420295D01*
X63499000Y-54406860D01*
X63499000Y-54093140D01*
X63500323Y-54079705D01*
X63502451Y-54072691D01*
X63509810Y-54058923D01*
X63519187Y-54036284D01*
X63523967Y-54012251D01*
X63523967Y-53987747D01*
X63519186Y-53963714D01*
X63509810Y-53941077D01*
X63502451Y-53927309D01*
X63500323Y-53920295D01*
X63499000Y-53906860D01*
X63499000Y-53593140D01*
X63500323Y-53579705D01*
X63502451Y-53572691D01*
X63509810Y-53558923D01*
X63519187Y-53536284D01*
X63523967Y-53512251D01*
X63523967Y-53487747D01*
X63519186Y-53463714D01*
X63509810Y-53441077D01*
X63502451Y-53427309D01*
X63500323Y-53420295D01*
X63499000Y-53406860D01*
X63499000Y-53093140D01*
X63500323Y-53079705D01*
X63502451Y-53072691D01*
X63509810Y-53058923D01*
X63519187Y-53036284D01*
X63523967Y-53012251D01*
X63523967Y-52987747D01*
X63519186Y-52963714D01*
X63509810Y-52941077D01*
X63502451Y-52927309D01*
X63500323Y-52920295D01*
X63499000Y-52906860D01*
X63499000Y-52593140D01*
X63500323Y-52579705D01*
X63502451Y-52572691D01*
X63509810Y-52558923D01*
X63519187Y-52536284D01*
X63523967Y-52512251D01*
X63523967Y-52487747D01*
X63519186Y-52463714D01*
X63509810Y-52441077D01*
X63502451Y-52427309D01*
X63500323Y-52420295D01*
X63499000Y-52406860D01*
X63499000Y-52093140D01*
X63500323Y-52079705D01*
X63502451Y-52072691D01*
X63509810Y-52058923D01*
X63519187Y-52036284D01*
X63523967Y-52012251D01*
X63523967Y-51987747D01*
X63519186Y-51963714D01*
X63509810Y-51941077D01*
X63502451Y-51927309D01*
X63500323Y-51920295D01*
X63499000Y-51906860D01*
X63499000Y-51593140D01*
X63500323Y-51579705D01*
X63502451Y-51572691D01*
X63509810Y-51558923D01*
X63519187Y-51536284D01*
X63523967Y-51512251D01*
X63523967Y-51487747D01*
X63519186Y-51463714D01*
X63509810Y-51441077D01*
X63502451Y-51427309D01*
X63500323Y-51420295D01*
X63499000Y-51406860D01*
X63499000Y-51093140D01*
X63500323Y-51079705D01*
X63502451Y-51072691D01*
X63509810Y-51058923D01*
X63519187Y-51036284D01*
X63523967Y-51012251D01*
X63523967Y-50987747D01*
X63519186Y-50963714D01*
X63509810Y-50941077D01*
X63502451Y-50927309D01*
X63500323Y-50920295D01*
X63499000Y-50906860D01*
X63499000Y-50593140D01*
X63500323Y-50579705D01*
X63502451Y-50572691D01*
X63509810Y-50558923D01*
X63519187Y-50536284D01*
X63523967Y-50512251D01*
X63523967Y-50487747D01*
X63519186Y-50463714D01*
X63509810Y-50441077D01*
X63502451Y-50427309D01*
X63500323Y-50420295D01*
X63499000Y-50406860D01*
X63499000Y-50093140D01*
X63500323Y-50079705D01*
X63502451Y-50072691D01*
X63509810Y-50058923D01*
X63519187Y-50036284D01*
X63523967Y-50012251D01*
X63523967Y-49987747D01*
X63519186Y-49963714D01*
X63509810Y-49941077D01*
X63502451Y-49927309D01*
X63500323Y-49920295D01*
X63499000Y-49906860D01*
X63499000Y-49593140D01*
X63500323Y-49579705D01*
X63502451Y-49572691D01*
X63509810Y-49558923D01*
X63519187Y-49536284D01*
X63523967Y-49512251D01*
X63523967Y-49487747D01*
X63519186Y-49463714D01*
X63509810Y-49441077D01*
X63502451Y-49427309D01*
X63500323Y-49420295D01*
X63499000Y-49406860D01*
X63499000Y-49093140D01*
X63500323Y-49079705D01*
X63502451Y-49072691D01*
X63509810Y-49058923D01*
X63519187Y-49036284D01*
X63523967Y-49012251D01*
X63523967Y-48987747D01*
X63519186Y-48963714D01*
X63509810Y-48941077D01*
X63502451Y-48927309D01*
X63500323Y-48920295D01*
X63499000Y-48906860D01*
X63499000Y-48593140D01*
X63500323Y-48579705D01*
X63502451Y-48572691D01*
X63509810Y-48558923D01*
X63519187Y-48536284D01*
X63523967Y-48512251D01*
X63523967Y-48487747D01*
X63519186Y-48463714D01*
X63509810Y-48441077D01*
X63502451Y-48427309D01*
X63500323Y-48420295D01*
X63499000Y-48406860D01*
X63499000Y-48093140D01*
X63500323Y-48079705D01*
X63502451Y-48072691D01*
X63509810Y-48058923D01*
X63519187Y-48036284D01*
X63523967Y-48012251D01*
X63523967Y-47987747D01*
X63519186Y-47963714D01*
X63509810Y-47941077D01*
X63502451Y-47927309D01*
X63500323Y-47920295D01*
X63499000Y-47906860D01*
X63499000Y-47593140D01*
X63500323Y-47579705D01*
X63502451Y-47572691D01*
X63509810Y-47558923D01*
X63519187Y-47536284D01*
X63523967Y-47512251D01*
X63523967Y-47487747D01*
X63519186Y-47463714D01*
X63509810Y-47441077D01*
X63502451Y-47427309D01*
X63500323Y-47420295D01*
X63499000Y-47406860D01*
X63499000Y-47093140D01*
X63500323Y-47079705D01*
X63502451Y-47072690D01*
X63505908Y-47066224D01*
X63510558Y-47060558D01*
X63516224Y-47055908D01*
X63522690Y-47052451D01*
X63529705Y-47050323D01*
X63543140Y-47049000D01*
X65106860Y-47049000D01*
X65120295Y-47050323D01*
G37*
G36*
X61281938Y-54041716D02*
G01*
X61302557Y-54047971D01*
X61321553Y-54058124D01*
X61338208Y-54071792D01*
X61351876Y-54088447D01*
X61362029Y-54107443D01*
X61368284Y-54128062D01*
X61371000Y-54155640D01*
X61371000Y-54614360D01*
X61368284Y-54641938D01*
X61362029Y-54662557D01*
X61351876Y-54681553D01*
X61338208Y-54698208D01*
X61321553Y-54711876D01*
X61302557Y-54722029D01*
X61281938Y-54728284D01*
X61254360Y-54731000D01*
X60745640Y-54731000D01*
X60718062Y-54728284D01*
X60697443Y-54722029D01*
X60678447Y-54711876D01*
X60661792Y-54698208D01*
X60648124Y-54681553D01*
X60637971Y-54662557D01*
X60631716Y-54641938D01*
X60629000Y-54614360D01*
X60629000Y-54155640D01*
X60631716Y-54128062D01*
X60637971Y-54107443D01*
X60648124Y-54088447D01*
X60661792Y-54071792D01*
X60678447Y-54058124D01*
X60697443Y-54047971D01*
X60718062Y-54041716D01*
X60745640Y-54039000D01*
X61254360Y-54039000D01*
X61281938Y-54041716D01*
G37*
G36*
X62281938Y-54041716D02*
G01*
X62302557Y-54047971D01*
X62321553Y-54058124D01*
X62338208Y-54071792D01*
X62351876Y-54088447D01*
X62362029Y-54107443D01*
X62368284Y-54128062D01*
X62371000Y-54155640D01*
X62371000Y-54614360D01*
X62368284Y-54641938D01*
X62362029Y-54662557D01*
X62351876Y-54681553D01*
X62338208Y-54698208D01*
X62321553Y-54711876D01*
X62302557Y-54722029D01*
X62281938Y-54728284D01*
X62254360Y-54731000D01*
X61745640Y-54731000D01*
X61718062Y-54728284D01*
X61697443Y-54722029D01*
X61678447Y-54711876D01*
X61661792Y-54698208D01*
X61648124Y-54681553D01*
X61637971Y-54662557D01*
X61631716Y-54641938D01*
X61629000Y-54614360D01*
X61629000Y-54155640D01*
X61631716Y-54128062D01*
X61637971Y-54107443D01*
X61648124Y-54088447D01*
X61661792Y-54071792D01*
X61678447Y-54058124D01*
X61697443Y-54047971D01*
X61718062Y-54041716D01*
X61745640Y-54039000D01*
X62254360Y-54039000D01*
X62281938Y-54041716D01*
G37*
G36*
X59971968Y-53153565D02*
G01*
X60010638Y-53165296D01*
X60046277Y-53184346D01*
X60077517Y-53209983D01*
X60103154Y-53241223D01*
X60122204Y-53276862D01*
X60133935Y-53315532D01*
X60138500Y-53361888D01*
X60138500Y-54438112D01*
X60133935Y-54484468D01*
X60122204Y-54523138D01*
X60103154Y-54558777D01*
X60077517Y-54590017D01*
X60046277Y-54615654D01*
X60010638Y-54634704D01*
X59971968Y-54646435D01*
X59925612Y-54651000D01*
X59274388Y-54651000D01*
X59228032Y-54646435D01*
X59189362Y-54634704D01*
X59153723Y-54615654D01*
X59122483Y-54590017D01*
X59096846Y-54558777D01*
X59077796Y-54523138D01*
X59066065Y-54484468D01*
X59061500Y-54438112D01*
X59061500Y-53361888D01*
X59066065Y-53315532D01*
X59077796Y-53276862D01*
X59096846Y-53241223D01*
X59122483Y-53209983D01*
X59153723Y-53184346D01*
X59189362Y-53165296D01*
X59228032Y-53153565D01*
X59274388Y-53149000D01*
X59925612Y-53149000D01*
X59971968Y-53153565D01*
G37*
G36*
X58096968Y-53153565D02*
G01*
X58135638Y-53165296D01*
X58171277Y-53184346D01*
X58202517Y-53209983D01*
X58228154Y-53241223D01*
X58247204Y-53276862D01*
X58258935Y-53315532D01*
X58263500Y-53361888D01*
X58263500Y-54438112D01*
X58258935Y-54484468D01*
X58247204Y-54523138D01*
X58228154Y-54558777D01*
X58202517Y-54590017D01*
X58171277Y-54615654D01*
X58135638Y-54634704D01*
X58096968Y-54646435D01*
X58050612Y-54651000D01*
X57399388Y-54651000D01*
X57353032Y-54646435D01*
X57314362Y-54634704D01*
X57278723Y-54615654D01*
X57247483Y-54590017D01*
X57221846Y-54558777D01*
X57202796Y-54523138D01*
X57191065Y-54484468D01*
X57186500Y-54438112D01*
X57186500Y-53361888D01*
X57191065Y-53315532D01*
X57202796Y-53276862D01*
X57221846Y-53241223D01*
X57247483Y-53209983D01*
X57278723Y-53184346D01*
X57314362Y-53165296D01*
X57353032Y-53153565D01*
X57399388Y-53149000D01*
X58050612Y-53149000D01*
X58096968Y-53153565D01*
G37*
G36*
X109306564Y-52489389D02*
G01*
X109497833Y-52568615D01*
X109497835Y-52568616D01*
X109669973Y-52683635D01*
X109816365Y-52830027D01*
X109921752Y-52987749D01*
X109931385Y-53002167D01*
X110010611Y-53193436D01*
X110051000Y-53396484D01*
X110051000Y-53603516D01*
X110010611Y-53806564D01*
X109935563Y-53987747D01*
X109931384Y-53997835D01*
X109816365Y-54169973D01*
X109669973Y-54316365D01*
X109497835Y-54431384D01*
X109497834Y-54431385D01*
X109497833Y-54431385D01*
X109306564Y-54510611D01*
X109103516Y-54551000D01*
X108896484Y-54551000D01*
X108693436Y-54510611D01*
X108502167Y-54431385D01*
X108502166Y-54431385D01*
X108502165Y-54431384D01*
X108330027Y-54316365D01*
X108183635Y-54169973D01*
X108068616Y-53997835D01*
X108064437Y-53987747D01*
X107989389Y-53806564D01*
X107949000Y-53603516D01*
X107949000Y-53396484D01*
X107989389Y-53193436D01*
X108068615Y-53002167D01*
X108078249Y-52987749D01*
X108183635Y-52830027D01*
X108330027Y-52683635D01*
X108502165Y-52568616D01*
X108502167Y-52568615D01*
X108693436Y-52489389D01*
X108896484Y-52449000D01*
X109103516Y-52449000D01*
X109306564Y-52489389D01*
G37*
G36*
X94806564Y-52489389D02*
G01*
X94997833Y-52568615D01*
X94997835Y-52568616D01*
X95169973Y-52683635D01*
X95316365Y-52830027D01*
X95421752Y-52987749D01*
X95431385Y-53002167D01*
X95510611Y-53193436D01*
X95551000Y-53396484D01*
X95551000Y-53603516D01*
X95510611Y-53806564D01*
X95435563Y-53987747D01*
X95431384Y-53997835D01*
X95316365Y-54169973D01*
X95169973Y-54316365D01*
X94997835Y-54431384D01*
X94997834Y-54431385D01*
X94997833Y-54431385D01*
X94806564Y-54510611D01*
X94603516Y-54551000D01*
X94396484Y-54551000D01*
X94193436Y-54510611D01*
X94002167Y-54431385D01*
X94002166Y-54431385D01*
X94002165Y-54431384D01*
X93830027Y-54316365D01*
X93683635Y-54169973D01*
X93568616Y-53997835D01*
X93564437Y-53987747D01*
X93489389Y-53806564D01*
X93449000Y-53603516D01*
X93449000Y-53396484D01*
X93489389Y-53193436D01*
X93568615Y-53002167D01*
X93578249Y-52987749D01*
X93683635Y-52830027D01*
X93830027Y-52683635D01*
X94002165Y-52568616D01*
X94002167Y-52568615D01*
X94193436Y-52489389D01*
X94396484Y-52449000D01*
X94603516Y-52449000D01*
X94806564Y-52489389D01*
G37*
G36*
X46551000Y-54551000D02*
G01*
X44449000Y-54551000D01*
X44449000Y-52449000D01*
X46551000Y-52449000D01*
X46551000Y-54551000D01*
G37*
G36*
X31306564Y-52489389D02*
G01*
X31497833Y-52568615D01*
X31497835Y-52568616D01*
X31669973Y-52683635D01*
X31816365Y-52830027D01*
X31921752Y-52987749D01*
X31931385Y-53002167D01*
X32010611Y-53193436D01*
X32051000Y-53396484D01*
X32051000Y-53603516D01*
X32010611Y-53806564D01*
X31935563Y-53987747D01*
X31931384Y-53997835D01*
X31816365Y-54169973D01*
X31669973Y-54316365D01*
X31497835Y-54431384D01*
X31497834Y-54431385D01*
X31497833Y-54431385D01*
X31306564Y-54510611D01*
X31103516Y-54551000D01*
X30896484Y-54551000D01*
X30693436Y-54510611D01*
X30502167Y-54431385D01*
X30502166Y-54431385D01*
X30502165Y-54431384D01*
X30330027Y-54316365D01*
X30183635Y-54169973D01*
X30068616Y-53997835D01*
X30064437Y-53987747D01*
X29989389Y-53806564D01*
X29949000Y-53603516D01*
X29949000Y-53396484D01*
X29989389Y-53193436D01*
X30068615Y-53002167D01*
X30078249Y-52987749D01*
X30183635Y-52830027D01*
X30330027Y-52683635D01*
X30502165Y-52568616D01*
X30502167Y-52568615D01*
X30693436Y-52489389D01*
X30896484Y-52449000D01*
X31103516Y-52449000D01*
X31306564Y-52489389D01*
G37*
G36*
X61281938Y-53071716D02*
G01*
X61302557Y-53077971D01*
X61321553Y-53088124D01*
X61338208Y-53101792D01*
X61351876Y-53118447D01*
X61362029Y-53137443D01*
X61368284Y-53158062D01*
X61371000Y-53185640D01*
X61371000Y-53644360D01*
X61368284Y-53671938D01*
X61362029Y-53692557D01*
X61351876Y-53711553D01*
X61338208Y-53728208D01*
X61321553Y-53741876D01*
X61302557Y-53752029D01*
X61281938Y-53758284D01*
X61254360Y-53761000D01*
X60745640Y-53761000D01*
X60718062Y-53758284D01*
X60697443Y-53752029D01*
X60678447Y-53741876D01*
X60661792Y-53728208D01*
X60648124Y-53711553D01*
X60637971Y-53692557D01*
X60631716Y-53671938D01*
X60629000Y-53644360D01*
X60629000Y-53185640D01*
X60631716Y-53158062D01*
X60637971Y-53137443D01*
X60648124Y-53118447D01*
X60661792Y-53101792D01*
X60678447Y-53088124D01*
X60697443Y-53077971D01*
X60718062Y-53071716D01*
X60745640Y-53069000D01*
X61254360Y-53069000D01*
X61281938Y-53071716D01*
G37*
G36*
X62281938Y-53071716D02*
G01*
X62302557Y-53077971D01*
X62321553Y-53088124D01*
X62338208Y-53101792D01*
X62351876Y-53118447D01*
X62362029Y-53137443D01*
X62368284Y-53158062D01*
X62371000Y-53185640D01*
X62371000Y-53644360D01*
X62368284Y-53671938D01*
X62362029Y-53692557D01*
X62351876Y-53711553D01*
X62338208Y-53728208D01*
X62321553Y-53741876D01*
X62302557Y-53752029D01*
X62281938Y-53758284D01*
X62254360Y-53761000D01*
X61745640Y-53761000D01*
X61718062Y-53758284D01*
X61697443Y-53752029D01*
X61678447Y-53741876D01*
X61661792Y-53728208D01*
X61648124Y-53711553D01*
X61637971Y-53692557D01*
X61631716Y-53671938D01*
X61629000Y-53644360D01*
X61629000Y-53185640D01*
X61631716Y-53158062D01*
X61637971Y-53137443D01*
X61648124Y-53118447D01*
X61661792Y-53101792D01*
X61678447Y-53088124D01*
X61697443Y-53077971D01*
X61718062Y-53071716D01*
X61745640Y-53069000D01*
X62254360Y-53069000D01*
X62281938Y-53071716D01*
G37*
G36*
X45806564Y-49989389D02*
G01*
X45997833Y-50068615D01*
X45997835Y-50068616D01*
X46169973Y-50183635D01*
X46316365Y-50330027D01*
X46421752Y-50487749D01*
X46431385Y-50502167D01*
X46510611Y-50693436D01*
X46551000Y-50896484D01*
X46551000Y-51103516D01*
X46510611Y-51306564D01*
X46435563Y-51487747D01*
X46431384Y-51497835D01*
X46316365Y-51669973D01*
X46169973Y-51816365D01*
X45997835Y-51931384D01*
X45997834Y-51931385D01*
X45997833Y-51931385D01*
X45806564Y-52010611D01*
X45603516Y-52051000D01*
X45396484Y-52051000D01*
X45193436Y-52010611D01*
X45002167Y-51931385D01*
X45002166Y-51931385D01*
X45002165Y-51931384D01*
X44830027Y-51816365D01*
X44683635Y-51669973D01*
X44568616Y-51497835D01*
X44564437Y-51487747D01*
X44489389Y-51306564D01*
X44449000Y-51103516D01*
X44449000Y-50896484D01*
X44489389Y-50693436D01*
X44568615Y-50502167D01*
X44578249Y-50487749D01*
X44683635Y-50330027D01*
X44830027Y-50183635D01*
X45002165Y-50068616D01*
X45002167Y-50068615D01*
X45193436Y-49989389D01*
X45396484Y-49949000D01*
X45603516Y-49949000D01*
X45806564Y-49989389D01*
G37*
G36*
X94806564Y-49989389D02*
G01*
X94997833Y-50068615D01*
X94997835Y-50068616D01*
X95169973Y-50183635D01*
X95316365Y-50330027D01*
X95421752Y-50487749D01*
X95431385Y-50502167D01*
X95510611Y-50693436D01*
X95551000Y-50896484D01*
X95551000Y-51103516D01*
X95510611Y-51306564D01*
X95435563Y-51487747D01*
X95431384Y-51497835D01*
X95316365Y-51669973D01*
X95169973Y-51816365D01*
X94997835Y-51931384D01*
X94997834Y-51931385D01*
X94997833Y-51931385D01*
X94806564Y-52010611D01*
X94603516Y-52051000D01*
X94396484Y-52051000D01*
X94193436Y-52010611D01*
X94002167Y-51931385D01*
X94002166Y-51931385D01*
X94002165Y-51931384D01*
X93830027Y-51816365D01*
X93683635Y-51669973D01*
X93568616Y-51497835D01*
X93564437Y-51487747D01*
X93489389Y-51306564D01*
X93449000Y-51103516D01*
X93449000Y-50896484D01*
X93489389Y-50693436D01*
X93568615Y-50502167D01*
X93578249Y-50487749D01*
X93683635Y-50330027D01*
X93830027Y-50183635D01*
X94002165Y-50068616D01*
X94002167Y-50068615D01*
X94193436Y-49989389D01*
X94396484Y-49949000D01*
X94603516Y-49949000D01*
X94806564Y-49989389D01*
G37*
G36*
X58871938Y-50931716D02*
G01*
X58892557Y-50937971D01*
X58911553Y-50948124D01*
X58928208Y-50961792D01*
X58941876Y-50978447D01*
X58952029Y-50997443D01*
X58958284Y-51018062D01*
X58961000Y-51045640D01*
X58961000Y-51554360D01*
X58958284Y-51581938D01*
X58952029Y-51602557D01*
X58941876Y-51621553D01*
X58928208Y-51638208D01*
X58911553Y-51651876D01*
X58892557Y-51662029D01*
X58871938Y-51668284D01*
X58844360Y-51671000D01*
X58385640Y-51671000D01*
X58358062Y-51668284D01*
X58337443Y-51662029D01*
X58318447Y-51651876D01*
X58301792Y-51638208D01*
X58288124Y-51621553D01*
X58277971Y-51602557D01*
X58271716Y-51581938D01*
X58269000Y-51554360D01*
X58269000Y-51045640D01*
X58271716Y-51018062D01*
X58277971Y-50997443D01*
X58288124Y-50978447D01*
X58301792Y-50961792D01*
X58318447Y-50948124D01*
X58337443Y-50937971D01*
X58358062Y-50931716D01*
X58385640Y-50929000D01*
X58844360Y-50929000D01*
X58871938Y-50931716D01*
G37*
G36*
X59841938Y-50931716D02*
G01*
X59862557Y-50937971D01*
X59881553Y-50948124D01*
X59898208Y-50961792D01*
X59911876Y-50978447D01*
X59922029Y-50997443D01*
X59928284Y-51018062D01*
X59931000Y-51045640D01*
X59931000Y-51554360D01*
X59928284Y-51581938D01*
X59922029Y-51602557D01*
X59911876Y-51621553D01*
X59898208Y-51638208D01*
X59881553Y-51651876D01*
X59862557Y-51662029D01*
X59841938Y-51668284D01*
X59814360Y-51671000D01*
X59355640Y-51671000D01*
X59328062Y-51668284D01*
X59307443Y-51662029D01*
X59288447Y-51651876D01*
X59271792Y-51638208D01*
X59258124Y-51621553D01*
X59247971Y-51602557D01*
X59241716Y-51581938D01*
X59239000Y-51554360D01*
X59239000Y-51045640D01*
X59241716Y-51018062D01*
X59247971Y-50997443D01*
X59258124Y-50978447D01*
X59271792Y-50961792D01*
X59288447Y-50948124D01*
X59307443Y-50937971D01*
X59328062Y-50931716D01*
X59355640Y-50929000D01*
X59814360Y-50929000D01*
X59841938Y-50931716D01*
G37*
G36*
X60551000Y-50451000D02*
G01*
X59249000Y-50451000D01*
X59249000Y-48949000D01*
X60551000Y-48949000D01*
X60551000Y-50451000D01*
G37*
G36*
X58851000Y-50451000D02*
G01*
X57549000Y-50451000D01*
X57549000Y-48949000D01*
X58851000Y-48949000D01*
X58851000Y-50451000D01*
G37*
G36*
X62956938Y-49331716D02*
G01*
X62977557Y-49337971D01*
X62996553Y-49348124D01*
X63013208Y-49361792D01*
X63026876Y-49378447D01*
X63037029Y-49397443D01*
X63043284Y-49418062D01*
X63046000Y-49445640D01*
X63046000Y-49954360D01*
X63043284Y-49981938D01*
X63037029Y-50002557D01*
X63026876Y-50021553D01*
X63013208Y-50038208D01*
X62996553Y-50051876D01*
X62977557Y-50062029D01*
X62956938Y-50068284D01*
X62929360Y-50071000D01*
X62470640Y-50071000D01*
X62443062Y-50068284D01*
X62422443Y-50062029D01*
X62403447Y-50051876D01*
X62386792Y-50038208D01*
X62373124Y-50021553D01*
X62362971Y-50002557D01*
X62356716Y-49981938D01*
X62354000Y-49954360D01*
X62354000Y-49445640D01*
X62356716Y-49418062D01*
X62362971Y-49397443D01*
X62373124Y-49378447D01*
X62386792Y-49361792D01*
X62403447Y-49348124D01*
X62422443Y-49337971D01*
X62443062Y-49331716D01*
X62470640Y-49329000D01*
X62929360Y-49329000D01*
X62956938Y-49331716D01*
G37*
G36*
X61986938Y-49331716D02*
G01*
X62007557Y-49337971D01*
X62026553Y-49348124D01*
X62043208Y-49361792D01*
X62056876Y-49378447D01*
X62067029Y-49397443D01*
X62073284Y-49418062D01*
X62076000Y-49445640D01*
X62076000Y-49954360D01*
X62073284Y-49981938D01*
X62067029Y-50002557D01*
X62056876Y-50021553D01*
X62043208Y-50038208D01*
X62026553Y-50051876D01*
X62007557Y-50062029D01*
X61986938Y-50068284D01*
X61959360Y-50071000D01*
X61500640Y-50071000D01*
X61473062Y-50068284D01*
X61452443Y-50062029D01*
X61433447Y-50051876D01*
X61416792Y-50038208D01*
X61403124Y-50021553D01*
X61392971Y-50002557D01*
X61386716Y-49981938D01*
X61384000Y-49954360D01*
X61384000Y-49445640D01*
X61386716Y-49418062D01*
X61392971Y-49397443D01*
X61403124Y-49378447D01*
X61416792Y-49361792D01*
X61433447Y-49348124D01*
X61452443Y-49337971D01*
X61473062Y-49331716D01*
X61500640Y-49329000D01*
X61959360Y-49329000D01*
X61986938Y-49331716D01*
G37*
G36*
X109306564Y-47489389D02*
G01*
X109497833Y-47568615D01*
X109497835Y-47568616D01*
X109669973Y-47683635D01*
X109816365Y-47830027D01*
X109921752Y-47987749D01*
X109931385Y-48002167D01*
X110010611Y-48193436D01*
X110051000Y-48396484D01*
X110051000Y-48603516D01*
X110010611Y-48806564D01*
X109935563Y-48987747D01*
X109931384Y-48997835D01*
X109816365Y-49169973D01*
X109669973Y-49316365D01*
X109497835Y-49431384D01*
X109497834Y-49431385D01*
X109497833Y-49431385D01*
X109306564Y-49510611D01*
X109103516Y-49551000D01*
X108896484Y-49551000D01*
X108693436Y-49510611D01*
X108502167Y-49431385D01*
X108502166Y-49431385D01*
X108502165Y-49431384D01*
X108330027Y-49316365D01*
X108183635Y-49169973D01*
X108068616Y-48997835D01*
X108064437Y-48987747D01*
X107989389Y-48806564D01*
X107949000Y-48603516D01*
X107949000Y-48396484D01*
X107989389Y-48193436D01*
X108068615Y-48002167D01*
X108078249Y-47987749D01*
X108183635Y-47830027D01*
X108330027Y-47683635D01*
X108502165Y-47568616D01*
X108502167Y-47568615D01*
X108693436Y-47489389D01*
X108896484Y-47449000D01*
X109103516Y-47449000D01*
X109306564Y-47489389D01*
G37*
G36*
X95551000Y-49551000D02*
G01*
X93449000Y-49551000D01*
X93449000Y-47449000D01*
X95551000Y-47449000D01*
X95551000Y-49551000D01*
G37*
G36*
X45806564Y-47489389D02*
G01*
X45997833Y-47568615D01*
X45997835Y-47568616D01*
X46169973Y-47683635D01*
X46316365Y-47830027D01*
X46421752Y-47987749D01*
X46431385Y-48002167D01*
X46510611Y-48193436D01*
X46551000Y-48396484D01*
X46551000Y-48603516D01*
X46510611Y-48806564D01*
X46435563Y-48987747D01*
X46431384Y-48997835D01*
X46316365Y-49169973D01*
X46169973Y-49316365D01*
X45997835Y-49431384D01*
X45997834Y-49431385D01*
X45997833Y-49431385D01*
X45806564Y-49510611D01*
X45603516Y-49551000D01*
X45396484Y-49551000D01*
X45193436Y-49510611D01*
X45002167Y-49431385D01*
X45002166Y-49431385D01*
X45002165Y-49431384D01*
X44830027Y-49316365D01*
X44683635Y-49169973D01*
X44568616Y-48997835D01*
X44564437Y-48987747D01*
X44489389Y-48806564D01*
X44449000Y-48603516D01*
X44449000Y-48396484D01*
X44489389Y-48193436D01*
X44568615Y-48002167D01*
X44578249Y-47987749D01*
X44683635Y-47830027D01*
X44830027Y-47683635D01*
X45002165Y-47568616D01*
X45002167Y-47568615D01*
X45193436Y-47489389D01*
X45396484Y-47449000D01*
X45603516Y-47449000D01*
X45806564Y-47489389D01*
G37*
G36*
X31306564Y-47489389D02*
G01*
X31497833Y-47568615D01*
X31497835Y-47568616D01*
X31669973Y-47683635D01*
X31816365Y-47830027D01*
X31921752Y-47987749D01*
X31931385Y-48002167D01*
X32010611Y-48193436D01*
X32051000Y-48396484D01*
X32051000Y-48603516D01*
X32010611Y-48806564D01*
X31935563Y-48987747D01*
X31931384Y-48997835D01*
X31816365Y-49169973D01*
X31669973Y-49316365D01*
X31497835Y-49431384D01*
X31497834Y-49431385D01*
X31497833Y-49431385D01*
X31306564Y-49510611D01*
X31103516Y-49551000D01*
X30896484Y-49551000D01*
X30693436Y-49510611D01*
X30502167Y-49431385D01*
X30502166Y-49431385D01*
X30502165Y-49431384D01*
X30330027Y-49316365D01*
X30183635Y-49169973D01*
X30068616Y-48997835D01*
X30064437Y-48987747D01*
X29989389Y-48806564D01*
X29949000Y-48603516D01*
X29949000Y-48396484D01*
X29989389Y-48193436D01*
X30068615Y-48002167D01*
X30078249Y-47987749D01*
X30183635Y-47830027D01*
X30330027Y-47683635D01*
X30502165Y-47568616D01*
X30502167Y-47568615D01*
X30693436Y-47489389D01*
X30896484Y-47449000D01*
X31103516Y-47449000D01*
X31306564Y-47489389D01*
G37*
G36*
X60551000Y-48251000D02*
G01*
X59249000Y-48251000D01*
X59249000Y-46749000D01*
X60551000Y-46749000D01*
X60551000Y-48251000D01*
G37*
G36*
X58851000Y-48251000D02*
G01*
X57549000Y-48251000D01*
X57549000Y-46749000D01*
X58851000Y-46749000D01*
X58851000Y-48251000D01*
G37*
G36*
X77581938Y-47141716D02*
G01*
X77602557Y-47147971D01*
X77621553Y-47158124D01*
X77638208Y-47171792D01*
X77651876Y-47188447D01*
X77662029Y-47207443D01*
X77668284Y-47228062D01*
X77671000Y-47255640D01*
X77671000Y-47714360D01*
X77668284Y-47741938D01*
X77662029Y-47762557D01*
X77651876Y-47781553D01*
X77638208Y-47798208D01*
X77621553Y-47811876D01*
X77602557Y-47822029D01*
X77581938Y-47828284D01*
X77554360Y-47831000D01*
X77045640Y-47831000D01*
X77018062Y-47828284D01*
X76997443Y-47822029D01*
X76978447Y-47811876D01*
X76961792Y-47798208D01*
X76948124Y-47781553D01*
X76937971Y-47762557D01*
X76931716Y-47741938D01*
X76929000Y-47714360D01*
X76929000Y-47255640D01*
X76931716Y-47228062D01*
X76937971Y-47207443D01*
X76948124Y-47188447D01*
X76961792Y-47171792D01*
X76978447Y-47158124D01*
X76997443Y-47147971D01*
X77018062Y-47141716D01*
X77045640Y-47139000D01*
X77554360Y-47139000D01*
X77581938Y-47141716D01*
G37*
G36*
X62981938Y-46941716D02*
G01*
X63002557Y-46947971D01*
X63021553Y-46958124D01*
X63038208Y-46971792D01*
X63051876Y-46988447D01*
X63062029Y-47007443D01*
X63068284Y-47028062D01*
X63071000Y-47055640D01*
X63071000Y-47514360D01*
X63068284Y-47541938D01*
X63062029Y-47562557D01*
X63051876Y-47581553D01*
X63038208Y-47598208D01*
X63021553Y-47611876D01*
X63002557Y-47622029D01*
X62981938Y-47628284D01*
X62954360Y-47631000D01*
X62445640Y-47631000D01*
X62418062Y-47628284D01*
X62397443Y-47622029D01*
X62378447Y-47611876D01*
X62361792Y-47598208D01*
X62348124Y-47581553D01*
X62337971Y-47562557D01*
X62331716Y-47541938D01*
X62329000Y-47514360D01*
X62329000Y-47055640D01*
X62331716Y-47028062D01*
X62337971Y-47007443D01*
X62348124Y-46988447D01*
X62361792Y-46971792D01*
X62378447Y-46958124D01*
X62397443Y-46947971D01*
X62418062Y-46941716D01*
X62445640Y-46939000D01*
X62954360Y-46939000D01*
X62981938Y-46941716D01*
G37*
G36*
X77581938Y-46171716D02*
G01*
X77602557Y-46177971D01*
X77621553Y-46188124D01*
X77638208Y-46201792D01*
X77651876Y-46218447D01*
X77662029Y-46237443D01*
X77668284Y-46258062D01*
X77671000Y-46285640D01*
X77671000Y-46744360D01*
X77668284Y-46771938D01*
X77662029Y-46792557D01*
X77651876Y-46811553D01*
X77638208Y-46828208D01*
X77621553Y-46841876D01*
X77602557Y-46852029D01*
X77581938Y-46858284D01*
X77554360Y-46861000D01*
X77045640Y-46861000D01*
X77018062Y-46858284D01*
X76997443Y-46852029D01*
X76978447Y-46841876D01*
X76961792Y-46828208D01*
X76948124Y-46811553D01*
X76937971Y-46792557D01*
X76931716Y-46771938D01*
X76929000Y-46744360D01*
X76929000Y-46285640D01*
X76931716Y-46258062D01*
X76937971Y-46237443D01*
X76948124Y-46218447D01*
X76961792Y-46201792D01*
X76978447Y-46188124D01*
X76997443Y-46177971D01*
X77018062Y-46171716D01*
X77045640Y-46169000D01*
X77554360Y-46169000D01*
X77581938Y-46171716D01*
G37*
G36*
X62981938Y-45971716D02*
G01*
X63002557Y-45977971D01*
X63021553Y-45988124D01*
X63038208Y-46001792D01*
X63051876Y-46018447D01*
X63062029Y-46037443D01*
X63068284Y-46058062D01*
X63071000Y-46085640D01*
X63071000Y-46544360D01*
X63068284Y-46571938D01*
X63062029Y-46592557D01*
X63051876Y-46611553D01*
X63038208Y-46628208D01*
X63021553Y-46641876D01*
X63002557Y-46652029D01*
X62981938Y-46658284D01*
X62954360Y-46661000D01*
X62445640Y-46661000D01*
X62418062Y-46658284D01*
X62397443Y-46652029D01*
X62378447Y-46641876D01*
X62361792Y-46628208D01*
X62348124Y-46611553D01*
X62337971Y-46592557D01*
X62331716Y-46571938D01*
X62329000Y-46544360D01*
X62329000Y-46085640D01*
X62331716Y-46058062D01*
X62337971Y-46037443D01*
X62348124Y-46018447D01*
X62361792Y-46001792D01*
X62378447Y-45988124D01*
X62397443Y-45977971D01*
X62418062Y-45971716D01*
X62445640Y-45969000D01*
X62954360Y-45969000D01*
X62981938Y-45971716D01*
G37*
G36*
X103651000Y-46451000D02*
G01*
X100349000Y-46451000D01*
X100349000Y-44349000D01*
X103651000Y-44349000D01*
X103651000Y-46451000D01*
G37*
G36*
X39651000Y-46451000D02*
G01*
X36349000Y-46451000D01*
X36349000Y-44349000D01*
X39651000Y-44349000D01*
X39651000Y-46451000D01*
G37*
G36*
X59756938Y-45531716D02*
G01*
X59777557Y-45537971D01*
X59796553Y-45548124D01*
X59813208Y-45561792D01*
X59826876Y-45578447D01*
X59837029Y-45597443D01*
X59843284Y-45618062D01*
X59846000Y-45645640D01*
X59846000Y-46154360D01*
X59843284Y-46181938D01*
X59837029Y-46202557D01*
X59826876Y-46221553D01*
X59813208Y-46238208D01*
X59796553Y-46251876D01*
X59777557Y-46262029D01*
X59756938Y-46268284D01*
X59729360Y-46271000D01*
X59270640Y-46271000D01*
X59243062Y-46268284D01*
X59222443Y-46262029D01*
X59203447Y-46251876D01*
X59186792Y-46238208D01*
X59173124Y-46221553D01*
X59162971Y-46202557D01*
X59156716Y-46181938D01*
X59154000Y-46154360D01*
X59154000Y-45645640D01*
X59156716Y-45618062D01*
X59162971Y-45597443D01*
X59173124Y-45578447D01*
X59186792Y-45561792D01*
X59203447Y-45548124D01*
X59222443Y-45537971D01*
X59243062Y-45531716D01*
X59270640Y-45529000D01*
X59729360Y-45529000D01*
X59756938Y-45531716D01*
G37*
G36*
X58786938Y-45531716D02*
G01*
X58807557Y-45537971D01*
X58826553Y-45548124D01*
X58843208Y-45561792D01*
X58856876Y-45578447D01*
X58867029Y-45597443D01*
X58873284Y-45618062D01*
X58876000Y-45645640D01*
X58876000Y-46154360D01*
X58873284Y-46181938D01*
X58867029Y-46202557D01*
X58856876Y-46221553D01*
X58843208Y-46238208D01*
X58826553Y-46251876D01*
X58807557Y-46262029D01*
X58786938Y-46268284D01*
X58759360Y-46271000D01*
X58300640Y-46271000D01*
X58273062Y-46268284D01*
X58252443Y-46262029D01*
X58233447Y-46251876D01*
X58216792Y-46238208D01*
X58203124Y-46221553D01*
X58192971Y-46202557D01*
X58186716Y-46181938D01*
X58184000Y-46154360D01*
X58184000Y-45645640D01*
X58186716Y-45618062D01*
X58192971Y-45597443D01*
X58203124Y-45578447D01*
X58216792Y-45561792D01*
X58233447Y-45548124D01*
X58252443Y-45537971D01*
X58273062Y-45531716D01*
X58300640Y-45529000D01*
X58759360Y-45529000D01*
X58786938Y-45531716D01*
G37*
G36*
X66420295Y-44500323D02*
G01*
X66427309Y-44502451D01*
X66441077Y-44509810D01*
X66463716Y-44519187D01*
X66487749Y-44523967D01*
X66512253Y-44523967D01*
X66536286Y-44519186D01*
X66558923Y-44509810D01*
X66572691Y-44502451D01*
X66579705Y-44500323D01*
X66593140Y-44499000D01*
X66906860Y-44499000D01*
X66920295Y-44500323D01*
X66927309Y-44502451D01*
X66941077Y-44509810D01*
X66963716Y-44519187D01*
X66987749Y-44523967D01*
X67012253Y-44523967D01*
X67036286Y-44519186D01*
X67058923Y-44509810D01*
X67072691Y-44502451D01*
X67079705Y-44500323D01*
X67093140Y-44499000D01*
X67406860Y-44499000D01*
X67420295Y-44500323D01*
X67427309Y-44502451D01*
X67441077Y-44509810D01*
X67463716Y-44519187D01*
X67487749Y-44523967D01*
X67512253Y-44523967D01*
X67536286Y-44519186D01*
X67558923Y-44509810D01*
X67572691Y-44502451D01*
X67579705Y-44500323D01*
X67593140Y-44499000D01*
X67906860Y-44499000D01*
X67920295Y-44500323D01*
X67927309Y-44502451D01*
X67941077Y-44509810D01*
X67963716Y-44519187D01*
X67987749Y-44523967D01*
X68012253Y-44523967D01*
X68036286Y-44519186D01*
X68058923Y-44509810D01*
X68072691Y-44502451D01*
X68079705Y-44500323D01*
X68093140Y-44499000D01*
X68406860Y-44499000D01*
X68420295Y-44500323D01*
X68427309Y-44502451D01*
X68441077Y-44509810D01*
X68463716Y-44519187D01*
X68487749Y-44523967D01*
X68512253Y-44523967D01*
X68536286Y-44519186D01*
X68558923Y-44509810D01*
X68572691Y-44502451D01*
X68579705Y-44500323D01*
X68593140Y-44499000D01*
X68906860Y-44499000D01*
X68920295Y-44500323D01*
X68927309Y-44502451D01*
X68941077Y-44509810D01*
X68963716Y-44519187D01*
X68987749Y-44523967D01*
X69012253Y-44523967D01*
X69036286Y-44519186D01*
X69058923Y-44509810D01*
X69072691Y-44502451D01*
X69079705Y-44500323D01*
X69093140Y-44499000D01*
X69406860Y-44499000D01*
X69420295Y-44500323D01*
X69427309Y-44502451D01*
X69441077Y-44509810D01*
X69463716Y-44519187D01*
X69487749Y-44523967D01*
X69512253Y-44523967D01*
X69536286Y-44519186D01*
X69558923Y-44509810D01*
X69572691Y-44502451D01*
X69579705Y-44500323D01*
X69593140Y-44499000D01*
X69906860Y-44499000D01*
X69920295Y-44500323D01*
X69927309Y-44502451D01*
X69941077Y-44509810D01*
X69963716Y-44519187D01*
X69987749Y-44523967D01*
X70012253Y-44523967D01*
X70036286Y-44519186D01*
X70058923Y-44509810D01*
X70072691Y-44502451D01*
X70079705Y-44500323D01*
X70093140Y-44499000D01*
X70406860Y-44499000D01*
X70420295Y-44500323D01*
X70427309Y-44502451D01*
X70441077Y-44509810D01*
X70463716Y-44519187D01*
X70487749Y-44523967D01*
X70512253Y-44523967D01*
X70536286Y-44519186D01*
X70558923Y-44509810D01*
X70572691Y-44502451D01*
X70579705Y-44500323D01*
X70593140Y-44499000D01*
X70906860Y-44499000D01*
X70920295Y-44500323D01*
X70927309Y-44502451D01*
X70941077Y-44509810D01*
X70963716Y-44519187D01*
X70987749Y-44523967D01*
X71012253Y-44523967D01*
X71036286Y-44519186D01*
X71058923Y-44509810D01*
X71072691Y-44502451D01*
X71079705Y-44500323D01*
X71093140Y-44499000D01*
X71406860Y-44499000D01*
X71420295Y-44500323D01*
X71427309Y-44502451D01*
X71441077Y-44509810D01*
X71463716Y-44519187D01*
X71487749Y-44523967D01*
X71512253Y-44523967D01*
X71536286Y-44519186D01*
X71558923Y-44509810D01*
X71572691Y-44502451D01*
X71579705Y-44500323D01*
X71593140Y-44499000D01*
X71906860Y-44499000D01*
X71920295Y-44500323D01*
X71927309Y-44502451D01*
X71941077Y-44509810D01*
X71963716Y-44519187D01*
X71987749Y-44523967D01*
X72012253Y-44523967D01*
X72036286Y-44519186D01*
X72058923Y-44509810D01*
X72072691Y-44502451D01*
X72079705Y-44500323D01*
X72093140Y-44499000D01*
X72406860Y-44499000D01*
X72420295Y-44500323D01*
X72427309Y-44502451D01*
X72441077Y-44509810D01*
X72463716Y-44519187D01*
X72487749Y-44523967D01*
X72512253Y-44523967D01*
X72536286Y-44519186D01*
X72558923Y-44509810D01*
X72572691Y-44502451D01*
X72579705Y-44500323D01*
X72593140Y-44499000D01*
X72906860Y-44499000D01*
X72920295Y-44500323D01*
X72927309Y-44502451D01*
X72941077Y-44509810D01*
X72963716Y-44519187D01*
X72987749Y-44523967D01*
X73012253Y-44523967D01*
X73036286Y-44519186D01*
X73058923Y-44509810D01*
X73072691Y-44502451D01*
X73079705Y-44500323D01*
X73093140Y-44499000D01*
X73406860Y-44499000D01*
X73420295Y-44500323D01*
X73427309Y-44502451D01*
X73441077Y-44509810D01*
X73463716Y-44519187D01*
X73487749Y-44523967D01*
X73512253Y-44523967D01*
X73536286Y-44519186D01*
X73558923Y-44509810D01*
X73572691Y-44502451D01*
X73579705Y-44500323D01*
X73593140Y-44499000D01*
X73906860Y-44499000D01*
X73920295Y-44500323D01*
X73927310Y-44502451D01*
X73933776Y-44505908D01*
X73939442Y-44510558D01*
X73944092Y-44516224D01*
X73947549Y-44522690D01*
X73949677Y-44529705D01*
X73951000Y-44543140D01*
X73951000Y-46106860D01*
X73949677Y-46120295D01*
X73947549Y-46127310D01*
X73944092Y-46133776D01*
X73939442Y-46139442D01*
X73933776Y-46144092D01*
X73927310Y-46147549D01*
X73920295Y-46149677D01*
X73906860Y-46151000D01*
X73593140Y-46151000D01*
X73579705Y-46149677D01*
X73572691Y-46147549D01*
X73558923Y-46140190D01*
X73536284Y-46130813D01*
X73512251Y-46126033D01*
X73487747Y-46126033D01*
X73463714Y-46130814D01*
X73441077Y-46140190D01*
X73427309Y-46147549D01*
X73420295Y-46149677D01*
X73406860Y-46151000D01*
X73093140Y-46151000D01*
X73079705Y-46149677D01*
X73072691Y-46147549D01*
X73058923Y-46140190D01*
X73036284Y-46130813D01*
X73012251Y-46126033D01*
X72987747Y-46126033D01*
X72963714Y-46130814D01*
X72941077Y-46140190D01*
X72927309Y-46147549D01*
X72920295Y-46149677D01*
X72906860Y-46151000D01*
X72593140Y-46151000D01*
X72579705Y-46149677D01*
X72572691Y-46147549D01*
X72558923Y-46140190D01*
X72536284Y-46130813D01*
X72512251Y-46126033D01*
X72487747Y-46126033D01*
X72463714Y-46130814D01*
X72441077Y-46140190D01*
X72427309Y-46147549D01*
X72420295Y-46149677D01*
X72406860Y-46151000D01*
X72093140Y-46151000D01*
X72079705Y-46149677D01*
X72072691Y-46147549D01*
X72058923Y-46140190D01*
X72036284Y-46130813D01*
X72012251Y-46126033D01*
X71987747Y-46126033D01*
X71963714Y-46130814D01*
X71941077Y-46140190D01*
X71927309Y-46147549D01*
X71920295Y-46149677D01*
X71906860Y-46151000D01*
X71593140Y-46151000D01*
X71579705Y-46149677D01*
X71572691Y-46147549D01*
X71558923Y-46140190D01*
X71536284Y-46130813D01*
X71512251Y-46126033D01*
X71487747Y-46126033D01*
X71463714Y-46130814D01*
X71441077Y-46140190D01*
X71427309Y-46147549D01*
X71420295Y-46149677D01*
X71406860Y-46151000D01*
X71093140Y-46151000D01*
X71079705Y-46149677D01*
X71072691Y-46147549D01*
X71058923Y-46140190D01*
X71036284Y-46130813D01*
X71012251Y-46126033D01*
X70987747Y-46126033D01*
X70963714Y-46130814D01*
X70941077Y-46140190D01*
X70927309Y-46147549D01*
X70920295Y-46149677D01*
X70906860Y-46151000D01*
X70593140Y-46151000D01*
X70579705Y-46149677D01*
X70572691Y-46147549D01*
X70558923Y-46140190D01*
X70536284Y-46130813D01*
X70512251Y-46126033D01*
X70487747Y-46126033D01*
X70463714Y-46130814D01*
X70441077Y-46140190D01*
X70427309Y-46147549D01*
X70420295Y-46149677D01*
X70406860Y-46151000D01*
X70093140Y-46151000D01*
X70079705Y-46149677D01*
X70072691Y-46147549D01*
X70058923Y-46140190D01*
X70036284Y-46130813D01*
X70012251Y-46126033D01*
X69987747Y-46126033D01*
X69963714Y-46130814D01*
X69941077Y-46140190D01*
X69927309Y-46147549D01*
X69920295Y-46149677D01*
X69906860Y-46151000D01*
X69593140Y-46151000D01*
X69579705Y-46149677D01*
X69572691Y-46147549D01*
X69558923Y-46140190D01*
X69536284Y-46130813D01*
X69512251Y-46126033D01*
X69487747Y-46126033D01*
X69463714Y-46130814D01*
X69441077Y-46140190D01*
X69427309Y-46147549D01*
X69420295Y-46149677D01*
X69406860Y-46151000D01*
X69093140Y-46151000D01*
X69079705Y-46149677D01*
X69072691Y-46147549D01*
X69058923Y-46140190D01*
X69036284Y-46130813D01*
X69012251Y-46126033D01*
X68987747Y-46126033D01*
X68963714Y-46130814D01*
X68941077Y-46140190D01*
X68927309Y-46147549D01*
X68920295Y-46149677D01*
X68906860Y-46151000D01*
X68593140Y-46151000D01*
X68579705Y-46149677D01*
X68572691Y-46147549D01*
X68558923Y-46140190D01*
X68536284Y-46130813D01*
X68512251Y-46126033D01*
X68487747Y-46126033D01*
X68463714Y-46130814D01*
X68441077Y-46140190D01*
X68427309Y-46147549D01*
X68420295Y-46149677D01*
X68406860Y-46151000D01*
X68093140Y-46151000D01*
X68079705Y-46149677D01*
X68072691Y-46147549D01*
X68058923Y-46140190D01*
X68036284Y-46130813D01*
X68012251Y-46126033D01*
X67987747Y-46126033D01*
X67963714Y-46130814D01*
X67941077Y-46140190D01*
X67927309Y-46147549D01*
X67920295Y-46149677D01*
X67906860Y-46151000D01*
X67593140Y-46151000D01*
X67579705Y-46149677D01*
X67572691Y-46147549D01*
X67558923Y-46140190D01*
X67536284Y-46130813D01*
X67512251Y-46126033D01*
X67487747Y-46126033D01*
X67463714Y-46130814D01*
X67441077Y-46140190D01*
X67427309Y-46147549D01*
X67420295Y-46149677D01*
X67406860Y-46151000D01*
X67093140Y-46151000D01*
X67079705Y-46149677D01*
X67072691Y-46147549D01*
X67058923Y-46140190D01*
X67036284Y-46130813D01*
X67012251Y-46126033D01*
X66987747Y-46126033D01*
X66963714Y-46130814D01*
X66941077Y-46140190D01*
X66927309Y-46147549D01*
X66920295Y-46149677D01*
X66906860Y-46151000D01*
X66593140Y-46151000D01*
X66579705Y-46149677D01*
X66572691Y-46147549D01*
X66558923Y-46140190D01*
X66536284Y-46130813D01*
X66512251Y-46126033D01*
X66487747Y-46126033D01*
X66463714Y-46130814D01*
X66441077Y-46140190D01*
X66427309Y-46147549D01*
X66420295Y-46149677D01*
X66406860Y-46151000D01*
X66093140Y-46151000D01*
X66079705Y-46149677D01*
X66072690Y-46147549D01*
X66066224Y-46144092D01*
X66060558Y-46139442D01*
X66055908Y-46133776D01*
X66052451Y-46127310D01*
X66050323Y-46120295D01*
X66049000Y-46106860D01*
X66049000Y-44543140D01*
X66050323Y-44529705D01*
X66052451Y-44522690D01*
X66055908Y-44516224D01*
X66060558Y-44510558D01*
X66066224Y-44505908D01*
X66072690Y-44502451D01*
X66079705Y-44500323D01*
X66093140Y-44499000D01*
X66406860Y-44499000D01*
X66420295Y-44500323D01*
G37*
G36*
X63079591Y-44515585D02*
G01*
X63113569Y-44525893D01*
X63144890Y-44542634D01*
X63172339Y-44565161D01*
X63194866Y-44592610D01*
X63211607Y-44623931D01*
X63221915Y-44657909D01*
X63226000Y-44699390D01*
X63226000Y-45300610D01*
X63221915Y-45342091D01*
X63211607Y-45376069D01*
X63194866Y-45407390D01*
X63172339Y-45434839D01*
X63144890Y-45457366D01*
X63113569Y-45474107D01*
X63079591Y-45484415D01*
X63038110Y-45488500D01*
X62361890Y-45488500D01*
X62320409Y-45484415D01*
X62286431Y-45474107D01*
X62255110Y-45457366D01*
X62227661Y-45434839D01*
X62205134Y-45407390D01*
X62188393Y-45376069D01*
X62178085Y-45342091D01*
X62174000Y-45300610D01*
X62174000Y-44699390D01*
X62178085Y-44657909D01*
X62188393Y-44623931D01*
X62205134Y-44592610D01*
X62227661Y-44565161D01*
X62255110Y-44542634D01*
X62286431Y-44525893D01*
X62320409Y-44515585D01*
X62361890Y-44511500D01*
X63038110Y-44511500D01*
X63079591Y-44515585D01*
G37*
G36*
X68581938Y-43426716D02*
G01*
X68602557Y-43432971D01*
X68621553Y-43443124D01*
X68638208Y-43456792D01*
X68651876Y-43473447D01*
X68662029Y-43492443D01*
X68668284Y-43513062D01*
X68671000Y-43540640D01*
X68671000Y-43999360D01*
X68668284Y-44026938D01*
X68662029Y-44047557D01*
X68651876Y-44066553D01*
X68638208Y-44083208D01*
X68621553Y-44096876D01*
X68602557Y-44107029D01*
X68581938Y-44113284D01*
X68554360Y-44116000D01*
X68045640Y-44116000D01*
X68018062Y-44113284D01*
X67997443Y-44107029D01*
X67978447Y-44096876D01*
X67961792Y-44083208D01*
X67948124Y-44066553D01*
X67937971Y-44047557D01*
X67931716Y-44026938D01*
X67929000Y-43999360D01*
X67929000Y-43540640D01*
X67931716Y-43513062D01*
X67937971Y-43492443D01*
X67948124Y-43473447D01*
X67961792Y-43456792D01*
X67978447Y-43443124D01*
X67997443Y-43432971D01*
X68018062Y-43426716D01*
X68045640Y-43424000D01*
X68554360Y-43424000D01*
X68581938Y-43426716D01*
G37*
G36*
X65771938Y-43331716D02*
G01*
X65792557Y-43337971D01*
X65811553Y-43348124D01*
X65828208Y-43361792D01*
X65841876Y-43378447D01*
X65852029Y-43397443D01*
X65858284Y-43418062D01*
X65861000Y-43445640D01*
X65861000Y-43954360D01*
X65858284Y-43981938D01*
X65852029Y-44002557D01*
X65841876Y-44021553D01*
X65828208Y-44038208D01*
X65811553Y-44051876D01*
X65792557Y-44062029D01*
X65771938Y-44068284D01*
X65744360Y-44071000D01*
X65285640Y-44071000D01*
X65258062Y-44068284D01*
X65237443Y-44062029D01*
X65218447Y-44051876D01*
X65201792Y-44038208D01*
X65188124Y-44021553D01*
X65177971Y-44002557D01*
X65171716Y-43981938D01*
X65169000Y-43954360D01*
X65169000Y-43445640D01*
X65171716Y-43418062D01*
X65177971Y-43397443D01*
X65188124Y-43378447D01*
X65201792Y-43361792D01*
X65218447Y-43348124D01*
X65237443Y-43337971D01*
X65258062Y-43331716D01*
X65285640Y-43329000D01*
X65744360Y-43329000D01*
X65771938Y-43331716D01*
G37*
G36*
X66741938Y-43331716D02*
G01*
X66762557Y-43337971D01*
X66781553Y-43348124D01*
X66798208Y-43361792D01*
X66811876Y-43378447D01*
X66822029Y-43397443D01*
X66828284Y-43418062D01*
X66831000Y-43445640D01*
X66831000Y-43954360D01*
X66828284Y-43981938D01*
X66822029Y-44002557D01*
X66811876Y-44021553D01*
X66798208Y-44038208D01*
X66781553Y-44051876D01*
X66762557Y-44062029D01*
X66741938Y-44068284D01*
X66714360Y-44071000D01*
X66255640Y-44071000D01*
X66228062Y-44068284D01*
X66207443Y-44062029D01*
X66188447Y-44051876D01*
X66171792Y-44038208D01*
X66158124Y-44021553D01*
X66147971Y-44002557D01*
X66141716Y-43981938D01*
X66139000Y-43954360D01*
X66139000Y-43445640D01*
X66141716Y-43418062D01*
X66147971Y-43397443D01*
X66158124Y-43378447D01*
X66171792Y-43361792D01*
X66188447Y-43348124D01*
X66207443Y-43337971D01*
X66228062Y-43331716D01*
X66255640Y-43329000D01*
X66714360Y-43329000D01*
X66741938Y-43331716D01*
G37*
G36*
X63079591Y-42940585D02*
G01*
X63113569Y-42950893D01*
X63144890Y-42967634D01*
X63172339Y-42990161D01*
X63194866Y-43017610D01*
X63211607Y-43048931D01*
X63221915Y-43082909D01*
X63226000Y-43124390D01*
X63226000Y-43725610D01*
X63221915Y-43767091D01*
X63211607Y-43801069D01*
X63194866Y-43832390D01*
X63172339Y-43859839D01*
X63144890Y-43882366D01*
X63113569Y-43899107D01*
X63079591Y-43909415D01*
X63038110Y-43913500D01*
X62361890Y-43913500D01*
X62320409Y-43909415D01*
X62286431Y-43899107D01*
X62255110Y-43882366D01*
X62227661Y-43859839D01*
X62205134Y-43832390D01*
X62188393Y-43801069D01*
X62178085Y-43767091D01*
X62174000Y-43725610D01*
X62174000Y-43124390D01*
X62178085Y-43082909D01*
X62188393Y-43048931D01*
X62205134Y-43017610D01*
X62227661Y-42990161D01*
X62255110Y-42967634D01*
X62286431Y-42950893D01*
X62320409Y-42940585D01*
X62361890Y-42936500D01*
X63038110Y-42936500D01*
X63079591Y-42940585D01*
G37*
G36*
X68581938Y-42456716D02*
G01*
X68602557Y-42462971D01*
X68621553Y-42473124D01*
X68638208Y-42486792D01*
X68651876Y-42503447D01*
X68662029Y-42522443D01*
X68668284Y-42543062D01*
X68671000Y-42570640D01*
X68671000Y-43029360D01*
X68668284Y-43056938D01*
X68662029Y-43077557D01*
X68651876Y-43096553D01*
X68638208Y-43113208D01*
X68621553Y-43126876D01*
X68602557Y-43137029D01*
X68581938Y-43143284D01*
X68554360Y-43146000D01*
X68045640Y-43146000D01*
X68018062Y-43143284D01*
X67997443Y-43137029D01*
X67978447Y-43126876D01*
X67961792Y-43113208D01*
X67948124Y-43096553D01*
X67937971Y-43077557D01*
X67931716Y-43056938D01*
X67929000Y-43029360D01*
X67929000Y-42570640D01*
X67931716Y-42543062D01*
X67937971Y-42522443D01*
X67948124Y-42503447D01*
X67961792Y-42486792D01*
X67978447Y-42473124D01*
X67997443Y-42462971D01*
X68018062Y-42456716D01*
X68045640Y-42454000D01*
X68554360Y-42454000D01*
X68581938Y-42456716D01*
G37*
G36*
X67196968Y-36353565D02*
G01*
X67235638Y-36365296D01*
X67271277Y-36384346D01*
X67302517Y-36409983D01*
X67328154Y-36441223D01*
X67347204Y-36476862D01*
X67358935Y-36515532D01*
X67363500Y-36561888D01*
X67363500Y-37638112D01*
X67358935Y-37684468D01*
X67347204Y-37723138D01*
X67328154Y-37758777D01*
X67302517Y-37790017D01*
X67271277Y-37815654D01*
X67235638Y-37834704D01*
X67196968Y-37846435D01*
X67150612Y-37851000D01*
X66499388Y-37851000D01*
X66453032Y-37846435D01*
X66414362Y-37834704D01*
X66378723Y-37815654D01*
X66347483Y-37790017D01*
X66321846Y-37758777D01*
X66302796Y-37723138D01*
X66291065Y-37684468D01*
X66286500Y-37638112D01*
X66286500Y-36561888D01*
X66291065Y-36515532D01*
X66302796Y-36476862D01*
X66321846Y-36441223D01*
X66347483Y-36409983D01*
X66378723Y-36384346D01*
X66414362Y-36365296D01*
X66453032Y-36353565D01*
X66499388Y-36349000D01*
X67150612Y-36349000D01*
X67196968Y-36353565D01*
G37*
G36*
X69071968Y-36353565D02*
G01*
X69110638Y-36365296D01*
X69146277Y-36384346D01*
X69177517Y-36409983D01*
X69203154Y-36441223D01*
X69222204Y-36476862D01*
X69233935Y-36515532D01*
X69238500Y-36561888D01*
X69238500Y-37638112D01*
X69233935Y-37684468D01*
X69222204Y-37723138D01*
X69203154Y-37758777D01*
X69177517Y-37790017D01*
X69146277Y-37815654D01*
X69110638Y-37834704D01*
X69071968Y-37846435D01*
X69025612Y-37851000D01*
X68374388Y-37851000D01*
X68328032Y-37846435D01*
X68289362Y-37834704D01*
X68253723Y-37815654D01*
X68222483Y-37790017D01*
X68196846Y-37758777D01*
X68177796Y-37723138D01*
X68166065Y-37684468D01*
X68161500Y-37638112D01*
X68161500Y-36561888D01*
X68166065Y-36515532D01*
X68177796Y-36476862D01*
X68196846Y-36441223D01*
X68222483Y-36409983D01*
X68253723Y-36384346D01*
X68289362Y-36365296D01*
X68328032Y-36353565D01*
X68374388Y-36349000D01*
X69025612Y-36349000D01*
X69071968Y-36353565D01*
G37*
G36*
X72101000Y-37701000D02*
G01*
X69999000Y-37701000D01*
X69999000Y-36099000D01*
X72101000Y-36099000D01*
X72101000Y-37701000D01*
G37*
G36*
X78401000Y-36551000D02*
G01*
X76299000Y-36551000D01*
X76299000Y-32649000D01*
X78401000Y-32649000D01*
X78401000Y-36551000D01*
G37*
G36*
X80004591Y-35078085D02*
G01*
X80038569Y-35088393D01*
X80069890Y-35105134D01*
X80097339Y-35127661D01*
X80119866Y-35155110D01*
X80136607Y-35186431D01*
X80146915Y-35220409D01*
X80151000Y-35261890D01*
X80151000Y-35938110D01*
X80146915Y-35979591D01*
X80136607Y-36013569D01*
X80119866Y-36044890D01*
X80097339Y-36072339D01*
X80069890Y-36094866D01*
X80038569Y-36111607D01*
X80004591Y-36121915D01*
X79963110Y-36126000D01*
X79361890Y-36126000D01*
X79320409Y-36121915D01*
X79286431Y-36111607D01*
X79255110Y-36094866D01*
X79227661Y-36072339D01*
X79205134Y-36044890D01*
X79188393Y-36013569D01*
X79178085Y-35979591D01*
X79174000Y-35938110D01*
X79174000Y-35261890D01*
X79178085Y-35220409D01*
X79188393Y-35186431D01*
X79205134Y-35155110D01*
X79227661Y-35127661D01*
X79255110Y-35105134D01*
X79286431Y-35088393D01*
X79320409Y-35078085D01*
X79361890Y-35074000D01*
X79963110Y-35074000D01*
X80004591Y-35078085D01*
G37*
G36*
X81579591Y-35078085D02*
G01*
X81613569Y-35088393D01*
X81644890Y-35105134D01*
X81672339Y-35127661D01*
X81694866Y-35155110D01*
X81711607Y-35186431D01*
X81721915Y-35220409D01*
X81726000Y-35261890D01*
X81726000Y-35938110D01*
X81721915Y-35979591D01*
X81711607Y-36013569D01*
X81694866Y-36044890D01*
X81672339Y-36072339D01*
X81644890Y-36094866D01*
X81613569Y-36111607D01*
X81579591Y-36121915D01*
X81538110Y-36126000D01*
X80936890Y-36126000D01*
X80895409Y-36121915D01*
X80861431Y-36111607D01*
X80830110Y-36094866D01*
X80802661Y-36072339D01*
X80780134Y-36044890D01*
X80763393Y-36013569D01*
X80753085Y-35979591D01*
X80749000Y-35938110D01*
X80749000Y-35261890D01*
X80753085Y-35220409D01*
X80763393Y-35186431D01*
X80780134Y-35155110D01*
X80802661Y-35127661D01*
X80830110Y-35105134D01*
X80861431Y-35088393D01*
X80895409Y-35078085D01*
X80936890Y-35074000D01*
X81538110Y-35074000D01*
X81579591Y-35078085D01*
G37*
G36*
X72101000Y-35401000D02*
G01*
X69999000Y-35401000D01*
X69999000Y-33799000D01*
X72101000Y-33799000D01*
X72101000Y-35401000D01*
G37*
G36*
X66284468Y-33941065D02*
G01*
X66323138Y-33952796D01*
X66358777Y-33971846D01*
X66390017Y-33997483D01*
X66415654Y-34028723D01*
X66434704Y-34064362D01*
X66446435Y-34103032D01*
X66451000Y-34149388D01*
X66451000Y-34800612D01*
X66446435Y-34846968D01*
X66434704Y-34885638D01*
X66415654Y-34921277D01*
X66390017Y-34952517D01*
X66358777Y-34978154D01*
X66323138Y-34997204D01*
X66284468Y-35008935D01*
X66238112Y-35013500D01*
X65161888Y-35013500D01*
X65115532Y-35008935D01*
X65076862Y-34997204D01*
X65041223Y-34978154D01*
X65009983Y-34952517D01*
X64984346Y-34921277D01*
X64965296Y-34885638D01*
X64953565Y-34846968D01*
X64949000Y-34800612D01*
X64949000Y-34149388D01*
X64953565Y-34103032D01*
X64965296Y-34064362D01*
X64984346Y-34028723D01*
X65009983Y-33997483D01*
X65041223Y-33971846D01*
X65076862Y-33952796D01*
X65115532Y-33941065D01*
X65161888Y-33936500D01*
X66238112Y-33936500D01*
X66284468Y-33941065D01*
G37*
G36*
X80534468Y-33253565D02*
G01*
X80573138Y-33265296D01*
X80608777Y-33284346D01*
X80640017Y-33309983D01*
X80665654Y-33341223D01*
X80684704Y-33376862D01*
X80696435Y-33415532D01*
X80701000Y-33461888D01*
X80701000Y-34113112D01*
X80696435Y-34159468D01*
X80684704Y-34198138D01*
X80665654Y-34233777D01*
X80640017Y-34265017D01*
X80608777Y-34290654D01*
X80573138Y-34309704D01*
X80534468Y-34321435D01*
X80488112Y-34326000D01*
X79411888Y-34326000D01*
X79365532Y-34321435D01*
X79326862Y-34309704D01*
X79291223Y-34290654D01*
X79259983Y-34265017D01*
X79234346Y-34233777D01*
X79215296Y-34198138D01*
X79203565Y-34159468D01*
X79199000Y-34113112D01*
X79199000Y-33461888D01*
X79203565Y-33415532D01*
X79215296Y-33376862D01*
X79234346Y-33341223D01*
X79259983Y-33309983D01*
X79291223Y-33284346D01*
X79326862Y-33265296D01*
X79365532Y-33253565D01*
X79411888Y-33249000D01*
X80488112Y-33249000D01*
X80534468Y-33253565D01*
G37*
G36*
X82329591Y-32940585D02*
G01*
X82363569Y-32950893D01*
X82394890Y-32967634D01*
X82422339Y-32990161D01*
X82444866Y-33017610D01*
X82461607Y-33048931D01*
X82471915Y-33082909D01*
X82476000Y-33124390D01*
X82476000Y-33725610D01*
X82471915Y-33767091D01*
X82461607Y-33801069D01*
X82444866Y-33832390D01*
X82422339Y-33859839D01*
X82394890Y-33882366D01*
X82363569Y-33899107D01*
X82329591Y-33909415D01*
X82288110Y-33913500D01*
X81611890Y-33913500D01*
X81570409Y-33909415D01*
X81536431Y-33899107D01*
X81505110Y-33882366D01*
X81477661Y-33859839D01*
X81455134Y-33832390D01*
X81438393Y-33801069D01*
X81428085Y-33767091D01*
X81424000Y-33725610D01*
X81424000Y-33124390D01*
X81428085Y-33082909D01*
X81438393Y-33048931D01*
X81455134Y-33017610D01*
X81477661Y-32990161D01*
X81505110Y-32967634D01*
X81536431Y-32950893D01*
X81570409Y-32940585D01*
X81611890Y-32936500D01*
X82288110Y-32936500D01*
X82329591Y-32940585D01*
G37*
G36*
X66284468Y-32066065D02*
G01*
X66323138Y-32077796D01*
X66358777Y-32096846D01*
X66390017Y-32122483D01*
X66415654Y-32153723D01*
X66434704Y-32189362D01*
X66446435Y-32228032D01*
X66451000Y-32274388D01*
X66451000Y-32925612D01*
X66446435Y-32971968D01*
X66434704Y-33010638D01*
X66415654Y-33046277D01*
X66390017Y-33077517D01*
X66358777Y-33103154D01*
X66323138Y-33122204D01*
X66284468Y-33133935D01*
X66238112Y-33138500D01*
X65161888Y-33138500D01*
X65115532Y-33133935D01*
X65076862Y-33122204D01*
X65041223Y-33103154D01*
X65009983Y-33077517D01*
X64984346Y-33046277D01*
X64965296Y-33010638D01*
X64953565Y-32971968D01*
X64949000Y-32925612D01*
X64949000Y-32274388D01*
X64953565Y-32228032D01*
X64965296Y-32189362D01*
X64984346Y-32153723D01*
X65009983Y-32122483D01*
X65041223Y-32096846D01*
X65076862Y-32077796D01*
X65115532Y-32066065D01*
X65161888Y-32061500D01*
X66238112Y-32061500D01*
X66284468Y-32066065D01*
G37*
G36*
X72101000Y-33101000D02*
G01*
X69999000Y-33101000D01*
X69999000Y-31499000D01*
X72101000Y-31499000D01*
X72101000Y-33101000D01*
G37*
G36*
X62968604Y-31578347D02*
G01*
X63005144Y-31589432D01*
X63038821Y-31607433D01*
X63068341Y-31631659D01*
X63092567Y-31661179D01*
X63110568Y-31694856D01*
X63121653Y-31731396D01*
X63126000Y-31775538D01*
X63126000Y-32724462D01*
X63121653Y-32768604D01*
X63110568Y-32805144D01*
X63092567Y-32838821D01*
X63068341Y-32868341D01*
X63038821Y-32892567D01*
X63005144Y-32910568D01*
X62968604Y-32921653D01*
X62924462Y-32926000D01*
X61475538Y-32926000D01*
X61431396Y-32921653D01*
X61394856Y-32910568D01*
X61361179Y-32892567D01*
X61331659Y-32868341D01*
X61307433Y-32838821D01*
X61289432Y-32805144D01*
X61278347Y-32768604D01*
X61274000Y-32724462D01*
X61274000Y-31775538D01*
X61278347Y-31731396D01*
X61289432Y-31694856D01*
X61307433Y-31661179D01*
X61331659Y-31631659D01*
X61361179Y-31607433D01*
X61394856Y-31589432D01*
X61431396Y-31578347D01*
X61475538Y-31574000D01*
X62924462Y-31574000D01*
X62968604Y-31578347D01*
G37*
G36*
X80534468Y-31378565D02*
G01*
X80573138Y-31390296D01*
X80608777Y-31409346D01*
X80640017Y-31434983D01*
X80665654Y-31466223D01*
X80684704Y-31501862D01*
X80696435Y-31540532D01*
X80701000Y-31586888D01*
X80701000Y-32238112D01*
X80696435Y-32284468D01*
X80684704Y-32323138D01*
X80665654Y-32358777D01*
X80640017Y-32390017D01*
X80608777Y-32415654D01*
X80573138Y-32434704D01*
X80534468Y-32446435D01*
X80488112Y-32451000D01*
X79411888Y-32451000D01*
X79365532Y-32446435D01*
X79326862Y-32434704D01*
X79291223Y-32415654D01*
X79259983Y-32390017D01*
X79234346Y-32358777D01*
X79215296Y-32323138D01*
X79203565Y-32284468D01*
X79199000Y-32238112D01*
X79199000Y-31586888D01*
X79203565Y-31540532D01*
X79215296Y-31501862D01*
X79234346Y-31466223D01*
X79259983Y-31434983D01*
X79291223Y-31409346D01*
X79326862Y-31390296D01*
X79365532Y-31378565D01*
X79411888Y-31374000D01*
X80488112Y-31374000D01*
X80534468Y-31378565D01*
G37*
G36*
X82329591Y-31365585D02*
G01*
X82363569Y-31375893D01*
X82394890Y-31392634D01*
X82422339Y-31415161D01*
X82444866Y-31442610D01*
X82461607Y-31473931D01*
X82471915Y-31507909D01*
X82476000Y-31549390D01*
X82476000Y-32150610D01*
X82471915Y-32192091D01*
X82461607Y-32226069D01*
X82444866Y-32257390D01*
X82422339Y-32284839D01*
X82394890Y-32307366D01*
X82363569Y-32324107D01*
X82329591Y-32334415D01*
X82288110Y-32338500D01*
X81611890Y-32338500D01*
X81570409Y-32334415D01*
X81536431Y-32324107D01*
X81505110Y-32307366D01*
X81477661Y-32284839D01*
X81455134Y-32257390D01*
X81438393Y-32226069D01*
X81428085Y-32192091D01*
X81424000Y-32150610D01*
X81424000Y-31549390D01*
X81428085Y-31507909D01*
X81438393Y-31473931D01*
X81455134Y-31442610D01*
X81477661Y-31415161D01*
X81505110Y-31392634D01*
X81536431Y-31375893D01*
X81570409Y-31365585D01*
X81611890Y-31361500D01*
X82288110Y-31361500D01*
X82329591Y-31365585D01*
G37*
G36*
X62968604Y-28778347D02*
G01*
X63005144Y-28789432D01*
X63038821Y-28807433D01*
X63068341Y-28831659D01*
X63092567Y-28861179D01*
X63110568Y-28894856D01*
X63121653Y-28931396D01*
X63126000Y-28975538D01*
X63126000Y-29924462D01*
X63121653Y-29968604D01*
X63110568Y-30005144D01*
X63092567Y-30038821D01*
X63068341Y-30068341D01*
X63038821Y-30092567D01*
X63005144Y-30110568D01*
X62968604Y-30121653D01*
X62924462Y-30126000D01*
X61475538Y-30126000D01*
X61431396Y-30121653D01*
X61394856Y-30110568D01*
X61361179Y-30092567D01*
X61331659Y-30068341D01*
X61307433Y-30038821D01*
X61289432Y-30005144D01*
X61278347Y-29968604D01*
X61274000Y-29924462D01*
X61274000Y-28975538D01*
X61278347Y-28931396D01*
X61289432Y-28894856D01*
X61307433Y-28861179D01*
X61331659Y-28831659D01*
X61361179Y-28807433D01*
X61394856Y-28789432D01*
X61431396Y-28778347D01*
X61475538Y-28774000D01*
X62924462Y-28774000D01*
X62968604Y-28778347D01*
G37*
G36*
X71851000Y-30001000D02*
G01*
X70849000Y-30001000D01*
X70849000Y-28699000D01*
X71851000Y-28699000D01*
X71851000Y-30001000D01*
G37*
G36*
X68551000Y-30001000D02*
G01*
X67549000Y-30001000D01*
X67549000Y-28699000D01*
X68551000Y-28699000D01*
X68551000Y-30001000D01*
G37*
G36*
X115548156Y-20672794D02*
G01*
X116269140Y-20816206D01*
X117060972Y-21144193D01*
X117773601Y-21620357D01*
X118379643Y-22226399D01*
X118855807Y-22939028D01*
X119183794Y-23730860D01*
X119351000Y-24571464D01*
X119351000Y-25428536D01*
X119183794Y-26269140D01*
X118855807Y-27060972D01*
X118379643Y-27773601D01*
X117773601Y-28379643D01*
X117060972Y-28855807D01*
X116269140Y-29183794D01*
X115548156Y-29327206D01*
X115428537Y-29351000D01*
X114571463Y-29351000D01*
X114451844Y-29327206D01*
X113730860Y-29183794D01*
X112939028Y-28855807D01*
X112226399Y-28379643D01*
X111620357Y-27773601D01*
X111144193Y-27060972D01*
X110816206Y-26269140D01*
X110649000Y-25428536D01*
X110649000Y-24571464D01*
X110816206Y-23730860D01*
X111144193Y-22939028D01*
X111620357Y-22226399D01*
X112226399Y-21620357D01*
X112939028Y-21144193D01*
X113730860Y-20816206D01*
X114451844Y-20672794D01*
X114571463Y-20649000D01*
X115428537Y-20649000D01*
X115548156Y-20672794D01*
G37*
G36*
X25548156Y-20672794D02*
G01*
X26269140Y-20816206D01*
X27060972Y-21144193D01*
X27773601Y-21620357D01*
X28379643Y-22226399D01*
X28855807Y-22939028D01*
X29183794Y-23730860D01*
X29351000Y-24571464D01*
X29351000Y-25428536D01*
X29183794Y-26269140D01*
X28855807Y-27060972D01*
X28379643Y-27773601D01*
X27773601Y-28379643D01*
X27060972Y-28855807D01*
X26269140Y-29183794D01*
X25548156Y-29327206D01*
X25428537Y-29351000D01*
X24571463Y-29351000D01*
X24451844Y-29327206D01*
X23730860Y-29183794D01*
X22939028Y-28855807D01*
X22226399Y-28379643D01*
X21620357Y-27773601D01*
X21144193Y-27060972D01*
X20816206Y-26269140D01*
X20649000Y-25428536D01*
X20649000Y-24571464D01*
X20816206Y-23730860D01*
X21144193Y-22939028D01*
X21620357Y-22226399D01*
X22226399Y-21620357D01*
X22939028Y-21144193D01*
X23730860Y-20816206D01*
X24451844Y-20672794D01*
X24571463Y-20649000D01*
X25428537Y-20649000D01*
X25548156Y-20672794D01*
G37*
G36*
X100001000Y-28731000D02*
G01*
X97499000Y-28731000D01*
X97499000Y-27889000D01*
X100001000Y-27889000D01*
X100001000Y-28731000D01*
G37*
G36*
X103901000Y-28731000D02*
G01*
X101399000Y-28731000D01*
X101399000Y-27889000D01*
X103901000Y-27889000D01*
X103901000Y-28731000D01*
G37*
G36*
X103901000Y-27461000D02*
G01*
X101399000Y-27461000D01*
X101399000Y-26619000D01*
X103901000Y-26619000D01*
X103901000Y-27461000D01*
G37*
G36*
X100001000Y-27461000D02*
G01*
X97499000Y-27461000D01*
X97499000Y-26619000D01*
X100001000Y-26619000D01*
X100001000Y-27461000D01*
G37*
G36*
X103901000Y-26191000D02*
G01*
X101399000Y-26191000D01*
X101399000Y-25349000D01*
X103901000Y-25349000D01*
X103901000Y-26191000D01*
G37*
G36*
X100001000Y-26191000D02*
G01*
X97499000Y-26191000D01*
X97499000Y-25349000D01*
X100001000Y-25349000D01*
X100001000Y-26191000D01*
G37*
G36*
X71551000Y-25976000D02*
G01*
X68449000Y-25976000D01*
X68449000Y-24524000D01*
X71551000Y-24524000D01*
X71551000Y-25976000D01*
G37*
G36*
X72753114Y-24731611D02*
G01*
X72852265Y-24761688D01*
X72943644Y-24810531D01*
X73023738Y-24876262D01*
X73089469Y-24956356D01*
X73138312Y-25047735D01*
X73168389Y-25146886D01*
X73178545Y-25250000D01*
X73168389Y-25353114D01*
X73138312Y-25452265D01*
X73089469Y-25543644D01*
X73023738Y-25623738D01*
X72943644Y-25689469D01*
X72852265Y-25738312D01*
X72753114Y-25768389D01*
X72675839Y-25776000D01*
X72324161Y-25776000D01*
X72246886Y-25768389D01*
X72147735Y-25738312D01*
X72056356Y-25689469D01*
X71976262Y-25623738D01*
X71910531Y-25543644D01*
X71861688Y-25452265D01*
X71831611Y-25353114D01*
X71821455Y-25250000D01*
X71831611Y-25146886D01*
X71861688Y-25047735D01*
X71910531Y-24956356D01*
X71976262Y-24876262D01*
X72056356Y-24810531D01*
X72147735Y-24761688D01*
X72246886Y-24731611D01*
X72324161Y-24724000D01*
X72675839Y-24724000D01*
X72753114Y-24731611D01*
G37*
G36*
X67753114Y-24731611D02*
G01*
X67852265Y-24761688D01*
X67943644Y-24810531D01*
X68023738Y-24876262D01*
X68089469Y-24956356D01*
X68138312Y-25047735D01*
X68168389Y-25146886D01*
X68178545Y-25250000D01*
X68168389Y-25353114D01*
X68138312Y-25452265D01*
X68089469Y-25543644D01*
X68023738Y-25623738D01*
X67943644Y-25689469D01*
X67852265Y-25738312D01*
X67753114Y-25768389D01*
X67675839Y-25776000D01*
X67324161Y-25776000D01*
X67246886Y-25768389D01*
X67147735Y-25738312D01*
X67056356Y-25689469D01*
X66976262Y-25623738D01*
X66910531Y-25543644D01*
X66861688Y-25452265D01*
X66831611Y-25353114D01*
X66821455Y-25250000D01*
X66831611Y-25146886D01*
X66861688Y-25047735D01*
X66910531Y-24956356D01*
X66976262Y-24876262D01*
X67056356Y-24810531D01*
X67147735Y-24761688D01*
X67246886Y-24731611D01*
X67324161Y-24724000D01*
X67675839Y-24724000D01*
X67753114Y-24731611D01*
G37*
G36*
X103901000Y-24921000D02*
G01*
X101399000Y-24921000D01*
X101399000Y-24079000D01*
X103901000Y-24079000D01*
X103901000Y-24921000D01*
G37*
G36*
X100001000Y-24921000D02*
G01*
X97499000Y-24921000D01*
X97499000Y-24079000D01*
X100001000Y-24079000D01*
X100001000Y-24921000D01*
G37*
G36*
X89901000Y-24701000D02*
G01*
X88099000Y-24701000D01*
X88099000Y-22899000D01*
X89901000Y-22899000D01*
X89901000Y-24701000D01*
G37*
G36*
X91653512Y-22903927D02*
G01*
X91802812Y-22933624D01*
X91966784Y-23001544D01*
X92114354Y-23100147D01*
X92239853Y-23225646D01*
X92338456Y-23373216D01*
X92406376Y-23537188D01*
X92441000Y-23711259D01*
X92441000Y-23888741D01*
X92406376Y-24062812D01*
X92338456Y-24226784D01*
X92239853Y-24374354D01*
X92114354Y-24499853D01*
X91966784Y-24598456D01*
X91802812Y-24666376D01*
X91653512Y-24696073D01*
X91628742Y-24701000D01*
X91451258Y-24701000D01*
X91426488Y-24696073D01*
X91277188Y-24666376D01*
X91113216Y-24598456D01*
X90965646Y-24499853D01*
X90840147Y-24374354D01*
X90741544Y-24226784D01*
X90673624Y-24062812D01*
X90639000Y-23888741D01*
X90639000Y-23711259D01*
X90673624Y-23537188D01*
X90741544Y-23373216D01*
X90840147Y-23225646D01*
X90965646Y-23100147D01*
X91113216Y-23001544D01*
X91277188Y-22933624D01*
X91426488Y-22903927D01*
X91451258Y-22899000D01*
X91628742Y-22899000D01*
X91653512Y-22903927D01*
G37*
G36*
X103901000Y-23651000D02*
G01*
X101399000Y-23651000D01*
X101399000Y-22809000D01*
X103901000Y-22809000D01*
X103901000Y-23651000D01*
G37*
G36*
X100001000Y-23651000D02*
G01*
X97499000Y-23651000D01*
X97499000Y-22809000D01*
X100001000Y-22809000D01*
X100001000Y-23651000D01*
G37*
G36*
X73608015Y-21731973D02*
G01*
X73711879Y-21763479D01*
X73739055Y-21778005D01*
X73807600Y-21814643D01*
X73891501Y-21883499D01*
X73960357Y-21967400D01*
X73996995Y-22035945D01*
X74011521Y-22063121D01*
X74043027Y-22166985D01*
X74051000Y-22247933D01*
X74051000Y-22852067D01*
X74043027Y-22933015D01*
X74011521Y-23036879D01*
X74011519Y-23036882D01*
X73973114Y-23108733D01*
X73960356Y-23132600D01*
X73891501Y-23216501D01*
X73880356Y-23225647D01*
X73807599Y-23285357D01*
X73755907Y-23312987D01*
X73711878Y-23336521D01*
X73608014Y-23368027D01*
X73500000Y-23378666D01*
X73391985Y-23368027D01*
X73288121Y-23336521D01*
X73244093Y-23312987D01*
X73192401Y-23285357D01*
X73179643Y-23274887D01*
X73108499Y-23216501D01*
X73039644Y-23132600D01*
X73026887Y-23108733D01*
X72989587Y-23038950D01*
X72988479Y-23036878D01*
X72956973Y-22933014D01*
X72949000Y-22852066D01*
X72949000Y-22247933D01*
X72956973Y-22166985D01*
X72988480Y-22063121D01*
X72988481Y-22063118D01*
X73039643Y-21967401D01*
X73108500Y-21883499D01*
X73192401Y-21814643D01*
X73260946Y-21778005D01*
X73288122Y-21763479D01*
X73391986Y-21731973D01*
X73500000Y-21721334D01*
X73608015Y-21731973D01*
G37*
G36*
X66608015Y-21731973D02*
G01*
X66711879Y-21763479D01*
X66739055Y-21778005D01*
X66807600Y-21814643D01*
X66891501Y-21883499D01*
X66960357Y-21967400D01*
X66996995Y-22035945D01*
X67011521Y-22063121D01*
X67043027Y-22166985D01*
X67051000Y-22247933D01*
X67051000Y-22852067D01*
X67043027Y-22933015D01*
X67011521Y-23036879D01*
X67011519Y-23036882D01*
X66973114Y-23108733D01*
X66960356Y-23132600D01*
X66891501Y-23216501D01*
X66880356Y-23225647D01*
X66807599Y-23285357D01*
X66755907Y-23312987D01*
X66711878Y-23336521D01*
X66608014Y-23368027D01*
X66500000Y-23378666D01*
X66391985Y-23368027D01*
X66288121Y-23336521D01*
X66244093Y-23312987D01*
X66192401Y-23285357D01*
X66179643Y-23274887D01*
X66108499Y-23216501D01*
X66039644Y-23132600D01*
X66026887Y-23108733D01*
X65989587Y-23038950D01*
X65988479Y-23036878D01*
X65956973Y-22933014D01*
X65949000Y-22852066D01*
X65949000Y-22247933D01*
X65956973Y-22166985D01*
X65988480Y-22063121D01*
X65988481Y-22063118D01*
X66039643Y-21967401D01*
X66108500Y-21883499D01*
X66192401Y-21814643D01*
X66260946Y-21778005D01*
X66288122Y-21763479D01*
X66391986Y-21731973D01*
X66500000Y-21721334D01*
X66608015Y-21731973D01*
G37*
M02*
