M48
; DRILL file {KiCad (5.1.5-0-10_14)} date Saturday, 18 April 2020 at 02:32:54 pm
; FORMAT={-:-/ absolute / inch / decimal}
; #@! TF.CreationDate,2020-04-18T14:32:54+10:00
; #@! TF.GenerationSoftware,Kicad,Pcbnew,(5.1.5-0-10_14)
FMAT,2
INCH
T1C0.0157
T2C0.0217
T3C0.0236
T4C0.0315
T5C0.0335
T6C0.0394
T7C0.0591
T8C0.1693
T9C0.0315
%
G90
G05
T1
X0.9547Y-1.2894
X0.9547Y-1.4862
X0.9547Y-1.6831
X0.9547Y-1.8799
X0.9547Y-2.0768
X0.9547Y-2.2736
X0.9547Y-2.4705
X0.9547Y-2.6673
X1.1516Y-1.2894
X1.1516Y-1.4862
X1.1516Y-1.6831
X1.1516Y-2.4705
X1.1516Y-2.6673
X1.3484Y-0.8957
X1.3484Y-1.0925
X1.3484Y-1.2894
X1.3484Y-1.4862
X1.3484Y-1.6831
X1.3484Y-2.4705
X1.3484Y-2.6673
X1.3484Y-2.8642
X1.5453Y-0.8957
X1.5453Y-1.0925
X1.5453Y-1.2894
X1.5453Y-1.4862
X1.5453Y-2.4705
X1.5453Y-2.6673
X1.5453Y-2.8642
X1.7421Y-0.8957
X1.7421Y-1.0925
X1.7421Y-1.2894
X1.7421Y-1.4862
X1.7421Y-1.6831
X1.7421Y-2.4705
X1.7421Y-2.6673
X1.7421Y-2.8642
X1.8701Y-2.0079
X1.939Y-0.8957
X1.939Y-1.0925
X1.939Y-1.2894
X1.939Y-1.4862
X1.939Y-1.6831
X1.939Y-2.2736
X1.939Y-2.4705
X1.939Y-2.6673
X1.939Y-2.8642
X2.1358Y-0.8957
X2.1358Y-1.0925
X2.1358Y-1.2894
X2.1358Y-1.4862
X2.1358Y-1.6831
X2.1358Y-2.2736
X2.1358Y-2.4705
X2.1358Y-2.6673
X2.1358Y-2.8642
X2.2146Y-2.1161
X2.2835Y-2.0571
X2.3327Y-0.8957
X2.3327Y-1.0925
X2.3327Y-1.2894
X2.3327Y-1.4862
X2.3327Y-2.4705
X2.3327Y-2.6673
X2.3327Y-2.8642
X2.3327Y-3.061
X2.3937Y-1.8071
X2.4114Y-1.7126
X2.4311Y-1.8602
X2.4508Y-2.0571
X2.4685Y-1.6535
X2.5197Y-1.7717
X2.5197Y-1.8209
X2.5295Y-2.4705
X2.5295Y-3.061
X2.5689Y-2.2933
X2.6083Y-2.0768
X2.6083Y-2.1194
X2.6181Y-1.6732
X2.6575Y-1.8799
X2.6969Y-1.8602
X2.6969Y-2.2933
X2.7264Y-3.061
X2.7362Y-1.6831
X2.8051Y-2.0177
X2.8248Y-2.3819
X2.8445Y-2.0472
X2.9035Y-1.939
X2.9232Y-2.4705
X2.9232Y-3.061
X2.9429Y-2.372
X2.9921Y-2.2343
X2.9921Y-2.2736
X3.061Y-2.2244
X3.0709Y-1.9587
X3.0709Y-2.0177
X3.0906Y-1.8307
X3.0906Y-1.8701
X3.1201Y-0.8957
X3.1201Y-1.0925
X3.1201Y-2.2835
X3.1201Y-2.4705
X3.1201Y-2.6673
X3.1201Y-2.8642
X3.1201Y-3.061
X3.1398Y-1.5354
X3.3169Y-0.8957
X3.3169Y-1.0925
X3.3169Y-2.2736
X3.3169Y-2.4705
X3.3169Y-2.6673
X3.3169Y-2.8642
X3.3169Y-3.061
X3.5138Y-1.4862
X3.5138Y-1.6831
X3.5138Y-1.8799
X3.5138Y-2.2736
X3.5138Y-2.4705
X3.5138Y-2.6673
X3.5138Y-2.8642
X3.5138Y-3.061
X3.6417Y-2.0079
X3.7106Y-1.4862
X3.7106Y-1.6831
X3.7106Y-2.4705
X3.7106Y-2.6673
X3.7106Y-2.8642
X3.7106Y-3.061
X3.7598Y-0.935
X3.9075Y-1.2894
X3.9075Y-1.4862
X3.9075Y-1.6831
X3.9075Y-2.4705
X3.9075Y-2.6673
X3.9075Y-2.8642
X3.9075Y-3.061
X4.1043Y-1.2894
X4.1043Y-1.4862
X4.1043Y-2.4705
X4.1043Y-2.6673
X4.1043Y-2.8642
X4.1043Y-3.061
X4.1732Y-0.9154
X4.1732Y-1.0138
X4.1732Y-1.063
X4.1732Y-1.1122
X4.3012Y-1.2894
X4.3012Y-1.4862
X4.3012Y-1.6831
X4.3012Y-2.4705
X4.3012Y-2.6673
X4.3012Y-2.8642
X4.3012Y-3.061
X4.498Y-1.2894
X4.498Y-1.4862
X4.498Y-1.6831
X4.498Y-1.8799
X4.498Y-2.0768
X4.498Y-2.2736
X4.498Y-2.4705
X4.498Y-2.6673
T3
X0.8573Y-3.0315
X0.8945Y-2.9417
X0.8945Y-3.1213
X0.9843Y-2.9045
X0.9843Y-3.1585
X1.074Y-2.9417
X1.074Y-3.1213
X1.1112Y-3.0315
X4.4006Y-0.9843
X4.4378Y-0.8945
X4.4378Y-1.074
X4.5276Y-0.8573
X4.5276Y-1.1112
X4.6173Y-0.8945
X4.6173Y-1.074
X4.6545Y-0.9843
X0.8573Y-0.9843
X0.8945Y-0.8945
X0.8945Y-1.074
X0.9843Y-0.8573
X0.9843Y-1.1112
X1.074Y-0.8945
X1.074Y-1.074
X1.1112Y-0.9843
X4.4006Y-3.0315
X4.4378Y-2.9417
X4.4378Y-3.1213
X4.5276Y-2.9045
X4.5276Y-3.1585
X4.6173Y-2.9417
X4.6173Y-3.1213
X4.6545Y-3.0315
T4
X2.6673Y-1.3091
X2.6673Y-1.3583
X2.6673Y-1.4075
X2.7165Y-1.1437
X2.7165Y-1.3091
X2.7165Y-1.3583
X2.7165Y-1.4075
X2.874Y-1.3287
X2.874Y-1.378
X2.874Y-1.4961
X2.9724Y-1.378
X2.9724Y-1.4961
X3.0315Y-1.3189
X3.0315Y-1.5453
T6
X3.5039Y-0.937
X3.6039Y-0.937
X2.5591Y-2.7657
X2.6591Y-2.7657
X2.7591Y-2.7657
X2.8591Y-2.7657
X2.9591Y-2.7657
X1.2205Y-1.9094
X1.2205Y-2.1063
X1.7913Y-1.9094
X1.7913Y-2.0079
X1.7913Y-2.1063
X3.7205Y-1.9094
X3.7205Y-2.0079
X3.7205Y-2.1063
X4.2913Y-1.9094
X4.2913Y-2.1063
T8
X4.5276Y-3.0315
X0.9843Y-3.0315
X4.5276Y-0.9843
X0.9843Y-0.9843
T9
X2.6575Y-1.0157
X2.8543Y-1.0157
T2
G00X2.6033Y-0.9203
M15
G01X2.6033Y-0.8947
M16
G05
G00X2.9085Y-0.9203
M15
G01X2.9085Y-0.8947
M16
G05
T5
G00X2.6093Y-1.0679
M15
G01X2.6093Y-1.0463
M16
G05
G00X2.9026Y-1.0679
M15
G01X2.9026Y-1.0463
M16
G05
T7
G00X1.5217Y-1.7874
M15
G01X1.4705Y-1.7874
M16
G05
G00X1.5217Y-2.2283
M15
G01X1.4705Y-2.2283
M16
G05
G00X3.9902Y-1.7874
M15
G01X4.0413Y-1.7874
M16
G05
G00X3.9902Y-2.2283
M15
G01X4.0413Y-2.2283
M16
G05
T0
M30
